<?xml version="1.0" encoding="iso-8859-1"?>
<!-- Generator: Adobe Illustrator 16.0.0, SVG Export Plug-In . SVG Version: 6.00 Build 0)  -->
<!DOCTYPE svg PUBLIC "-//W3C//DTD SVG 1.1//EN" "http://www.w3.org/Graphics/SVG/1.1/DTD/svg11.dtd">
<svg version="1.1" id="Capa_1" xmlns="http://www.w3.org/2000/svg" xmlns:xlink="http://www.w3.org/1999/xlink" x="0px" y="0px"
	 width="196.521px" height="196.521px" viewBox="0 0 196.521 196.521" style="enable-background:new 0 0 196.521 196.521;"
	 xml:space="preserve">
<g>
	<g>
		<ellipse cx="92.544" cy="37.072" rx="14.74" ry="14.545"/>
		<path d="M135.731,0c-2.574,0-4.5,2.086-4.5,4.658V5.5h-7.321c-0.902-2-3.589-4.018-6.24-3.334
			c-1.756,0.454-3.075,2.334-3.638,3.334h-5.801V4.658c0-2.572-2.429-4.658-5-4.658c-2.572,0-5,2.086-5,4.658V17.08
			c0,2.573,2.428,4.658,5,4.658c2.571,0,5-2.085,5-4.658V15.5h6.949c1.911,11,2.666,29.963-6.195,38.503
			c0,0-23.959-0.106-32.109-0.106c-0.998,0-2.115,0.217-2.813,0.615c-18.032,10.281-16.767,36.656-14.694,50.45
			c-1.902,1.913-3.079,4.535-3.079,7.447c0,5.848,4.897,10.58,10.744,10.58c3.219,0,6.197-1.45,8.197-3.72v69.366
			c0,4.354,3.146,7.884,7.499,7.884c4.354,0,7.501-3.528,7.501-7.884V128.5h4v60.137c0,4.354,3.646,7.885,7.999,7.885
			c4.354,0,7.951-3.529,7.951-7.885l-0.074-122.934c0,0,0.633-0.053,0.918-0.216c17.92-10.223,16.805-36.987,14.764-49.987h5.443
			v1.58c0,2.573,1.926,4.658,4.5,4.658c2.572,0,4.5-2.085,4.5-4.658V4.658C140.231,2.086,138.304,0,135.731,0z M69.877,102.164
			c-1.514-11.008-2.646-26.534,5.354-34.91v38.264C74.231,103.904,71.993,102.72,69.877,102.164z"/>
	</g>
</g>
<g>
</g>
<g>
</g>
<g>
</g>
<g>
</g>
<g>
</g>
<g>
</g>
<g>
</g>
<g>
</g>
<g>
</g>
<g>
</g>
<g>
</g>
<g>
</g>
<g>
</g>
<g>
</g>
<g>
</g>
</svg>
