<svg height="512pt" viewBox="-50 0 512 512.00075" width="512pt" xmlns="http://www.w3.org/2000/svg"><path d="m362.855469 155.792969c-37.246094-29.304688-90.003907-21.191407-131.796875-10.847657-6.722656 1.667969-13.617188 2.476563-20.527344 2.777344-1.097656-5.519531-2.464844-11.054687-4.136719-16.546875l32.300781-4.8125c41.371094-6.15625 73.316407-38.101562 79.476563-79.472656l4.765625-32.015625c.414062-1.113281.570312-2.273438.511719-3.449219l1.691406-11.425781-46.890625 6.980469c-41.371094 6.167969-73.316406 38.101562-79.476562 79.476562l-2.808594 18.882813c-9.585938-18.398438-23.375-34.496094-42.394532-44.644532-4.230468-2.257812-9.453124-.648437-11.710937 3.5625-2.25 4.222657-.652344 9.457032 3.5625 11.707032 26.40625 14.078125 40.972656 42.566406 47.339844 71.195312-4.039063-.507812-8.042969-1.21875-11.996094-2.203125-41.796875-10.347656-94.570313-18.46875-131.800781 10.847657-33.351563 26.25-49.375 78.210937-48.9570315 158.84375.3046875 59.574218 34.6093755 128.296874 83.4296875 167.125 32.238281 25.648437 66.90625 35.257812 100.199219 27.742187 14.582031-3.289063 29.964843-3.289063 44.539062 0 7.371094 1.660156 14.792969 2.480469 22.238281 2.480469 26.261719 0 52.84375-10.242188 77.960938-30.222656 48.820312-38.835938 83.117188-107.558594 83.429688-167.125.421874-80.644532-15.59375-132.601563-48.949219-158.855469zm-126.714844-46.542969-7.585937 1.132812 73.621093-73.621093-1.132812 7.585937c-5.015625 33.785156-31.105469 59.875-64.902344 64.902344zm44.660156-85.152344 11.253907-1.675781-77.839844 77.839844 1.679687-11.261719c5.023438-33.785156 31.113281-59.867188 64.90625-64.902344zm36.8125 444.136719c-19.511719 15.535156-50.183593 32.40625-85.625 24.394531-8.527343-1.917968-17.300781-2.878906-26.078125-2.878906-8.769531 0-17.542968.960938-26.070312 2.878906-35.371094 7.992188-66.113282-8.855468-85.625-24.394531-44.28125-35.230469-76.621094-99.851563-76.898438-153.679687-.390625-74.953126 13.46875-122.433594 42.351563-145.164063 24.460937-19.246094 60.546875-21.597656 116.953125-7.648437 6.265625 1.550781 12.65625 2.40625 19.082031 2.941406.492187 4.429687.820313 8.796875.960937 13.039062.144532 4.675782 3.988282 8.371094 8.632813 8.371094h.277344c4.78125-.15625 8.519531-4.144531 8.371093-8.917969-.128906-4.003906-.441406-8.132812-.863281-12.300781 7.449219-.433594 14.867188-1.332031 22.125-3.121094 56.40625-13.945312 92.484375-11.589844 116.957031 7.644532 28.890626 22.734374 42.738282 70.222656 42.351563 145.171874-.269531 53.800782-32.621094 118.433594-76.902344 153.664063zm0 0"/><path d="m121.105469 174.625c-42.925781 0-77.847657 38.804688-77.847657 86.496094 0 4.777344 3.867188 8.652344 8.648438 8.652344 4.785156 0 8.652344-3.875 8.652344-8.652344 0-38.152344 27.167968-69.199219 60.546875-69.199219 4.785156 0 8.652343-3.875 8.652343-8.648437 0-4.773438-3.867187-8.648438-8.652343-8.648438zm0 0"/><path d="m230.78125 177.160156c-7.023438 7.023438-16.347656 10.890625-26.253906 10.890625-9.902344 0-19.246094-3.867187-26.261719-10.890625-3.382813-3.382812-8.847656-3.382812-12.230469 0-3.378906 3.382813-3.382812 8.855469 0 12.230469 10.285156 10.28125 23.96875 15.957031 38.492188 15.957031 14.523437 0 28.199218-5.664062 38.484375-15.957031 3.382812-3.382813 3.382812-8.859375 0-12.230469-3.382813-3.382812-8.851563-3.382812-12.230469 0zm0 0"/></svg>