<?xml version="1.0" standalone="no"?>
<!DOCTYPE svg PUBLIC "-//W3C//DTD SVG 20010904//EN"
 "http://www.w3.org/TR/2001/REC-SVG-20010904/DTD/svg10.dtd">
<svg version="1.0" xmlns="http://www.w3.org/2000/svg"
 width="1280.000000pt" height="905.000000pt" viewBox="0 0 1280.000000 905.000000"
 preserveAspectRatio="xMidYMid meet">
<g transform="translate(0.000000,905.000000) scale(0.100000,-0.100000)"
fill="#000000" stroke="none">
<path d="M9007 9010 c-70 -25 -134 -56 -179 -88 -66 -45 -73 -54 -109 -133
-21 -46 -40 -88 -42 -93 -2 -5 -41 2 -87 17 l-84 26 -76 -40 c-125 -66 -138
-81 -160 -190 -33 -157 -35 -291 -8 -462 l24 -148 -37 -177 c-44 -203 -43
-202 -26 -202 9 0 24 37 42 95 15 53 32 98 36 101 5 3 27 -31 49 -76 24 -48
46 -80 56 -80 10 0 14 6 10 18 -3 9 -12 60 -21 112 -8 52 -18 105 -20 118 -3
13 -1 22 7 22 6 0 84 -29 172 -64 89 -36 173 -69 188 -75 25 -9 27 -13 17 -35
-10 -20 -39 -33 -188 -81 -504 -161 -485 -153 -649 -278 -74 -57 -102 -84
-102 -100 -1 -18 -26 -37 -128 -96 -164 -96 -293 -187 -415 -294 -182 -160
-187 -173 -143 -361 13 -55 27 -121 31 -146 16 -107 71 -297 131 -457 45 -122
64 -185 64 -219 0 -32 11 -71 36 -126 24 -52 38 -102 41 -142 11 -117 78 -210
229 -319 48 -34 60 -38 90 -32 20 3 60 1 90 -6 52 -12 55 -11 71 10 12 18 22
22 47 17 28 -5 35 0 70 44 38 49 41 50 93 50 l53 0 0 45 c0 43 -2 46 -70 101
-38 31 -70 59 -70 63 0 3 9 12 20 19 14 8 20 23 20 47 0 28 -9 44 -47 83 -27
26 -72 75 -101 110 -60 70 -77 75 -168 47 -27 -8 -54 -15 -60 -15 -6 0 -31 44
-56 98 -44 93 -47 104 -62 252 -9 85 -21 211 -26 280 -5 69 -14 152 -20 185
-5 33 -10 63 -10 66 0 4 127 73 282 154 243 128 284 146 300 136 15 -9 23 -9
34 0 22 18 39 5 59 -48 10 -26 36 -69 57 -94 33 -40 38 -52 38 -97 0 -36 4
-52 13 -52 17 0 75 -143 83 -205 4 -28 25 -88 46 -135 29 -62 42 -107 48 -165
5 -44 14 -118 20 -164 8 -69 7 -87 -4 -100 -8 -9 -19 -41 -24 -71 -6 -30 -15
-68 -22 -84 -6 -16 -8 -48 -4 -71 5 -35 1 -50 -21 -84 -14 -23 -50 -113 -80
-199 -54 -158 -58 -178 -104 -532 -19 -145 42 -549 82 -542 9 2 17 1 17 -2 0
-17 -99 -244 -153 -353 -36 -70 -86 -177 -112 -238 -26 -60 -71 -159 -101
-220 -50 -103 -56 -112 -107 -142 -73 -44 -150 -70 -227 -78 -91 -8 -385 -92
-445 -126 -27 -15 -90 -60 -140 -100 -49 -39 -108 -79 -130 -89 -22 -9 -75
-38 -119 -64 -43 -26 -80 -45 -83 -43 -2 2 -6 48 -10 101 -3 53 -10 99 -14
102 -5 2 -5 12 -2 20 3 8 0 26 -6 38 -25 46 -1 234 47 371 30 84 31 168 4 225
-38 76 -61 113 -92 146 -16 18 -30 39 -30 48 0 9 -4 16 -9 16 -8 0 -96 127
-96 140 0 3 -19 25 -43 50 -23 25 -42 49 -42 53 0 12 -127 137 -138 137 -6 0
-24 16 -41 35 -17 19 -34 35 -38 35 -4 0 -21 13 -38 28 -16 15 -47 38 -67 51
-21 12 -38 26 -38 29 0 4 -18 16 -40 26 -21 10 -49 29 -61 42 -13 13 -30 24
-38 24 -9 0 -27 9 -41 20 -14 11 -30 20 -36 20 -6 0 -19 9 -29 20 -10 11 -21
17 -25 15 -4 -3 -13 2 -20 10 -7 8 -20 15 -30 15 -18 0 -125 98 -116 107 3 3
-3 13 -12 23 -10 10 -23 39 -31 64 -8 27 -19 46 -28 46 -8 0 -11 5 -8 10 3 6
-1 10 -9 10 -18 0 -19 4 -8 28 60 123 94 208 94 232 0 8 5 33 10 55 6 22 10
53 10 68 -1 35 21 85 72 160 l19 28 17 -28 c9 -15 27 -37 39 -47 11 -11 21
-25 21 -31 0 -7 8 -15 18 -19 9 -3 35 -17 57 -30 28 -18 55 -25 90 -26 47 0
53 3 92 44 22 24 44 53 48 65 3 11 11 21 16 21 5 0 9 5 9 11 0 6 14 29 31 50
17 21 27 39 22 39 -4 1 2 9 15 20 13 10 22 23 22 27 -1 4 10 22 24 40 15 18
26 36 26 42 0 5 12 23 26 40 14 17 23 31 20 31 -3 0 3 16 14 35 11 19 29 51
40 70 12 21 20 54 20 80 0 71 21 198 37 223 8 13 12 26 9 30 -3 3 1 13 10 23
20 22 43 120 44 183 0 36 6 55 25 78 18 21 25 41 25 72 0 24 7 57 16 75 9 18
16 58 16 91 1 51 -3 64 -31 98 -17 22 -31 45 -31 51 0 6 -5 11 -11 11 -13 0
-115 100 -103 100 5 0 -13 12 -41 25 l-49 24 -23 -21 c-12 -12 -25 -29 -29
-40 -10 -34 -21 -18 -28 43 -7 58 -8 60 -34 57 -20 -2 -28 -9 -30 -28 -2 -14
-8 -29 -13 -34 -14 -16 -11 -64 7 -92 14 -20 16 -43 12 -122 -3 -53 -10 -107
-16 -118 -6 -12 -8 -25 -4 -28 6 -7 21 -65 39 -149 7 -34 -15 -117 -34 -124
-7 -3 -13 -10 -13 -15 0 -6 -8 -17 -17 -24 -14 -10 -18 -27 -18 -80 -1 -44 -5
-69 -13 -72 -7 -2 -12 -9 -12 -16 0 -7 -9 -21 -20 -31 -19 -17 -20 -17 -26 1
-3 11 -10 27 -15 37 -5 10 -7 22 -4 27 4 6 2 10 -4 10 -5 0 -15 15 -21 34 -6
19 -17 40 -25 46 -8 7 -12 16 -9 21 2 5 -3 20 -12 34 -9 14 -13 25 -10 25 4 0
-1 11 -9 24 -12 19 -15 51 -14 162 1 86 -3 150 -10 167 -6 16 -9 33 -5 38 3 5
-1 9 -9 9 -7 0 -24 18 -36 41 -13 22 -50 69 -83 105 -33 35 -56 64 -52 64 5 0
4 4 -3 8 -19 12 -60 77 -73 116 -14 42 -7 149 9 154 21 7 11 22 -14 22 l-25 0
0 185 c0 102 2 185 4 185 3 0 44 -9 92 -21 102 -24 148 -17 184 28 19 24 20
35 14 91 -6 58 -5 65 15 79 16 10 21 23 19 43 -1 15 3 35 11 44 7 8 14 37 15
63 l1 47 43 9 c73 14 73 33 -3 172 -36 66 -65 126 -65 133 0 7 11 32 24 55 27
47 26 67 -13 246 -22 98 -19 114 18 126 45 14 88 164 62 213 -15 27 -27 28
-34 2 -7 -29 -26 -25 -33 8 -16 73 -26 93 -43 87 -65 -27 -66 -27 -203 19 -74
24 -163 50 -199 56 -84 16 -194 15 -246 0 -33 -10 -46 -10 -57 -1 -11 9 -20 7
-42 -12 -16 -13 -59 -38 -96 -55 -38 -17 -84 -43 -104 -58 -52 -40 -124 -132
-117 -150 3 -8 -1 -22 -10 -32 -28 -32 -47 -112 -53 -225 -7 -123 -7 -124 56
-297 60 -163 71 -214 60 -290 -14 -101 -62 -182 -151 -258 -41 -34 -116 -102
-167 -150 -51 -48 -99 -89 -107 -92 -7 -3 -26 -16 -42 -30 -35 -32 -160 -121
-192 -138 -13 -7 -29 -11 -35 -9 -6 2 -25 -2 -43 -10 -18 -7 -48 -13 -67 -13
-19 0 -38 -5 -41 -11 -4 -5 -17 -14 -28 -20 -23 -9 -58 -30 -67 -39 -12 -12
-52 -31 -57 -27 -2 3 -13 -3 -24 -14 -11 -11 -24 -17 -29 -14 -5 3 -11 1 -15
-5 -10 -16 -79 -48 -92 -43 -7 3 -13 -3 -13 -11 0 -10 -12 -19 -31 -23 -19 -3
-34 -14 -36 -25 -3 -10 -12 -18 -19 -18 -8 0 -14 -4 -14 -10 0 -5 -6 -10 -13
-10 -12 0 -49 -31 -153 -125 l-44 -40 -1 -238 c0 -145 4 -243 10 -251 5 -6 13
-54 16 -106 9 -146 53 -402 73 -435 11 -17 31 -98 32 -130 1 -29 38 -151 39
-130 1 5 7 1 14 -10 18 -25 39 -185 36 -263 -2 -46 2 -65 17 -83 10 -13 24
-24 29 -24 21 -1 65 -29 65 -40 0 -21 40 -105 50 -105 6 0 10 -11 10 -25 0
-41 21 -75 47 -75 16 0 23 -6 23 -20 0 -24 17 -54 48 -86 62 -64 98 -51 87 31
-3 27 -13 58 -22 67 -24 27 -9 87 42 172 31 51 45 84 45 110 0 20 5 36 10 36
10 0 14 -15 11 -34 -1 -5 3 -34 9 -65 9 -42 19 -62 42 -82 25 -21 29 -29 21
-45 -28 -55 -67 -153 -68 -169 0 -5 -6 -20 -13 -32 -9 -17 -12 -83 -12 -244 0
-247 2 -237 -79 -321 -20 -20 -46 -50 -59 -67 -13 -17 -30 -31 -38 -31 -8 0
-22 -12 -32 -27 -43 -69 -78 -112 -90 -113 -7 0 -11 -4 -8 -8 3 -5 -15 -34
-40 -65 -24 -31 -41 -57 -37 -57 3 0 -4 -11 -17 -25 -13 -14 -28 -25 -35 -25
-6 0 -17 -10 -25 -21 -40 -57 -86 -115 -100 -126 -8 -7 -11 -13 -7 -13 4 0 3
-6 -2 -12 -52 -65 -76 -88 -106 -102 -19 -9 -35 -23 -35 -29 0 -7 18 -31 40
-52 22 -21 40 -47 40 -58 0 -28 -57 -93 -113 -129 -70 -45 -145 -47 -347 -10
-85 16 -182 30 -215 31 -35 1 -70 9 -85 19 -14 8 -38 15 -55 14 -30 -2 -165
-45 -197 -62 -10 -6 -27 -10 -39 -10 -11 0 -33 -8 -47 -18 -15 -10 -47 -24
-72 -31 -25 -7 -56 -17 -69 -22 -13 -6 -26 -7 -29 -5 -2 3 -14 -1 -26 -9 -11
-8 -30 -15 -41 -15 -11 0 -29 -7 -40 -16 -18 -13 -80 -34 -115 -38 -8 -1 -28
-8 -45 -15 -78 -33 -94 -39 -157 -55 -78 -19 -199 -21 -216 -4 -7 7 -12 20
-12 29 0 20 -103 137 -144 165 -16 10 -40 26 -53 34 -13 8 -26 23 -29 33 -3
10 -12 16 -19 13 -8 -2 -34 14 -59 37 -24 23 -48 44 -53 46 -53 24 -99 25
-121 4 -7 -7 -10 -13 -7 -13 4 0 -5 -14 -19 -31 -14 -17 -26 -34 -26 -38 0 -4
-16 -25 -36 -47 -19 -21 -41 -53 -48 -69 -7 -17 -20 -38 -28 -46 -9 -8 -23
-29 -32 -47 -9 -18 -21 -32 -27 -32 -6 0 -9 -6 -7 -12 3 -7 -4 -22 -14 -33
-11 -11 -28 -39 -40 -62 -11 -23 -29 -44 -39 -46 -11 -3 -19 -14 -19 -27 0
-11 -11 -32 -25 -45 -13 -14 -22 -25 -20 -25 3 0 -5 -17 -17 -37 -12 -21 -30
-53 -39 -72 -10 -18 -26 -42 -35 -52 -9 -11 -14 -19 -9 -19 4 0 1 -7 -6 -16
-7 -9 -14 -23 -15 -31 -3 -21 -55 -124 -74 -147 -8 -10 -14 -21 -13 -25 5 -12
-20 -76 -46 -116 -32 -51 -34 -57 -35 -129 -1 -56 1 -60 29 -77 39 -23 76 -23
115 -1 32 17 220 198 220 211 0 4 15 7 34 7 22 0 44 9 65 27 18 15 39 27 47
27 8 0 22 4 32 9 33 17 77 35 87 36 6 0 15 3 20 7 6 3 39 3 74 -1 75 -9 116 6
150 55 22 32 56 44 127 44 26 0 33 5 38 25 4 15 14 25 24 25 10 0 23 5 29 11
6 6 27 12 47 14 19 2 50 8 68 14 57 17 121 33 150 36 15 2 43 11 60 18 60 27
249 39 523 33 143 -3 305 -11 360 -17 55 -5 118 -12 140 -14 113 -10 176 -16
230 -20 33 -2 128 -11 210 -18 249 -24 292 -22 350 8 48 26 127 85 205 152 21
18 48 33 62 33 29 0 118 29 118 39 0 3 -19 6 -42 4 l-43 -2 36 32 c19 18 52
47 72 65 20 18 37 38 37 46 0 17 48 38 71 31 14 -5 46 21 134 107 63 62 124
117 135 122 11 5 20 14 20 21 0 12 3 15 86 90 29 25 63 62 78 83 14 20 42 48
61 62 19 14 35 31 35 38 0 6 5 12 10 12 6 0 10 7 10 15 0 8 5 15 10 15 6 0 15
12 20 26 6 14 19 28 30 31 11 3 19 11 18 18 -3 13 136 208 170 238 20 18 22
18 76 -9 31 -15 56 -30 56 -34 0 -4 24 -19 53 -35 50 -27 118 -74 219 -150 25
-19 51 -35 58 -35 7 0 24 -8 38 -17 50 -33 67 -43 90 -53 12 -5 22 -15 22 -21
0 -7 3 -9 6 -6 4 3 26 -5 51 -20 41 -24 45 -24 62 -9 11 10 25 14 37 10 42
-15 171 -74 209 -96 44 -25 51 -28 73 -38 12 -5 22 -14 22 -20 0 -5 6 -10 13
-10 6 0 24 -10 40 -23 l27 -22 -11 -220 c-11 -232 -7 -457 10 -514 6 -19 8
-38 5 -42 -2 -5 1 -17 8 -28 7 -11 9 -23 5 -27 -13 -13 -154 26 -173 48 -62
68 -130 57 -196 -31 l-44 -58 -13 -149 c-7 -86 -9 -192 -6 -249 6 -86 4 -112
-15 -185 -19 -70 -23 -121 -27 -290 l-5 -205 37 -89 c20 -49 57 -120 83 -158
43 -66 47 -69 81 -66 31 3 41 11 77 65 l41 62 6 138 c3 76 11 166 18 200 l12
62 144 131 c78 71 145 130 148 130 9 0 5 -356 -4 -366 -5 -5 -13 -40 -19 -79
-9 -65 -19 -98 -41 -135 -24 -43 -41 -79 -41 -90 0 -7 -11 -34 -25 -62 -19
-38 -25 -65 -25 -118 0 -38 -5 -72 -11 -75 -13 -9 -31 -52 -35 -88 -4 -29 24
-90 37 -82 4 3 12 -2 19 -10 7 -8 18 -15 24 -15 28 0 36 -23 17 -49 -10 -14
-21 -33 -25 -41 -4 -8 -13 -25 -20 -38 l-13 -23 -11 28 c-6 15 -15 42 -19 58
-7 24 -9 16 -13 -45 -5 -68 -7 -75 -27 -78 -22 -3 -23 0 -23 53 0 64 -20 73
-31 14 l-6 -34 -2 33 c-2 47 -18 39 -27 -15 -7 -34 -14 -49 -28 -51 -17 -4
-18 3 -13 95 2 54 8 109 12 122 6 18 5 23 -6 19 -8 -3 -17 -27 -22 -59 -4 -29
-12 -58 -17 -63 -6 -6 -10 -17 -10 -25 0 -17 -41 -81 -52 -81 -5 0 -8 57 -8
128 -1 114 -2 125 -15 108 -10 -13 -15 -45 -16 -90 0 -39 -4 -93 -7 -121 -6
-41 -11 -50 -27 -50 -19 0 -20 8 -23 168 -2 154 -11 201 -26 145 -3 -13 -9
-61 -13 -107 -5 -73 -8 -82 -20 -66 -7 11 -13 37 -14 59 -1 23 -5 52 -9 66 -5
15 -8 -30 -9 -117 -1 -125 -9 -171 -24 -145 -3 4 -9 73 -13 152 -5 80 -10 135
-12 123 -6 -40 -19 -25 -26 29 -6 41 -4 53 8 60 24 13 19 31 -14 63 -18 17
-30 39 -30 54 0 38 -19 101 -31 101 -6 0 -6 -7 1 -19 5 -11 10 -40 10 -65 0
-35 -4 -46 -16 -46 -13 0 -12 -5 5 -26 33 -42 28 -129 -14 -242 -8 -24 -18
-70 -22 -103 -4 -40 -10 -59 -19 -59 -10 0 -14 14 -15 48 0 26 -4 68 -10 95
-5 26 -13 67 -17 92 -17 89 -24 57 -20 -92 1 -84 -1 -148 -5 -144 -7 7 -22 59
-41 144 -4 15 -11 27 -17 27 -7 0 -9 -11 -4 -32 4 -18 9 -68 12 -110 4 -73 3
-78 -15 -78 -23 0 -62 56 -62 87 0 11 -3 23 -6 26 -4 4 -8 23 -9 44 -2 21 -7
56 -13 78 -9 39 -10 38 -11 -27 -1 -56 -4 -66 -16 -62 -19 8 -19 -15 0 -40 8
-11 15 -40 15 -64 0 -37 -2 -42 -14 -33 -7 6 -16 28 -20 49 -3 20 -13 50 -21
66 -18 34 -19 58 -3 74 6 6 9 15 5 18 -8 9 -41 -31 -66 -79 -22 -44 -29 -38
-47 33 -11 42 -12 37 -13 -67 -1 -104 -2 -112 -22 -118 -11 -4 -23 -4 -26 -1
-3 3 -11 47 -17 98 -11 84 -13 89 -19 53 -4 -22 -7 -54 -7 -71 0 -16 -6 -38
-13 -49 -12 -16 -15 -10 -20 51 -15 148 -35 154 -39 12 -3 -91 -5 -103 -22
-106 -31 -6 -36 17 -30 138 6 120 3 123 -33 31 -9 -23 -10 -22 -42 27 -51 80
-56 80 -56 -1 0 -52 -5 -79 -18 -97 -9 -13 -17 -35 -17 -47 0 -13 -4 -23 -10
-23 -12 0 -12 3 1 76 6 32 15 65 21 72 10 11 4 16 -14 13 -5 0 -8 25 -8 56 -1
50 -2 56 -14 41 -7 -10 -16 -49 -19 -88 -3 -38 -12 -82 -20 -97 -7 -16 -22
-46 -33 -67 -33 -69 -39 -55 -37 91 2 90 -1 131 -6 118 -5 -11 -10 -32 -10
-47 -1 -15 -5 -30 -11 -33 -6 -3 -10 -22 -10 -41 0 -19 -3 -34 -7 -34 -5 0 -7
73 -5 162 2 143 1 161 -11 143 -16 -22 -36 -184 -40 -310 -1 -45 -6 -80 -12
-80 -5 0 -13 38 -17 83 -4 46 -19 123 -34 170 -25 82 -26 95 -21 219 10 230
-31 136 -50 -115 -3 -34 -9 -62 -14 -62 -5 0 -9 5 -9 11 0 5 -4 8 -9 5 -5 -3
-9 -54 -10 -113 -1 -59 -6 -112 -11 -118 -5 -6 -10 -31 -13 -55 -2 -25 -4 38
-5 140 -2 167 -4 182 -16 155 -8 -16 -18 -52 -22 -80 l-8 -50 -11 80 c-7 44
-17 91 -23 105 -9 21 -11 12 -11 -54 l-1 -80 -28 27 c-15 15 -32 27 -38 27 -5
0 -15 9 -22 20 -7 11 -17 20 -23 20 -6 0 -22 9 -36 20 -14 11 -30 20 -34 20
-20 0 -6 -24 41 -74 l50 -53 0 -89 -1 -89 -32 37 c-34 37 -51 90 -63 186 -4
28 -10 52 -15 52 -12 0 -11 -187 1 -195 16 -10 13 -208 -2 -203 -8 3 -16 34
-21 79 -4 41 -12 82 -17 91 -6 10 -11 28 -12 40 -1 13 -4 -2 -8 -32 l-7 -55
-1 47 c-1 26 -6 49 -12 53 -5 3 -7 12 -3 20 3 8 0 15 -6 15 -7 0 -11 -42 -11
-130 l0 -130 -24 0 c-21 0 -24 6 -30 53 -4 28 -4 90 -1 135 5 66 3 83 -7 80
-7 -3 -17 -26 -22 -52 l-8 -47 -24 35 c-13 19 -24 39 -24 44 0 5 -11 19 -25
32 -27 25 -31 18 -15 -24 7 -20 5 -37 -11 -73 -12 -27 -24 -70 -28 -97 -8 -62
-28 -73 -25 -14 1 24 5 50 8 58 2 8 9 32 15 53 8 31 7 37 -6 37 -12 0 -14 9
-8 51 6 41 4 50 -6 47 -9 -3 -18 -34 -24 -86 -7 -49 -17 -88 -27 -98 -14 -14
-16 -13 -26 15 -6 17 -16 31 -21 31 -7 0 -11 26 -12 63 0 52 -2 58 -11 37 -5
-14 -14 -33 -19 -42 -5 -10 -9 -35 -9 -55 0 -21 -5 -45 -10 -53 -7 -10 -9 65
-8 233 2 175 0 247 -8 247 -11 0 -19 -57 -30 -235 -3 -55 -12 -114 -19 -130
-8 -17 -19 -71 -25 -120 -7 -50 -18 -103 -26 -120 -13 -27 -14 -9 -9 163 3
128 2 191 -5 187 -5 -3 -10 -24 -10 -45 0 -21 -4 -41 -9 -44 -4 -3 -14 -55
-21 -116 -8 -60 -16 -110 -20 -110 -3 0 -14 21 -23 48 -12 34 -17 79 -17 160
0 87 -3 113 -12 110 -9 -3 -14 -32 -16 -86 -3 -82 -7 -93 -30 -70 -22 22 -25
-1 -4 -36 15 -25 21 -56 23 -118 3 -78 2 -83 -17 -86 -19 -3 -22 3 -28 57 -4
33 -7 140 -7 237 1 136 -2 175 -12 172 -14 -5 -25 -74 -26 -165 -1 -35 -5 -63
-10 -63 -4 0 -12 28 -15 63 -11 94 -17 117 -32 117 -9 0 -11 -10 -9 -33 9 -71
14 -367 6 -367 -9 0 -18 91 -28 283 -6 130 -20 169 -25 74 l-3 -52 -12 45 c-7
25 -20 78 -29 118 -9 39 -21 72 -25 72 -10 0 -6 -131 4 -147 4 -7 -1 -29 -12
-49 -11 -21 -23 -57 -27 -81 -3 -24 -10 -46 -15 -49 -5 -3 -9 -21 -9 -40 0
-19 -4 -34 -10 -34 -5 0 -11 -39 -12 -87 -2 -70 -6 -88 -18 -88 -13 0 -14 16
-12 100 3 90 2 98 -11 80 -8 -10 -12 -25 -10 -33 3 -7 1 -23 -5 -35 -7 -12
-13 -42 -15 -67 -2 -33 -5 -21 -11 48 -5 51 -13 95 -17 98 -5 3 -9 15 -9 26 0
12 -3 18 -8 14 -4 -4 -7 -22 -8 -39 0 -18 -1 -68 -2 -113 l-2 -81 -27 0 c-26
0 -28 4 -30 41 -1 23 -6 64 -11 91 l-9 50 -2 -77 c-1 -90 -13 -128 -40 -128
-30 0 -40 21 -52 106 -6 43 -16 85 -23 92 -10 11 -12 -7 -8 -92 4 -89 2 -106
-10 -106 -35 0 -46 33 -53 158 -4 67 -12 125 -16 128 -5 3 -9 39 -9 80 0 42
-4 74 -9 72 -5 -2 -25 -23 -45 -46 -24 -30 -36 -54 -36 -75 0 -37 -8 -51 -34
-60 -13 -5 -17 -13 -12 -31 9 -35 -3 -56 -30 -56 -22 0 -24 -4 -24 -45 0 -34
-4 -47 -18 -52 -9 -3 -25 -13 -34 -21 -16 -14 -18 -13 -18 2 0 9 5 25 12 36 7
10 9 22 5 26 -8 9 -37 -15 -37 -31 0 -6 -10 -20 -21 -31 -21 -19 -22 -19 -16
1 3 11 8 55 12 98 4 42 11 77 16 77 5 0 9 -5 9 -10 0 -7 7 -7 20 0 11 6 25 8
30 5 6 -3 10 1 10 9 0 10 6 13 15 10 8 -4 15 -1 15 6 0 6 4 9 8 6 14 -8 47 67
43 97 -1 9 3 17 9 17 6 0 8 5 5 10 -3 6 2 10 12 10 17 1 17 2 -1 15 -19 14
-19 15 -1 15 17 0 17 1 1 19 -11 13 -15 27 -11 40 4 13 2 21 -5 21 -6 0 -8 5
-5 10 3 6 1 10 -4 10 -6 0 -11 7 -11 15 0 8 -7 15 -15 15 -9 0 -27 11 -40 24
-14 14 -26 19 -28 13 -2 -8 -10 -6 -21 6 -21 20 -32 22 -39 5 -4 -10 -8 -9
-16 2 -8 12 -11 12 -11 1 0 -10 -9 -12 -35 -7 -28 6 -34 4 -29 -8 4 -10 -2
-17 -20 -22 -16 -4 -26 -13 -26 -24 0 -9 -9 -25 -20 -35 -13 -12 -17 -22 -10
-29 6 -8 2 -16 -11 -25 -20 -12 -20 -14 -4 -31 11 -12 13 -20 5 -25 -8 -5 -8
-10 0 -20 7 -8 9 -24 5 -36 -5 -16 0 -27 20 -45 15 -12 24 -27 21 -32 -5 -9
31 -25 59 -26 29 -2 36 -65 17 -136 -9 -33 -10 -33 -11 -7 -1 15 -5 27 -10 27
-6 0 -7 -29 -4 -70 l6 -70 -32 0 c-30 0 -31 1 -31 45 0 25 -4 45 -10 45 -5 0
-10 -15 -10 -34 0 -19 -5 -38 -12 -42 -7 -5 -9 -2 -5 9 3 8 -1 21 -9 27 -12
10 -14 7 -14 -18 0 -36 -26 -64 -36 -37 -4 9 -4 74 -1 144 3 71 1 117 -3 106
-5 -11 -9 -34 -9 -52 -1 -17 -6 -35 -11 -38 -5 -3 -10 -22 -10 -42 0 -24 -11
-54 -32 -87 l-33 -51 -3 133 c-2 100 -6 132 -15 129 -8 -2 -14 -43 -18 -121
-5 -85 -11 -122 -22 -133 -31 -31 -37 -5 -37 146 0 113 -3 151 -14 160 -11 9
-14 0 -20 -50 -3 -34 -6 -86 -6 -116 0 -39 -4 -53 -12 -51 -8 3 -16 35 -20 83
-9 94 -14 113 -29 98 -7 -7 -7 -22 0 -49 14 -51 14 -221 0 -229 -6 -4 -12 -5
-14 -3 -2 2 -7 65 -11 141 -4 75 -11 137 -15 137 -5 0 -10 -10 -10 -22 -2 -36
-16 28 -18 78 0 22 -4 44 -8 48 -5 4 -15 46 -23 93 -9 54 -20 88 -29 91 -11 4
-12 -2 -7 -24 4 -16 12 -84 17 -152 8 -112 7 -125 -11 -159 -10 -20 -22 -56
-26 -80 -3 -24 -10 -46 -15 -49 -5 -3 -9 -27 -9 -54 0 -27 -4 -52 -10 -55 -6
-4 -10 16 -10 54 0 33 -5 63 -11 66 -6 4 -9 24 -8 46 2 21 0 41 -4 45 -4 4 -7
28 -8 53 0 25 -4 55 -9 66 -11 26 -11 28 -10 -163 0 -89 -3 -162 -8 -162 -4 0
-13 36 -20 80 -6 44 -18 92 -27 107 -15 27 -16 22 -11 -81 7 -122 -2 -150 -35
-120 -11 10 -19 21 -19 25 0 4 -5 20 -12 36 -7 15 -17 64 -24 108 l-11 80 -2
-63 c-1 -59 -3 -63 -21 -57 -25 8 -25 5 1 -49 20 -44 23 -85 5 -89 -5 -1 -13
12 -18 28 -5 17 -12 37 -15 45 -4 8 -5 20 -4 27 1 6 -3 14 -9 18 -13 8 -13 52
0 60 6 3 10 16 10 28 -1 20 -4 19 -31 -13 -17 -19 -37 -50 -45 -67 -20 -46
-31 -41 -39 17 -5 34 -12 50 -22 50 -11 0 -12 -6 -6 -22 4 -13 8 -56 8 -97 0
-58 -4 -76 -17 -84 -12 -8 -21 -7 -32 2 -12 10 -16 35 -17 105 -1 50 -3 82 -6
71 -2 -11 -8 -29 -13 -40 -5 -11 -11 -47 -15 -79 -6 -67 -8 -71 -30 -63 -9 4
-15 19 -16 39 l-1 33 -9 -31 c-5 -17 -16 -38 -25 -45 -14 -12 -21 -8 -54 31
-42 49 -61 49 -37 1 18 -35 13 -41 -26 -34 -26 5 -27 8 -27 62 0 40 -3 52 -10
41 -5 -8 -10 -31 -10 -50 0 -45 -15 -60 -57 -60 -36 0 -54 23 -34 43 15 15 14
47 -2 47 -8 0 -17 -19 -23 -47 -6 -32 -14 -48 -24 -48 -12 0 -15 20 -15 118 0
64 -3 117 -7 117 -5 0 -8 -18 -8 -39 0 -22 -5 -43 -10 -46 -6 -3 -10 -26 -10
-49 0 -69 -10 -106 -29 -106 -12 0 -21 15 -30 52 -8 29 -20 66 -29 83 -12 24
-14 58 -10 180 4 106 2 140 -4 115 -6 -19 -14 -44 -19 -55 -11 -27 -29 -153
-29 -206 0 -39 -1 -41 -14 -24 -12 16 -14 7 -20 -74 -10 -126 -29 -118 -36 15
-5 106 -14 100 -26 -18 -4 -38 -10 -68 -14 -68 -4 0 -10 43 -14 96 -8 101 -13
124 -27 124 -5 0 -9 -54 -9 -120 l0 -120 -30 0 c-30 0 -30 1 -30 54 0 30 -6
67 -12 83 -12 26 -13 21 -18 -57 -5 -79 -7 -85 -27 -88 -20 -3 -23 -9 -23 -48
l0 -44 6400 0 6400 0 0 392 c0 335 -2 394 -15 408 -9 10 -18 51 -24 106 -4 49
-9 77 -10 63 0 -14 -4 -29 -8 -33 -4 -4 -6 -24 -5 -44 2 -20 -3 -46 -11 -56
-12 -17 -15 -12 -21 54 -3 39 -13 81 -21 93 -13 18 -15 10 -17 -84 -3 -104 -3
-104 -28 -104 l-25 0 4 124 c4 132 -7 154 -29 60 l-13 -52 -18 24 c-10 13 -19
29 -19 34 0 6 -13 25 -28 43 l-27 33 0 -73 c0 -53 -5 -80 -17 -98 -10 -13 -18
-35 -18 -47 0 -13 -4 -23 -10 -23 -5 0 -10 4 -10 9 0 13 20 114 26 135 4 12 2
16 -5 12 -8 -5 -11 12 -11 53 0 34 -4 61 -10 61 -9 0 -14 -24 -25 -119 -3 -30
-12 -66 -19 -80 -7 -15 -21 -44 -32 -65 -33 -69 -39 -55 -36 91 3 128 2 136
-12 110 -8 -15 -18 -54 -22 -87 -12 -106 -19 -64 -16 95 2 97 -1 155 -7 155
-5 0 -12 -8 -15 -17 -9 -33 -26 -207 -29 -292 -3 -112 -23 -121 -29 -14 -3 43
-13 103 -22 133 -10 30 -22 72 -28 92 -7 24 -9 86 -5 173 5 104 3 135 -6 135
-8 0 -17 -33 -26 -97 -7 -54 -17 -102 -22 -107 -5 -6 -9 -31 -9 -58 0 -38 -3
-46 -15 -42 -11 4 -15 -1 -17 -17 0 -13 -2 -30 -2 -38 -1 -8 -7 -16 -14 -19
-9 -3 -12 13 -12 58 0 39 -4 59 -10 55 -6 -4 -8 -10 -5 -15 3 -5 1 -11 -5 -15
-5 -3 -10 -21 -10 -40 0 -19 -4 -37 -10 -40 -5 -3 -10 3 -10 14 0 11 -4 23
-10 26 -5 3 -10 23 -11 43 -2 88 -17 84 -18 -5 l-1 -91 -30 -11 c-28 -9 -32
-8 -40 15 -6 14 -11 40 -12 57 -1 18 -4 5 -7 -28 -5 -47 -10 -61 -24 -63 -30
-6 -67 25 -67 56 0 16 -4 32 -9 38 -5 5 -11 23 -14 39 -2 17 -5 2 -6 -32 0
-35 -4 -63 -7 -63 -5 0 -271 138 -323 168 -7 4 -35 44 -62 87 l-48 80 -43 -3
c-33 -3 -48 1 -59 15 -82 94 -251 568 -298 838 -16 88 -34 203 -40 255 -6 52
-22 156 -36 230 -14 74 -30 196 -36 271 -10 127 -10 141 11 213 41 147 10 229
-120 312 -33 21 -62 46 -65 55 -3 9 -36 55 -73 102 -59 76 -95 107 -312 269
-135 101 -284 212 -332 246 -111 80 -144 120 -158 191 -18 91 -22 97 -83 109
-32 6 -75 25 -102 44 l-47 33 7 60 c16 155 37 250 63 284 25 33 25 35 19 167
-5 104 -2 163 13 266 11 73 24 180 30 238 6 58 17 146 25 195 7 50 26 181 41
293 l28 203 34 26 c19 14 37 21 41 17 4 -5 19 -36 33 -69 96 -229 80 -204 174
-267 l85 -58 111 0 110 0 146 61 c100 41 158 72 182 95 34 32 39 34 110 34
l75 0 56 63 c30 34 67 82 81 107 l26 45 -19 90 c-10 50 -19 101 -19 115 -1 19
-24 45 -92 105 -50 44 -97 79 -105 77 -9 -2 -22 6 -30 17 -20 29 -36 26 -93
-16 -37 -28 -54 -50 -72 -92 -12 -31 -35 -76 -50 -101 -21 -33 -28 -55 -26
-83 1 -25 -3 -41 -12 -47 -8 -6 -58 -10 -111 -10 -80 0 -99 3 -112 18 -10 10
-41 73 -71 140 -30 67 -87 178 -126 247 l-72 125 16 47 c9 26 16 52 16 59 0 7
-23 55 -51 106 -28 51 -61 122 -73 158 l-21 65 -100 59 c-55 32 -163 92 -240
133 -187 100 -212 124 -100 97 33 -8 86 -15 118 -16 70 -2 96 18 104 81 4 32
12 44 32 54 29 14 39 50 20 73 -10 12 -8 20 8 42 11 15 23 50 26 77 4 28 16
61 27 75 56 70 55 66 21 112 -34 46 -39 87 -16 128 19 34 19 235 0 315 -8 33
-15 86 -15 118 0 32 -8 84 -17 116 -15 51 -24 63 -66 92 -43 29 -57 33 -133
37 -80 4 -86 6 -99 32 -7 14 -32 43 -54 63 -32 29 -49 37 -79 37 -20 0 -66 2
-102 4 -56 4 -79 -1 -173 -34z m-374 -546 c0 -21 -4 -72 -8 -111 -10 -94 1
-119 76 -177 32 -25 59 -50 59 -56 0 -13 -6 -13 -39 4 -24 13 -101 96 -101
109 0 3 -14 35 -30 71 -26 56 -30 76 -28 128 3 57 5 63 28 69 39 11 45 5 43
-37z m-4151 -1920 c3 -21 10 -64 15 -94 5 -31 13 -62 18 -70 5 -8 8 -23 7 -32
-2 -10 2 -27 9 -40 6 -12 13 -64 15 -115 2 -52 9 -103 15 -114 13 -25 25 -354
12 -362 -5 -3 -6 -37 -2 -79 4 -40 8 -119 8 -176 1 -116 7 -107 -94 -133 -55
-14 -105 -45 -105 -66 0 -7 -9 -21 -20 -30 -11 -10 -20 -22 -20 -28 0 -6 -6
-17 -12 -23 -7 -7 -13 -16 -14 -20 0 -4 -6 -20 -12 -35 -7 -16 -12 -33 -12
-38 0 -5 -4 -9 -8 -9 -16 0 -37 76 -38 136 -1 56 -4 65 -45 115 -24 30 -57 81
-73 114 -16 33 -39 74 -52 92 -13 17 -24 36 -24 41 0 5 -7 15 -15 22 -8 7 -15
23 -15 37 0 13 -4 32 -10 42 -5 10 -11 29 -14 42 -27 131 -36 186 -36 214 0
19 -4 37 -10 40 -14 8 -13 242 0 250 6 4 10 14 8 23 -1 10 1 23 5 30 5 7 9 50
11 97 1 46 4 87 7 90 3 3 28 10 55 15 27 6 67 15 89 21 22 5 65 14 96 19 32 6
70 17 85 25 16 8 38 15 49 15 11 0 38 7 60 15 52 19 59 16 67 -31z m4773
-2916 c94 -75 209 -152 346 -233 63 -37 159 -98 214 -135 55 -37 125 -78 155
-90 59 -25 80 -44 141 -132 30 -44 39 -66 39 -99 0 -23 7 -128 16 -233 23
-265 49 -365 152 -576 85 -174 275 -536 370 -705 45 -81 58 -114 68 -180 13
-76 12 -81 -6 -95 -16 -12 -18 -22 -13 -54 5 -30 3 -37 -6 -32 -7 5 -10 14 -7
22 3 8 2 22 -3 32 -5 9 -14 43 -21 74 -16 82 -30 82 -30 -1 0 -38 5 -73 10
-76 7 -4 8 -11 2 -18 -6 -7 -16 -32 -23 -57 -7 -25 -16 -50 -20 -55 -4 -6 -11
-35 -15 -65 -4 -30 -11 -58 -17 -62 -6 -3 -9 -40 -8 -83 2 -49 -2 -82 -10 -91
-21 -25 -26 2 -22 104 5 91 4 96 -11 75 -10 -13 -19 -54 -23 -100 l-7 -78 -9
45 c-5 25 -10 64 -12 88 -1 23 -5 46 -9 49 -3 3 -6 17 -6 30 0 14 -4 21 -10
18 -6 -4 -10 -55 -10 -119 l0 -113 -29 0 -29 0 -7 89 c-8 103 -19 110 -16 10
3 -81 -12 -122 -45 -122 -26 0 -44 41 -44 101 0 21 -4 41 -10 44 -5 3 -10 17
-10 30 0 13 -4 26 -8 29 -5 3 -7 -42 -4 -99 4 -101 4 -105 -16 -105 -11 0 -24
6 -29 13 -13 21 -48 341 -39 363 3 8 17 19 31 24 34 13 33 34 -2 26 -17 -5
-29 -3 -35 6 -6 10 -12 7 -27 -11 -10 -13 -36 -30 -57 -37 -47 -17 -44 -16
-44 -4 0 6 8 11 18 11 16 1 16 2 0 6 -23 6 -23 23 -1 23 15 0 15 1 -2 14 -12
8 -16 20 -12 35 3 11 1 21 -5 21 -5 0 -8 6 -5 13 5 15 -38 57 -59 57 -8 0 -19
10 -24 23 -7 17 -9 18 -9 5 -1 -22 -21 -24 -21 -2 0 12 -7 15 -30 12 -17 -3
-30 0 -30 6 0 5 -6 1 -14 -10 -13 -16 -18 -17 -35 -6 -27 16 -32 15 -25 -3 4
-9 -3 -16 -20 -21 -16 -4 -26 -13 -26 -24 0 -9 -9 -25 -20 -35 -12 -10 -18
-25 -15 -33 3 -8 -3 -21 -12 -28 -13 -10 -15 -16 -6 -22 7 -4 12 -16 12 -27 1
-11 1 -37 1 -58 0 -26 5 -37 15 -37 8 0 15 -7 15 -15 0 -8 5 -15 11 -15 5 0 7
-4 4 -10 -3 -5 0 -10 9 -10 8 0 16 -5 18 -10 2 -6 14 -12 26 -13 29 -2 37 -31
26 -105 -6 -39 -9 -49 -12 -29 -7 55 -22 25 -22 -46 0 -70 -1 -74 -22 -72 -20
1 -23 8 -26 48 -4 56 -19 62 -24 10 -2 -20 -8 -38 -15 -40 -7 -3 -10 3 -6 15
2 11 0 23 -6 26 -7 5 -11 -3 -11 -21 0 -29 -15 -53 -33 -53 -6 0 -8 54 -5 137
3 77 2 130 -3 121 -5 -8 -10 -30 -11 -47 -1 -18 -6 -35 -10 -37 -4 -3 -8 -21
-8 -41 0 -40 -58 -139 -73 -124 -5 5 -7 63 -5 130 4 159 -15 156 -23 -3 -5
-87 -11 -122 -22 -134 -13 -13 -19 -13 -31 -2 -13 10 -16 39 -16 161 0 93 -4
149 -10 149 -5 0 -10 -15 -10 -33 0 -19 -3 -37 -7 -40 -3 -4 -5 -36 -4 -71 2
-59 -9 -90 -24 -67 -3 6 -6 53 -7 106 -2 105 -8 118 -64 129 -38 8 -48 29 -64
129 -19 113 -39 122 -34 15 3 -46 10 -113 16 -149 9 -58 9 -70 -6 -90 -9 -13
-16 -30 -16 -39 0 -8 -7 -28 -15 -44 -8 -16 -14 -34 -14 -40 1 -6 -1 -18 -4
-26 -4 -8 -8 -35 -9 -59 -2 -25 -7 -46 -13 -48 -6 -2 -9 17 -7 47 2 28 0 56
-6 63 -5 7 -12 48 -16 92 -9 106 -16 145 -28 145 -5 0 -8 -69 -8 -166 1 -91 0
-168 -3 -170 -3 -3 -8 23 -12 58 -4 35 -10 68 -13 73 -4 6 -7 15 -8 20 -1 6
-7 21 -13 35 -9 20 -10 1 -7 -87 4 -87 2 -114 -8 -123 -11 -9 -20 -4 -41 24
-21 28 -28 53 -37 130 -7 53 -16 96 -21 96 -6 0 -7 -24 -4 -61 6 -57 6 -60
-13 -54 -11 4 -20 4 -20 1 0 -6 17 -49 32 -82 12 -25 8 -56 -8 -61 -7 -2 -15
12 -18 31 -4 19 -13 48 -21 63 -17 33 -19 62 -5 97 6 17 6 26 0 26 -12 0 -70
-78 -70 -95 0 -6 -6 -17 -12 -24 -11 -10 -15 -2 -23 40 -18 91 -31 68 -27 -47
l4 -106 -28 4 -29 3 -3 92 c-1 51 -7 93 -11 93 -5 0 -7 -8 -4 -19 3 -10 0 -22
-6 -25 -6 -4 -11 -22 -11 -39 0 -68 -12 -107 -31 -107 -15 0 -19 8 -19 33 l-1
32 -13 -31 c-24 -56 -52 -55 -85 2 -20 34 -49 48 -37 18 3 -9 9 -27 12 -40 5
-21 3 -23 -25 -21 -31 2 -31 3 -31 56 0 45 -2 52 -14 41 -8 -6 -16 -30 -18
-53 -3 -42 -3 -42 -45 -45 -36 -3 -43 0 -43 15 0 11 5 24 11 30 12 12 6 43 -9
43 -5 0 -13 -21 -18 -47 -6 -32 -14 -48 -24 -48 -12 0 -15 20 -15 118 0 66 -4
116 -9 114 -11 -4 -12 -11 -25 -136 -6 -52 -14 -98 -20 -104 -12 -12 -31 0
-31 21 0 9 -6 28 -13 42 -32 62 -40 121 -35 263 4 102 3 132 -4 107 -6 -19
-14 -44 -19 -55 -11 -26 -29 -153 -29 -204 0 -41 -15 -57 -22 -23 -2 9 -8 -25
-12 -76 -6 -68 -11 -92 -21 -92 -11 0 -15 23 -17 103 -3 88 -4 96 -12 60 -5
-24 -12 -43 -15 -43 -17 0 -31 27 -31 61 0 20 -7 42 -15 49 -13 11 -15 8 -15
-19 l0 -32 -67 54 c-118 95 -148 82 -49 -20 28 -29 55 -53 60 -53 6 0 20 -10
33 -22 19 -18 23 -32 23 -80 0 -58 0 -58 -30 -58 -29 0 -30 1 -30 49 0 27 -6
64 -14 82 -15 34 -15 33 -18 -51 -3 -77 -5 -85 -24 -88 -32 -5 -52 28 -61 102
-4 40 -13 71 -20 74 -17 5 -18 -119 -2 -135 18 -18 3 -43 -25 -43 -27 0 -36
16 -36 68 0 36 -31 82 -56 82 -6 0 -17 7 -24 15 -7 9 -18 14 -24 12 -6 -2 -23
2 -37 9 -15 7 -29 11 -32 8 -3 -3 -13 -1 -24 5 -35 20 -152 71 -162 71 -6 0
-16 9 -23 20 -7 11 -17 20 -22 20 -19 0 -46 34 -46 58 0 19 -3 22 -13 14 -10
-9 -24 0 -61 37 -40 41 -47 54 -45 82 4 62 1 68 -38 76 -21 4 -44 6 -51 4 -17
-3 -52 27 -52 46 0 7 -4 21 -9 31 -5 9 -16 33 -24 52 -22 50 -56 83 -78 77
-14 -4 -20 1 -25 21 -3 15 -12 39 -20 54 -8 14 -14 40 -14 56 0 17 -4 42 -10
56 -18 50 -39 282 -40 452 l0 171 51 32 c30 18 124 54 227 86 98 30 211 68
252 84 41 17 154 55 250 85 97 30 220 73 275 96 117 48 186 60 350 60 113 0
123 2 166 28 55 33 109 92 214 232 43 58 124 161 180 230 104 128 256 373 357
574 68 137 64 134 107 93 20 -19 68 -59 106 -89z m830 -2670 c-1 -13 -3 -26
-4 -29 0 -4 -11 -9 -22 -12 -17 -5 -20 -11 -15 -31 9 -35 -2 -56 -30 -56 -21
0 -24 -4 -24 -42 -1 -38 -5 -46 -36 -66 l-36 -22 6 42 c5 37 5 40 -6 24 -7
-10 -23 -31 -36 -45 -20 -22 -22 -23 -18 -6 2 11 7 55 11 98 4 42 11 77 16 77
5 0 9 -5 9 -10 0 -7 7 -7 20 0 11 6 25 8 30 5 6 -3 10 1 10 9 0 10 6 13 15 10
8 -4 15 -1 15 6 0 6 5 8 10 5 6 -3 10 -1 10 5 0 16 60 71 70 65 4 -2 6 -15 5
-27z m65 -163 c-5 -144 -11 -165 -25 -80 -3 22 -13 54 -22 72 -16 30 -16 33 0
51 9 10 17 30 17 43 0 20 29 78 34 67 0 -2 -1 -70 -4 -153z m-824 114 c29 -30
29 -32 32 -165 3 -93 1 -134 -7 -134 -7 0 -11 22 -11 54 0 30 -5 58 -11 62 -8
5 -10 32 -6 85 4 49 3 79 -3 79 -6 0 -10 -12 -11 -27 -1 -21 -3 -17 -10 15 -4
23 -11 47 -14 52 -13 22 13 8 41 -21z m3212 -30 c19 -80 17 -89 -19 -86 -28 2
-30 4 -25 31 3 16 6 46 6 67 0 58 24 50 38 -12z m-398 -69 c0 -22 -4 -40 -10
-40 -11 0 -14 63 -3 73 11 12 13 8 13 -33z m-2050 -140 c-12 -22 -64 -28 -75
-9 -12 19 6 62 38 92 l32 30 8 -47 c5 -29 4 -54 -3 -66z m-1221 -72 c1 -13 -7
-18 -25 -18 -24 0 -26 3 -21 28 3 15 11 41 18 57 l12 30 8 -40 c4 -22 8 -48 8
-57z m381 42 c0 -11 -4 -20 -10 -20 -5 0 -10 9 -10 20 0 11 5 20 10 20 6 0 10
-9 10 -20z m660 10 c0 -5 -4 -10 -10 -10 -5 0 -10 5 -10 10 0 6 5 10 10 10 6
0 10 -4 10 -10z m-1953 -82 c-2 -13 -4 -5 -4 17 -1 22 1 32 4 23 2 -10 2 -28
0 -40z m-1667 -19 c0 -21 -4 -27 -15 -23 -19 8 -19 3 0 -32 17 -33 19 -54 6
-54 -14 0 -28 22 -44 66 -13 38 -12 43 6 68 15 21 22 24 33 15 8 -6 14 -24 14
-40z m-2180 26 c7 -8 19 -15 27 -15 13 0 14 -16 8 -112 -4 -62 -11 -117 -15
-121 -4 -5 -15 -7 -25 -5 -14 3 -17 21 -18 136 -1 72 1 132 4 132 4 0 12 -7
19 -15z m2254 -20 c47 -20 52 -34 25 -79 -36 -61 -66 -36 -68 57 -1 20 1 37 3
37 2 0 20 -7 40 -15z m104 -52 c-2 -20 -9 -39 -17 -41 -9 -3 -11 0 -7 7 4 7 2
18 -4 26 -15 18 -6 45 15 45 13 0 15 -9 13 -37z m125 15 c22 1 28 -2 23 -14
-3 -9 -6 -22 -6 -30 0 -9 -4 -12 -10 -9 -5 3 -19 1 -30 -5 -17 -9 -21 -8 -26
7 -3 10 -10 26 -15 35 -14 26 -11 30 14 22 12 -5 35 -7 50 -6z m-4203 -144 c0
-111 -3 -145 -12 -142 -7 3 -16 27 -20 54 -5 27 -15 62 -24 77 -15 26 -15 30
0 46 9 10 16 27 16 39 0 26 20 72 32 72 4 0 8 -66 8 -146z m2382 70 c23 -68
19 -84 -21 -81 l-30 2 5 60 c10 105 16 108 46 19z m397 -21 c1 -39 -1 -43 -24
-43 -18 0 -25 5 -25 19 0 11 5 23 11 26 6 4 8 13 5 21 -3 7 -1 16 4 19 6 4 10
16 11 28 1 20 2 20 9 -3 4 -14 8 -44 9 -67z m-1461 30 c22 -74 25 -88 26 -108
0 -11 -3 -26 -8 -33 -12 -20 -26 -13 -26 14 0 20 -4 25 -16 20 -15 -6 -16 0
-11 46 4 29 7 63 7 76 0 34 16 26 28 -15z m2972 27 c0 -5 -5 -10 -11 -10 -5 0
-7 5 -4 10 3 6 8 10 11 10 2 0 4 -4 4 -10z m-1133 -47 c-3 -10 -5 -2 -5 17 0
19 2 27 5 18 2 -10 2 -26 0 -35z m673 27 c0 -11 -4 -20 -10 -20 -5 0 -10 9
-10 20 0 11 5 20 10 20 6 0 10 -9 10 -20z m-1853 -87 c-2 -21 -4 -6 -4 32 0
39 2 55 4 38 2 -18 2 -50 0 -70z m-338 -40 c1 -7 -3 -13 -9 -13 -5 0 -10 17
-9 38 1 33 2 34 9 12 4 -14 8 -31 9 -37z m-1709 -93 c-13 -24 -52 -26 -70 -5
-17 20 3 68 39 96 l26 21 8 -46 c5 -29 3 -54 -3 -66z m-1221 -57 c1 -18 -4
-23 -24 -23 -30 0 -30 6 -8 62 l18 43 6 -30 c4 -16 7 -40 8 -52z m381 26 c0
-11 -4 -17 -10 -14 -5 3 -10 13 -10 21 0 8 5 14 10 14 6 0 10 -9 10 -21z"/>
<path d="M10245 1384 l-30 -25 55 5 c55 5 110 24 110 39 0 4 -24 7 -52 7 -42
0 -59 -5 -83 -26z"/>
<path d="M7361 1051 c-21 -14 -18 -72 5 -99 57 -69 84 -89 84 -62 0 23 -31
125 -45 147 -17 25 -23 27 -44 14z"/>
<path d="M1880 2338 c0 -5 -12 -13 -27 -19 l-28 -11 23 -11 c17 -8 36 -6 78 9
31 10 54 24 52 29 -4 12 -98 15 -98 3z"/>
<path d="M5362 1608 c72 -74 90 -83 111 -60 33 38 -44 107 -134 119 l-41 6 64
-65z"/>
<path d="M1180 1385 c0 -112 32 -136 34 -26 1 45 -3 65 -16 78 -17 16 -18 14
-18 -52z"/>
<path d="M4035 993 c-30 -6 -65 -25 -65 -35 0 -13 83 -9 113 5 54 25 22 45
-48 30z"/>
<path d="M4905 892 c-6 -5 -30 -14 -55 -21 -50 -13 -57 -16 -151 -60 -36 -17
-75 -41 -85 -52 l-19 -21 45 7 c25 4 50 10 55 13 6 4 15 7 20 7 17 1 88 38
147 77 31 21 62 38 67 38 6 0 11 5 11 10 0 12 -22 13 -35 2z"/>
<path d="M942 851 c-12 -11 -41 -22 -65 -26 -23 -4 -46 -10 -52 -14 -5 -4 -26
-14 -45 -21 -35 -13 -90 -57 -90 -72 0 -11 98 -10 105 1 3 5 18 12 34 16 34 7
164 112 156 125 -9 14 -17 12 -43 -9z"/>
<path d="M5995 818 c-28 -11 -64 -44 -65 -62 0 -13 48 2 91 30 61 38 45 57
-26 32z"/>
<path d="M1527 703 c-12 -12 -7 -40 9 -54 17 -14 57 -16 89 -4 76 27 90 34 92
42 6 18 -174 33 -190 16z"/>
</g>
</svg>
