<?xml version="1.0" encoding="iso-8859-1"?>
<!-- Generator: Adobe Illustrator 16.0.0, SVG Export Plug-In . SVG Version: 6.00 Build 0)  -->
<!DOCTYPE svg PUBLIC "-//W3C//DTD SVG 1.1//EN" "http://www.w3.org/Graphics/SVG/1.1/DTD/svg11.dtd">
<svg version="1.1" id="Capa_1" xmlns="http://www.w3.org/2000/svg" xmlns:xlink="http://www.w3.org/1999/xlink" x="0px" y="0px"
	 width="198.684px" height="198.684px" viewBox="0 0 198.684 198.684" style="enable-background:new 0 0 198.684 198.684;"
	 xml:space="preserve">
<g>
	<g>
		<ellipse cx="99.229" cy="35.662" rx="15.068" ry="14.871"/>
		<path d="M78.138,54.478c1.511-1.109,3.338-1.713,5.214-1.715l32.686-0.042c10.972-10.572,7.527-36.247,5.023-46.003
			c-0.744-2.873,0.983-5.804,3.856-6.547c2.867-0.74,5.806,0.986,6.548,3.859c0.483,1.88,11.59,46.215-13.329,60.432
			c-0.293,0.168-0.926,0.473-0.926,0.473l0.101,125.689c0,4.45-3.629,8.06-8.079,8.06c-4.451,0-8.079-3.608-8.079-8.06v-60.905
			h-3.889v60.905c0,4.45-3.578,8.06-8.03,8.06c-4.45,0-8.028-3.608-8.028-8.06V66.52c-9.475,11.288-6.174,35.289-3.77,44.653
			c0.742,2.872-0.986,5.804-3.859,6.547c-0.451,0.116-0.904,0.171-1.349,0.171c-2.391,0-4.572-1.606-5.198-4.029
			C66.561,112.052,56.638,70.269,78.138,54.478z"/>
	</g>
</g>
<g>
</g>
<g>
</g>
<g>
</g>
<g>
</g>
<g>
</g>
<g>
</g>
<g>
</g>
<g>
</g>
<g>
</g>
<g>
</g>
<g>
</g>
<g>
</g>
<g>
</g>
<g>
</g>
<g>
</g>
</svg>
