<?xml version="1.0" encoding="iso-8859-1"?>
<!-- Generator: Adobe Illustrator 19.0.0, SVG Export Plug-In . SVG Version: 6.00 Build 0)  -->
<svg xmlns="http://www.w3.org/2000/svg" xmlns:xlink="http://www.w3.org/1999/xlink" version="1.1" id="Capa_1" x="0px" y="0px" viewBox="0 0 512 512" style="enable-background:new 0 0 512 512;" xml:space="preserve" width="512" height="512">
<g>
	<polygon style="fill:#FF6337;" points="180.5,255 180.5,404.5 195.5,424.5 195.5,255  "/>
	<path style="fill:#FFD9D4;" d="M233,452h-15v-47.5h-37.5v55c0,4.143,3.358,7.5,7.5,7.5h45c4.142,0,7.5-3.357,7.5-7.5   S237.142,452,233,452z"/>
	<path style="fill:#B3B3B3;" d="M242,497h-69.667c-4.142,0-7.5-3.357-7.5-7.5s3.358-7.5,7.5-7.5H242c4.687,0,8.5-3.813,8.5-8.5   c0-4.143,3.358-7.5,7.5-7.5s7.5,3.357,7.5,7.5C265.5,486.458,254.958,497,242,497z"/>
	<path style="fill:#CCCCCC;" d="M22.5,439.999c-12.407,0-22.5-10.094-22.5-22.5v-55c0-4.143,3.358-7.5,7.5-7.5s7.5,3.357,7.5,7.5v55   c0,4.136,3.364,7.5,7.5,7.5c4.142,0,7.5,3.357,7.5,7.5S26.642,439.999,22.5,439.999z"/>
	<path style="fill:#FF8646;" d="M120.5,255v92.499c0,4.136-3.364,7.5-7.5,7.5H92.5l-20,15H113c12.407,0,22.5-10.094,22.5-22.5V255   H120.5z"/>
	<path style="fill:#FFE2A8;" d="M37.5,354.999c-4.142,0-7.5,3.357-7.5,7.5v45c0,4.143,3.358,7.5,7.5,7.5s7.5-3.357,7.5-7.5v-15h47.5   v-37.5H37.5z"/>
	<path style="fill:#FFA754;" d="M98.163,147.5c-45.491,0-82.5-37.009-82.5-82.5c0-4.142-3.358-7.5-7.5-7.5s-7.5,3.358-7.5,7.5   c0,53.762,43.738,97.5,97.5,97.5h45v-15H98.163z"/>
	<polygon style="fill:#FF6337;" points="138.033,89.961 138.033,165 198.033,165 198.033,90  "/>
	<polygon style="fill:#FF8646;" points="118.033,90 118.033,165 172.999,165 172.999,89.961  "/>
	<path style="fill:#CF301B;" d="M203.031,224.99l-44.999-30L188.031,315h30v-50.345C218.031,249.444,212.36,235.565,203.031,224.99z   "/>
	<path style="fill:#FF4128;" d="M173.031,224.99l-14.999-30l-45.001,30c-9.329,10.575-15,24.454-15,39.665V315h90v-50.345   C188.031,249.444,182.36,235.565,173.031,224.99z"/>
	<path style="fill:#FF8646;" d="M218.033,155c0-11.05-8.95-20-20-20h-30l5,90h30c8.28,0,15-6.71,15-15V155z"/>
	<path style="fill:#FFA754;" d="M188.033,155c0-11.046-8.954-20-20-20h-50c-11.046,0-19.87,8.954-19.87,20v55.004   c0,8.284,6.586,15,14.87,15h60c8.284,0,15-6.716,15-15l0.023-15L188.033,155z"/>
	<path style="fill:#4F4F4F;" d="M119.013,37.512L93.013,82.518C91.74,84.722,91,87.272,91,90c0,8.284,6.716,15,15,15h52V37.512   H119.013z"/>
	<path style="fill:#353535;" d="M222.987,82.518l-26.001-45.006H158V105h52c8.284,0,15-6.716,15-15   C225,87.272,224.26,84.722,222.987,82.518z"/>
	<path style="fill:#FFD9D4;" d="M157.997,25v80c24.853,0,45-20.147,45-45c0-5.261-0.912-10.307-2.571-15L157.997,25z"/>
	<path style="fill:#353535;" d="M157.997,15l14.143,30h28.286C194.248,27.524,177.589,15,157.997,15z"/>
	<path style="fill:#FFF0D3;" d="M115.568,45c-1.659,4.693-2.571,9.739-2.571,15c0,24.853,20.147,45,45,45c8.284,0,15-20.147,15-45   c0-5.261-0.304-10.307-0.857-15l-14.143-20L115.568,45z"/>
	<path style="fill:#4F4F4F;" d="M157.997,15c-19.592,0-36.25,12.524-42.429,30h56.572C170.081,27.524,164.528,15,157.997,15z"/>
	<path style="fill:#FF6753;" d="M344.5,147.5c-45.491,0-82.5-37.009-82.5-82.5c0-4.142-3.358-7.5-7.5-7.5S247,60.858,247,65   c0,53.762,43.738,97.5,97.5,97.5h45v-15H344.5z"/>
	<polygon style="fill:#4F4F4F;" points="427,255 427,404.5 442,424.5 442,255  "/>
	<path style="fill:#FFD9D4;" d="M479.5,452h-15v-47.5H427v55c0,4.143,3.358,7.5,7.5,7.5h45c4.142,0,7.5-3.357,7.5-7.5   S483.642,452,479.5,452z"/>
	<path style="fill:#B3B3B3;" d="M488.5,497h-69.667c-4.142,0-7.5-3.357-7.5-7.5s3.358-7.5,7.5-7.5H488.5c4.687,0,8.5-3.813,8.5-8.5   c0-4.143,3.358-7.5,7.5-7.5s7.5,3.357,7.5,7.5C512,486.458,501.458,497,488.5,497z"/>
	<path style="fill:#CCCCCC;" d="M269,439.999c-12.407,0-22.5-10.094-22.5-22.5v-55c0-4.143,3.358-7.5,7.5-7.5s7.5,3.357,7.5,7.5v55   c0,4.136,3.364,7.5,7.5,7.5c4.142,0,7.5,3.357,7.5,7.5S273.142,439.999,269,439.999z"/>
	<path style="fill:#696969;" d="M367,255v92.499c0,4.136-3.364,7.5-7.5,7.5H339l-20,15h40.5c12.407,0,22.5-10.094,22.5-22.5V255H367   z"/>
	<path style="fill:#FFE2A8;" d="M284,354.999c-4.142,0-7.5,3.357-7.5,7.5v45c0,4.143,3.358,7.5,7.5,7.5s7.5-3.357,7.5-7.5v-15H339   v-37.5H284z"/>
	<path style="fill:#4F4F4F;" d="M404.5,225v75c24.853,0,45-20.147,45-45v-30H404.5z"/>
	<path style="fill:#696969;" d="M419.5,255v-30h-60v30c0,24.853,20.147,45,45,45C412.784,300,419.5,279.853,419.5,255z"/>
	<path style="fill:#FF4128;" d="M444.5,135h-30v80l50-30v-30C464.5,143.954,455.546,135,444.5,135z"/>
	<path style="fill:#FF6753;" d="M434.5,155c0-11.046-8.954-20-20-20h-50c-11.046,0-20,8.954-20,20v30l90,30V155z"/>
	<path style="fill:#CF301B;" d="M419.5,255h30c8.284,0,15-6.716,15-15v-55h-30L419.5,255z"/>
	<path style="fill:#FF4128;" d="M344.5,185v55c0,8.284,6.716,15,15,15h60c8.284,0,15-6.716,15-15v-55H344.5z"/>
	<path style="fill:#FFB4A9;" d="M404.5,15v101l45-46V60C449.5,35.147,429.353,15,404.5,15z"/>
	<path style="fill:#FFD9D4;" d="M404.5,15c-24.853,0-45,20.147-45,45v10l60,46V60C419.5,35.147,412.784,15,404.5,15z"/>
	<path style="fill:#85453D;" d="M423.209,70c-1.053-1.573-2.303-3.002-3.709-4.261L404.5,135c24.853,0,45-20.147,45-45V70H423.209z"/>
	<path style="fill:#A45E43;" d="M419.5,90V65.739c-3.981-3.566-9.235-5.739-15-5.739c-7.801,0-14.672,3.971-18.709,10H359.5v20   c0,24.853,20.147,45,45,45C412.784,135,419.5,114.853,419.5,90z"/>
</g>















</svg>
