<?xml version="1.0" encoding="iso-8859-1"?>
<!-- Generator: Adobe Illustrator 19.0.0, SVG Export Plug-In . SVG Version: 6.00 Build 0)  -->
<svg xmlns="http://www.w3.org/2000/svg" xmlns:xlink="http://www.w3.org/1999/xlink" version="1.1" id="Capa_1" x="0px" y="0px" viewBox="0 0 512 512" style="enable-background:new 0 0 512 512;" xml:space="preserve" width="512" height="512">
<g>
	<path d="M180.5,326.25v137c0,4.143,3.358,7.5,7.5,7.5h45c4.142,0,7.5-3.357,7.5-7.5s-3.358-7.5-7.5-7.5h-7.5v-47.5   c0-4.143-3.358-7.5-7.5-7.5h-22.5v-74.5h22.531c4.142,0,7.5-3.357,7.5-7.5v-50.346c0-12.735-3.596-25.115-10.275-35.782   c6.18-4.015,10.276-10.979,10.276-18.882v-54.99c0-12.563-8.472-23.178-20-26.452V116.25H210c12.407,0,22.5-10.094,22.5-22.5   c0-3.931-1.043-7.814-3.019-11.234c0,0-26.224-45.365-26.344-45.536C193.974,21.589,177.175,11.25,158,11.25   c-19.172,0-35.969,10.336-45.133,25.722c-0.121,0.174-26.349,45.545-26.349,45.545C84.544,85.937,83.5,89.82,83.5,93.75   c0,12.406,10.093,22.5,22.5,22.5h4.532v16.048c-9.049,2.57-16.209,9.662-18.872,18.672c-42.46-3.33-75.998-38.92-75.998-82.22   c0-4.143-3.358-7.5-7.5-7.5s-7.5,3.357-7.5,7.5c0,51.194,39.661,93.298,89.87,97.203v47.787c0,7.901,4.095,14.865,10.274,18.881   c-6.68,10.667-10.275,23.047-10.275,35.783v50.346c0,4.143,3.358,7.5,7.5,7.5H120.5v24.999c0,4.136-3.364,7.5-7.5,7.5H37.5   c-4.142,0-7.5,3.357-7.5,7.5v45c0,4.143,3.358,7.5,7.5,7.5s7.5-3.357,7.5-7.5v-7.5h47.5c4.142,0,7.5-3.357,7.5-7.5v-22.5h13   c12.407,0,22.5-10.094,22.5-22.5V326.25H180.5z M210.5,415.75v40h-15v-40H210.5z M85,388.749H45v-15h40V388.749z M120.5,63.75   c0-2.568,0.261-5.076,0.755-7.5h73.491c0.494,2.424,0.755,4.932,0.755,7.5c0,20.678-16.822,37.5-37.5,37.5   S120.5,84.428,120.5,63.75z M217.5,93.75c0,4.136-3.364,7.5-7.5,7.5h-15.307c6.755-6.61,11.743-15.018,14.164-24.448l7.636,13.217   C217.161,91.176,217.5,92.432,217.5,93.75z M158,26.25c12.242,0,23.131,5.898,29.98,15H128.02   C134.869,32.148,145.758,26.25,158,26.25z M98.5,93.75c0-1.318,0.339-2.574,1.006-3.73l7.636-13.218   c2.422,9.431,7.41,17.838,14.165,24.449H106C101.865,101.25,98.5,97.886,98.5,93.75z M190.533,116.25v15h-65v-15H190.533z    M118.033,146.25h80c6.893,0,12.5,5.607,12.5,12.5v54.99c0,4.136-3.365,7.5-7.501,7.5h-89.999c-4.135,0-7.5-3.365-7.5-7.5v-53.626   c0.081-0.443,0.13-0.898,0.13-1.364c0-0.348-0.032-0.689-0.078-1.024C106.109,151.312,111.486,146.25,118.033,146.25z    M105.531,268.404c0-11.686,3.905-22.981,11.039-32.164h82.922c7.134,9.183,11.039,20.478,11.039,32.164v42.846h-105V268.404z"/>
	<path d="M258,469.75c-4.142,0-7.5,3.357-7.5,7.5c0,4.687-3.813,8.5-8.5,8.5h-69.667c-4.142,0-7.5,3.357-7.5,7.5s3.358,7.5,7.5,7.5   H242c12.958,0,23.5-10.542,23.5-23.5C265.5,473.107,262.142,469.75,258,469.75z"/>
	<path d="M22.5,428.749c-4.136,0-7.5-3.364-7.5-7.5v-55c0-4.143-3.358-7.5-7.5-7.5s-7.5,3.357-7.5,7.5v55   c0,12.406,10.093,22.5,22.5,22.5c4.142,0,7.5-3.357,7.5-7.5S26.642,428.749,22.5,428.749z"/>
	<path d="M504.5,469.75c-4.142,0-7.5,3.357-7.5,7.5c0,4.687-3.813,8.5-8.5,8.5h-69.667c-4.142,0-7.5,3.357-7.5,7.5   s3.358,7.5,7.5,7.5H488.5c12.958,0,23.5-10.542,23.5-23.5C512,473.107,508.642,469.75,504.5,469.75z"/>
	<path d="M269,428.749c-4.136,0-7.5-3.364-7.5-7.5v-55c0-4.143-3.358-7.5-7.5-7.5s-7.5,3.357-7.5,7.5v55   c0,12.406,10.093,22.5,22.5,22.5c4.142,0,7.5-3.357,7.5-7.5S273.142,428.749,269,428.749z"/>
	<path d="M427,306.237V463.25c0,4.143,3.358,7.5,7.5,7.5h45c4.142,0,7.5-3.357,7.5-7.5s-3.358-7.5-7.5-7.5H472v-47.5   c0-4.143-3.358-7.5-7.5-7.5H442V295.637c8.009-8.083,13.369-18.731,14.68-30.568c8.896-3.004,15.32-11.422,15.32-21.318v-85   c0-15.163-12.336-27.5-27.5-27.5h-3.308c9.745-9.537,15.808-22.821,15.808-37.5v-30c0-28.948-23.551-52.5-52.5-52.5   S352,34.802,352,63.75v30c0,14.679,6.063,27.963,15.808,37.5H364.5c-12.465,0-23.013,8.339-26.375,19.729   C295.605,147.711,262,112.093,262,68.75c0-4.143-3.358-7.5-7.5-7.5s-7.5,3.357-7.5,7.5c0,51.238,39.729,93.372,90,97.214v77.786   c0,9.896,6.425,18.314,15.32,21.318c1.31,11.837,6.671,22.485,14.68,30.568v55.612c0,4.136-3.364,7.5-7.5,7.5H284   c-4.142,0-7.5,3.357-7.5,7.5v45c0,4.143,3.358,7.5,7.5,7.5s7.5-3.357,7.5-7.5v-7.5H339c4.142,0,7.5-3.357,7.5-7.5v-22.5h13   c12.407,0,22.5-10.094,22.5-22.5v-45.013c6.824,3.211,14.452,5.013,22.5,5.013S420.176,309.447,427,306.237z M331.5,388.749h-40   v-15h40V388.749z M380.272,287.493c-0.482-0.58-1.051-1.083-1.685-1.496c-5.533-5.208-9.448-12.057-10.926-19.747h73.679   c-1.478,7.69-5.393,14.539-10.926,19.747c-0.634,0.413-1.203,0.916-1.685,1.496c-6.541,5.456-14.997,8.757-24.228,8.757   S386.812,292.949,380.272,287.493z M457,415.75v40h-15v-40H457z M449.5,251.25h-90c-4.136,0-7.5-3.364-7.5-7.5v-47.5h105v47.5   C457,247.886,453.636,251.25,449.5,251.25z M404.5,26.25c20.678,0,37.5,16.822,37.5,37.5v2.5h-15.139   c-5.652-6.325-13.746-10-22.361-10s-16.708,3.675-22.361,10H367v-2.5C367,43.072,383.822,26.25,404.5,26.25z M367,93.75v-12.5   h18.792c2.502,0,4.84-1.248,6.232-3.328c2.797-4.178,7.461-6.672,12.476-6.672s9.679,2.494,12.476,6.672   c1.392,2.08,3.73,3.328,6.232,3.328H442v12.5c0,20.678-16.822,37.5-37.5,37.5S367,114.428,367,93.75z M364.5,146.25h80   c6.893,0,12.5,5.607,12.5,12.5v22.5H352v-22.5C352,151.857,357.607,146.25,364.5,146.25z"/>
</g>















</svg>
