<?xml version="1.0" encoding="iso-8859-1"?>
<!-- Generator: Adobe Illustrator 16.0.0, SVG Export Plug-In . SVG Version: 6.00 Build 0)  -->
<!DOCTYPE svg PUBLIC "-//W3C//DTD SVG 1.1//EN" "http://www.w3.org/Graphics/SVG/1.1/DTD/svg11.dtd">
<svg version="1.1" id="Capa_1" xmlns="http://www.w3.org/2000/svg" xmlns:xlink="http://www.w3.org/1999/xlink" x="0px" y="0px"
	 width="199.056px" height="199.056px" viewBox="0 0 199.056 199.056" style="enable-background:new 0 0 199.056 199.056;"
	 xml:space="preserve">
<g>
	<g>
		<ellipse cx="99.506" cy="24.253" rx="16.16" ry="15.945"/>
		<path d="M168.199,1.693c-2.249-2.249-5.897-2.258-8.147-0.008l-40.854,40.846H79.856L39.001,1.686
			c-2.25-2.249-5.897-2.246-8.147,0.004s-2.25,5.898,0,8.148l49.34,49.442l-0.031,131.134c0,4.771,3.868,8.642,8.642,8.642
			c4.772,0,8.64-3.87,8.64-8.643v-65.271h4.156v65.271c0,4.772,3.875,8.643,8.648,8.643c4.771,0,8.646-3.869,8.646-8.643
			l-0.04-131.133l49.347-49.439C170.452,7.59,170.45,3.943,168.199,1.693z"/>
	</g>
</g>
<g>
</g>
<g>
</g>
<g>
</g>
<g>
</g>
<g>
</g>
<g>
</g>
<g>
</g>
<g>
</g>
<g>
</g>
<g>
</g>
<g>
</g>
<g>
</g>
<g>
</g>
<g>
</g>
<g>
</g>
</svg>
