<svg width="502.439990234375px" height="124.439990234375px" xmlns="http://www.w3.org/2000/svg" viewBox="-1.2199951171874943 12.780004882812499 502.439990234375 124.439990234375" style="background: rgba(0, 0, 0, 0) none repeat scroll 0% 0%;" preserveAspectRatio="xMidYMid"><defs><filter id="editing-extrusion" x="-100%" y="-100%" width="300%" height="300%"><feFlood result="color1" flood-color="#444"></feFlood><feConvolveMatrix order="8,8" divisor="1" kernelMatrix="1 0 0 0 0 0 0 0 0 1 0 0 0 0 0 0 0 0 1 0 0 0 0 0 0 0 0 1 0 0 0 0 0 0 0 0 1 0 0 0 0 0 0 0 0 1 0 0 0 0 0 0 0 0 1 0 0 0 0 0 0 0 0 1" in="SourceAlpha" result="extrude"></feConvolveMatrix><feComposite in="color1" in2="extrude" result="comp-extrude" operator="in"></feComposite><feOffset dx="4" dy="4" in="comp-extrude" result="offset-extrude"></feOffset><feMerge><feMergeNode in="offset-extrude"></feMergeNode><feMergeNode in="SourceGraphic"></feMergeNode></feMerge></filter></defs><g filter="url(#editing-extrusion)"><g transform="translate(73.65000700950623, 102.55500030517578)"><path d="M7.23 0.83L8.64-3.84L8.64-3.84Q10.88-2.62 14.21-2.62L14.21-2.62L14.21-2.62Q17.54-2.62 20.32-4.64L20.32-4.64L20.32-4.64Q23.10-6.66 25.09-10.37L25.09-10.37L25.09-10.37Q29.18-18.24 29.18-30.91L29.18-30.91L29.18-30.91Q29.18-38.98 25.54-38.98L25.54-38.98L25.54-38.98Q23.62-38.98 21.76-36.86L21.76-36.86L21.76-36.86Q19.90-34.75 18.43-31.36L18.43-31.36L18.43-31.36Q15.23-23.62 15.23-14.53L15.23-14.53L15.23-14.53Q15.23-12.67 16.13-11.55L16.13-11.55L16.13-11.55Q17.02-10.43 18.62-10.43L18.62-10.43L18.62-10.43Q18.37-8.45 16.64-7.04L16.64-7.04L16.64-7.04Q14.91-5.63 12.74-5.63L12.74-5.63L12.74-5.63Q7.55-5.63 4.90-8.86L4.90-8.86L4.90-8.86Q2.24-12.10 2.24-17.95L2.24-17.95L2.24-17.95Q2.24-23.81 4.03-28.42L4.03-28.42L4.03-28.42Q5.82-33.02 8.96-36.38L8.96-36.38L8.96-36.38Q12.10-39.74 16.42-41.66L16.42-41.66L16.42-41.66Q20.74-43.58 25.86-43.58L25.86-43.58L25.86-43.58Q43.01-43.58 43.01-26.88L43.01-26.88L43.01-26.88Q43.01-14.85 37.25-7.49L37.25-7.49L37.25-7.49Q31.49-0.06 21.50 0.83L21.50 0.83L21.50 0.83Q27.39 2.11 33.34 2.11L33.34 2.11L33.34 2.11Q38.02 2.11 41.47 0.13L41.47 0.13L41.47 0.13Q42.43-0.45 42.82-1.09L42.82-1.09L42.82-1.09Q44.74 0.64 44.74 4.06L44.74 4.06L44.74 4.06Q44.74 7.49 41.70 9.47L41.70 9.47L41.70 9.47Q38.66 11.46 32.74 11.46L32.74 11.46L32.74 11.46Q26.82 11.46 19.97 8.70L19.97 8.70L19.97 8.70Q13.12 5.95 7.23 0.83L7.23 0.83ZM47.04-15.62L47.04-15.62L47.04-15.62Q47.04-27.71 53.31-35.33L53.31-35.33L53.31-35.33Q59.97-43.58 71.55-43.58L71.55-43.58L71.55-43.58Q79.94-43.58 84.16-39.52L84.16-39.52L84.16-39.52Q88.38-35.46 88.38-26.88L88.38-26.88L88.38-26.88Q88.38-13.82 81.73-6.21L81.73-6.21L81.73-6.21Q75.14 1.28 64.06 1.28L64.06 1.28L64.06 1.28Q55.42 1.28 51.23-3.04L51.23-3.04L51.23-3.04Q47.04-7.36 47.04-15.62ZM63.87-28.86L63.87-28.86L63.87-28.86Q60.99-17.34 60.99-8.26L60.99-8.26L60.99-8.26Q60.99-6.08 61.73-4.67L61.73-4.67L61.73-4.67Q62.46-3.26 64.42-3.26L64.42-3.26L64.42-3.26Q66.37-3.26 67.58-4.19L67.58-4.19L67.58-4.19Q68.80-5.12 69.76-7.23L69.76-7.23L69.76-7.23Q71.30-10.69 72.74-18.02L72.74-18.02L72.74-18.02Q74.18-25.34 74.30-28.38L74.30-28.38L74.30-28.38Q74.43-31.42 74.43-33.73L74.43-33.73L74.43-33.73Q74.43-36.03 73.73-37.50L73.73-37.50L73.73-37.50Q73.02-38.98 71.14-38.98L71.14-38.98L71.14-38.98Q69.25-38.98 67.97-37.82L67.97-37.82L67.97-37.82Q65.60-35.65 63.87-28.86ZM98.11 0L91.07 0L98.75-42.24L112.51-42.24L122.50-13.18L127.81-42.24L134.91-42.18L127.10 0L112.45 0L103.23-27.97L98.11 0ZM141.63-31.17L141.63-31.17L141.63-31.17Q139.46-32.83 139.46-36.38L139.46-36.38L139.46-36.38Q139.46-39.94 141.79-41.79L141.79-41.79L141.79-41.79Q144.13-43.65 148.16-43.65L148.16-43.65L148.16-43.65Q150.72-43.65 156.80-42.75L156.80-42.75L161.15-42.11L161.15-42.11Q163.33-41.86 165.60-41.86L165.60-41.86L165.60-41.86Q167.87-41.86 169.41-42.82L169.41-42.82L169.41-42.82Q171.71-40.77 171.71-37.82L171.71-37.82L171.71-37.82Q171.71-34.88 169.09-32.77L169.09-32.77L169.09-32.77Q166.40-30.53 162.94-30.53L162.94-30.53L162.94-30.53Q161.28-30.53 158.59-30.98L158.59-30.98L158.59-30.98Q155.46-21.12 155.46-14.27L155.46-14.27L155.46-14.27Q155.46-7.42 158.91-3.84L158.91-3.84L158.91-3.84Q157.31-0.96 154.94 0.16L154.94 0.16L154.94 0.16Q152.58 1.28 149.02 1.28L149.02 1.28L149.02 1.28Q145.47 1.28 143.26-0.67L143.26-0.67L143.26-0.67Q141.06-2.62 141.06-6.66L141.06-6.66L141.06-6.66Q141.06-11.33 143.62-19.01L143.62-19.01L143.62-19.01Q146.18-26.62 150.02-32.45L150.02-32.45L150.02-32.45Q148.16-32.64 146.24-32.64L146.24-32.64L146.24-32.64Q142.27-32.64 141.63-31.17ZM196.74 1.28L196.74 1.28L196.74 1.28Q188.54 1.28 187.78-10.37L187.78-10.37L176.77-10.37L176.77-10.37Q175.49-7.42 174.59-4.86L174.59-4.86L172.93 0L163.97 0L184.13-42.24L197.89-42.24L200.58-11.14L200.58-11.14Q201.22-4.42 203.78-2.43L203.78-2.43L203.78-2.43Q201.92 1.28 196.74 1.28ZM182.27-23.17L178.75-15.04L187.58-15.04L186.82-31.49L186.82-33.22L182.27-23.17ZM220.74 0L206.78 0L214.91-42.24L228.99-42.24L220.74 0ZM236.99 0L229.95 0L237.63-42.24L251.39-42.24L261.38-13.18L266.69-42.24L273.79-42.18L265.98 0L251.33 0L242.11-27.97L236.99 0ZM302.72-9.86L302.72-9.86L302.72-9.86Q303.94-8.32 303.94-5.82L303.94-5.82L303.94-5.82Q303.94-2.37 301.38-0.54L301.38-0.54L301.38-0.54Q298.82 1.28 294.78 1.28L294.78 1.28L294.78 1.28Q292.48 1.28 288.96 0.77L288.96 0.77L288.96 0.77Q282.05-0.32 279.94-0.32L279.94-0.32L279.94-0.32Q277.82-0.32 276.99-0.22L276.99-0.22L276.99-0.22Q276.16-0.13 274.82 0L274.82 0L282.69-42.24L310.27-42.24L310.27-42.24Q310.27-38.34 308.38-36.29L308.38-36.29L308.38-36.29Q306.50-34.24 302.78-34.24L302.78-34.24L302.78-34.24Q299.07-34.24 295.30-35.97L295.30-35.97L293.31-24.77L304.70-24.77L304.70-24.77Q304.70-21.38 303.04-19.49L303.04-19.49L303.04-19.49Q301.38-17.60 298.59-17.60L298.59-17.60L298.59-17.60Q295.81-17.60 294.08-18.24L294.08-18.24L294.08-18.24Q292.35-18.88 292.16-19.07L292.16-19.07L289.86-6.98L289.86-6.98Q291.39-6.78 294.27-6.78L294.27-6.78L294.27-6.78Q299.20-6.78 302.72-9.86ZM322.94 0L309.25 0L317.06-42.05L317.06-42.05Q323.39-42.75 332.64-42.75L332.64-42.75L332.64-42.75Q341.89-42.75 346.18-40.06L346.18-40.06L346.18-40.06Q350.46-37.38 350.46-31.97L350.46-31.97L350.46-31.97Q350.46-26.56 347.68-23.17L347.68-23.17L347.68-23.17Q344.90-19.78 340.10-18.69L340.10-18.69L340.10-18.69Q341.18-13.38 343.68-9.09L343.68-9.09L343.68-9.09Q345.98-5.06 348.67-3.78L348.67-3.78L348.67-3.78Q347.71-1.09 345.76 0.10L345.76 0.10L345.76 0.10Q343.81 1.28 341.02 1.28L341.02 1.28L341.02 1.28Q338.24 1.28 336.06-0.35L336.06-0.35L336.06-0.35Q333.89-1.98 332.16-4.99L332.16-4.99L332.16-4.99Q328.51-11.52 328.13-21.82L328.13-21.82L328.58-21.82L328.58-21.82Q333.31-21.95 335.68-24.42L335.68-24.42L335.68-24.42Q338.05-26.88 338.05-32.06L338.05-32.06L338.05-32.06Q338.05-38.53 332.61-38.78L332.61-38.78L331.20-38.78L331.20-38.78Q330.62-38.78 330.30-38.72L330.30-38.72L322.94 0Z" fill="#ccc"></path></g></g><style>text {
  font-size: 64px;
  font-family: Arial Black;
  dominant-baseline: central;
  text-anchor: middle;
}</style></svg>