<?xml version="1.0" encoding="iso-8859-1"?>
<!-- Generator: Adobe Illustrator 16.0.0, SVG Export Plug-In . SVG Version: 6.00 Build 0)  -->
<!DOCTYPE svg PUBLIC "-//W3C//DTD SVG 1.1//EN" "http://www.w3.org/Graphics/SVG/1.1/DTD/svg11.dtd">
<svg version="1.1" id="Capa_1" xmlns="http://www.w3.org/2000/svg" xmlns:xlink="http://www.w3.org/1999/xlink" x="0px" y="0px"
	 width="215.635px" height="215.635px" viewBox="0 0 215.635 215.635" style="enable-background:new 0 0 215.635 215.635;"
	 xml:space="preserve">
<g>
	<path d="M215.635,122.764h-23.857c1.407-0.414,2.606-1.315,3.745-2.235c1.596-1.321,2.85-2.953,4.024-4.677
		c3.361-4.889,5.853-10.156,7.052-16.081c0.322-1.583,0.73-3.154,0.895-4.759c0.128-1.395,0.037-2.286,0.037-3.982
		c0-0.374-0.231-0.928-0.292-1.291c-0.384-3.075-1.194-5.998-2.789-8.686c-1.498-2.527-3.544-4.527-5.87-5.892
		c-1.51-0.874-3.166-1.498-4.993-1.866c-2.886-0.603-5.699-0.399-8.488,0.536c-1.035,0.356-2.058,0.706-3.081,1.029
		c2.917-7.669,9.201-12.583,9.201-12.583l-6.425-4.655c-3.032,3.946-4.871,7.855-5.985,11.366c-0.213-1.745-0.853-4.052-2.503-5.706
		c-2.978-2.98-8.165-2.624-8.165-2.624s-0.354,5.193,2.637,8.168c2.246,2.256,5.797,2.601,7.367,2.631
		c-0.316,1.309-0.523,2.545-0.657,3.672c-1.327-0.399-2.655-0.853-3.97-1.31c-2.802-0.935-5.627-1.139-8.513-0.536
		c-1.827,0.375-3.472,0.993-4.981,1.863c-2.326,1.373-4.372,3.368-5.87,5.894c-1.607,2.686-2.423,5.611-2.801,8.687
		c-0.049,0.356-0.231,0.691-0.243,1.065c-0.073,1.921-0.122,2.811,0,4.208c0.134,1.604,0.548,3.175,0.883,4.758
		c1.199,5.925,3.708,11.186,7.051,16.082c1.188,1.723,2.467,3.355,4.037,4.677c1.127,0.919,2.326,1.82,3.745,2.234H70.558V95.618
		c0-16.754-12.857-27.578-32.76-27.578S5.039,78.863,5.039,95.618v27.133H0v7.052h104.691l-17.314,28.211h40.886l-17.312-28.211
		h104.685V122.764z M12.09,105.756h51.417v11.345H12.09V105.756z M37.798,75.109c12.434,0,25.708,5.395,25.708,20.526v3.069H12.09
		v-3.069C12.09,80.504,25.364,75.109,37.798,75.109z M175.794,120.852c0.322-0.073,0.614-0.146,0.913-0.207
		c0.804-0.152,1.632-0.256,2.472-0.269c0.024,0,0.062,0,0.086,0c0.036,0,0.061,0,0.085,0c0.84,0.013,1.692,0.116,2.472,0.269
		c0.305,0.061,0.609,0.134,0.914,0.207c1.991,0.486,3.885,1.449,5.888,1.912h-18.742
		C171.897,122.301,173.803,121.345,175.794,120.852z M24.101,85.062c0-0.975,0.792-1.766,1.75-1.766
		c0.965,0,1.766,0.792,1.766,1.766c0,0.977-0.801,1.763-1.766,1.763C24.893,86.825,24.101,86.04,24.101,85.062z M31.438,84.332
		c0-2.35,1.915-4.265,4.265-4.265c2.351,0,4.266,1.909,4.266,4.265c0,2.344-1.915,4.259-4.266,4.259
		C33.354,88.591,31.438,86.676,31.438,84.332z M46.716,89.906c0-1.702,1.388-3.087,3.078-3.087c1.696,0,3.082,1.385,3.082,3.087
		c0,1.708-1.386,3.087-3.082,3.087S46.716,91.614,46.716,89.906z M21.735,93.73c0-2.028,1.653-3.669,3.687-3.669
		c2.012,0,3.666,1.647,3.666,3.669c0,2.03-1.653,3.678-3.666,3.678C23.382,97.408,21.735,95.761,21.735,93.73z"/>
</g>
<g>
</g>
<g>
</g>
<g>
</g>
<g>
</g>
<g>
</g>
<g>
</g>
<g>
</g>
<g>
</g>
<g>
</g>
<g>
</g>
<g>
</g>
<g>
</g>
<g>
</g>
<g>
</g>
<g>
</g>
</svg>
