<?xml version="1.0" encoding="iso-8859-1"?>
<!-- Generator: Adobe Illustrator 16.0.0, SVG Export Plug-In . SVG Version: 6.00 Build 0)  -->
<!DOCTYPE svg PUBLIC "-//W3C//DTD SVG 1.1//EN" "http://www.w3.org/Graphics/SVG/1.1/DTD/svg11.dtd">
<svg version="1.1" id="Capa_1" xmlns="http://www.w3.org/2000/svg" xmlns:xlink="http://www.w3.org/1999/xlink" x="0px" y="0px"
	 width="477.17px" height="477.171px" viewBox="0 0 477.17 477.171" style="enable-background:new 0 0 477.17 477.171;"
	 xml:space="preserve">
<g>
	<g>
		<circle cx="272.589" cy="34.907" r="33.899"/>
		<path d="M409.972,368.922c18.723,0,33.891,15.173,33.891,33.892c0,18.723-15.168,33.902-33.891,33.902
			s-33.902-15.18-33.902-33.902C376.07,384.095,391.25,368.922,409.972,368.922z"/>
		<path d="M170.581,259.969L75.657,207.64c-12.704-6.995-28.685-2.38-35.694,10.331c-7.005,12.704-2.38,28.689,10.329,35.694
			l116.051,63.975c11.94,6.572,26.942,2.929,34.536-8.416l20.301-30.396l35.557,47.24l55.65,134.842
			c4.184,10.135,13.975,16.262,24.31,16.262c3.334,0,6.732-0.637,10.011-1.991c13.408-5.539,19.805-20.899,14.27-34.316
			l-56.934-137.955c-0.85-2.056-1.959-3.995-3.302-5.783l-33.938-45.079l20.117-118.57l87.763,40.681
			c2.769,1.281,5.683,1.886,8.556,1.886c7.727,0,15.12-4.404,18.57-11.878c4.729-10.247,0.261-22.39-9.998-27.125l-78.137-36.062
			L291.95,90.755c-1.996-0.936-4.063-1.431-6.144-1.687l-87.929-28.607c-1.701-0.896-3.499-1.641-5.477-2.042l-2.021-0.393
			l-1.591-0.517l-0.006,0.196L114.789,42.97L66.488,4.463c-8.816-7.039-21.684-5.598-28.719,3.242
			c-7.041,8.824-5.588,21.684,3.236,28.717l52.189,41.607c2.553,2.034,5.55,3.431,8.748,4.065l82.475,16.427
			c1.108,0.218,2.204,0.286,3.296,0.328l-3.657,140.953L170.581,259.969z"/>
	</g>
</g>
<g>
</g>
<g>
</g>
<g>
</g>
<g>
</g>
<g>
</g>
<g>
</g>
<g>
</g>
<g>
</g>
<g>
</g>
<g>
</g>
<g>
</g>
<g>
</g>
<g>
</g>
<g>
</g>
<g>
</g>
</svg>
