<svg height="512pt" viewBox="0 -3 512.00121 512" width="512pt" xmlns="http://www.w3.org/2000/svg"><path d="m501.082031 231.65625c17.648438-22.617188 10.003907-43.820312 3.976563-51.222656-13.1875-19.832032-31.390625-32.054688-54.105469-36.332032-1.792969-.339843-3.625-.453124-5.4375-.679687 2.339844-1.96875 4.589844-3.945313 6.707031-5.941406 15.242188-14.425781 22.554688-29.84375 21.730469-45.824219-1.265625-24.457031-21.550781-40.308594-22.417969-40.976562l-.40625-.292969c-35.738281-24.269531-75.855468 5.101562-77.546875 6.367187l-1.527343 1.457032c-.625.761718-1.222657 1.65625-1.839844 2.445312-3.917969-20.117188-14.789063-36.117188-32.359375-47.535156-4.121094-3.296875-30.417969-22.730469-61.105469-7.140625-3.796875 1.9375-7.234375 4.4375-10.480469 7.175781-8.984375-2.539062-18.980469-3.304688-28.890625.199219-13.464844 4.773437-22.277344 16.234375-23.582031 30.671875-1.386719 15.347656 6.351563 30.207031 19.707031 37.871094 12.222656 7.007812 26.867188 19.988281 40.472656 43.785156-8.09375-.554688-15.921874.304687-23.3125 2.96875-44.082031 15.828125-218.429687 271.265625-249.359374 354.210937-2.605469 6.996094-1.2500005 14.308594 3.546874 19.113281 3.183594 3.183594 7.476563 4.859376 12.058594 4.859376 2.316406 0 4.703125-.425782 7.054688-1.300782 83.539062-31.148437 340.015625-204.628906 355.585937-248 2.125-5.925781 3.132813-12.136718 3.210938-18.53125 23.789062 11.652344 36.367187 22.992188 42.929687 31.996094 9.558594 13.117188 24.976563 21.222656 40.351563 21.222656h.492187c12.816406-.148437 24.1875-6.03125 31.21875-16.136718 10.445313-15.046876 6.738282-31.285157 1.171875-41.90625.734375-.847657 1.496094-1.671876 2.15625-2.523438zm-10.0625-41.054688c.988281 1.292969 9.101563 12.867188-2.601562 29.039063-.367188-.433594-.75-.824219-1.121094-1.246094-.632813-.730469-1.265625-1.433593-1.910156-2.144531-1.640625-1.832031-3.289063-3.59375-4.960938-5.28125-.511719-.523438-1.023437-1.042969-1.535156-1.546875-27.15625-26.597656-58.113281-34.96875-86.203125-34.96875-9.960938 0-19.566406 1.050781-28.511719 2.6875.964844-.433594 1.964844-.867187 2.941407-1.292969 1.363281-.597656 2.726562-1.199218 4.121093-1.789062 1.5-.632813 3.019531-1.246094 4.5625-1.855469 1.285157-.511719 2.605469-1.003906 3.914063-1.5 2.414062-.902344 4.859375-1.777344 7.351562-2.609375 1.550782-.523438 3.105469-1.042969 4.675782-1.519531 1.519531-.46875 3.0625-.910157 4.597656-1.347657 1.710937-.476562 3.425781-.917968 5.152344-1.34375 1.691406-.417968 3.394531-.824218 5.101562-1.1875 2.394531-.511718 4.800781-.964843 7.210938-1.347656 1.300781-.207031 2.601562-.382812 3.902343-.546875 10.1875-1.320312 20.378907-1.449219 30.070313.363281 18.1875 3.425782 32.199218 12.875 43.242187 29.4375zm-106.253906-120.507812c5.050781-3.445312 33.046875-21.089844 56.359375-5.523438 1.554688 1.273438 14.714844 12.578126 15.503906 27.988282.546875 10.667968-4.945312 21.550781-16.335937 32.332031-6.671875 6.316406-14.792969 12.5625-24.148438 18.574219-1.152343.148437-2.296875.382812-3.449219.558594-2.429687.363281-4.851562.726562-7.253906 1.195312-1.667968.332031-3.296875.722656-4.945312 1.09375-1.898438.433594-3.792969.859375-5.664063 1.355469-1.746093.449219-3.464843.933593-5.179687 1.4375-1.726563.503906-3.4375 1.015625-5.136719 1.554687-1.761719.5625-3.503906 1.128906-5.230469 1.726563-1.554687.539062-3.074218 1.09375-4.589844 1.65625-1.789062.660156-3.574218 1.3125-5.320312 2.003906-1.179688.46875-2.316406.953125-3.476562 1.433594-7.539063 3.113281-14.558594 6.386719-20.847657 9.59375-.085937.042969-.191406.097656-.277343.140625 5.316406-9.855469 10.90625-21.542969 15.65625-34.148438.296874-.789062.617187-1.554687.902343-2.351562.816407-2.246094 1.5625-4.539063 2.316407-6.835938.410156-1.25.84375-2.492187 1.222656-3.757812.667968-2.179688 1.25-4.371094 1.839844-6.585938.375-1.402344.753906-2.800781 1.09375-4.214844.519531-2.175781.972656-4.363281 1.40625-6.558593.285156-1.457031.5625-2.90625.804687-4.375.363281-2.175781.660156-4.355469.910156-6.53125.085938-.765625.246094-1.519531.324219-2.28125 4.46875-7.351563 8.910156-13.753907 13.515625-19.480469zm-99.824219-48.800781c22.117188-11.007813 41.386719 4.789062 42.164063 5.441406.304687.261719.617187.496094.945312.710937 13.960938 8.960938 22.210938 21.011719 25.214844 36.828126 1.285156 6.75 1.472656 13.828124.945313 21.03125l-.0625.78125c-1.125 13.664062-5.023438 27.746093-9.96875 40.835937.355468-8.320313-.042969-16.890625-1.449219-25.515625-.042969-.269531-.101563-.53125-.144531-.789062-.320313-1.867188-.679688-3.730469-1.09375-5.605469-.253907-1.144531-.546876-2.289063-.84375-3.425781-.242188-.9375-.484376-1.882813-.761719-2.820313-.441407-1.550781-.921875-3.097656-1.441407-4.640625-.136718-.417969-.292968-.839844-.441406-1.257812-4.25-12.136719-10.984375-24.023438-20.988281-35.128907-.277344-.304687-.554687-.613281-.832031-.917969-1.429688-1.554687-2.898438-3.089843-4.460938-4.601562-.753906-.734375-1.5625-1.464844-2.351562-2.191406-1.203125-1.113282-2.382813-2.230469-3.667969-3.316406-2.335937-2.003907-4.773437-3.980469-7.367187-5.917969-.015626-.015625-.078126-.066407-.105469-.085938-.691407-.605469-2.21875-1.863281-4.398438-3.496093-.015625-.007813-.023437-.023438-.042969-.035157-2.21875-1.65625-5.109374-3.644531-8.542968-5.679687-.113282-.082032-.199219-.140625-.304688-.203125zm-42.796875 45.550781c-7.496093-4.296875-11.835937-12.640625-11.0625-21.257812.332031-3.601563 2.160157-12.355469 12.09375-15.867188 2.804688-1 5.691407-1.421875 8.582031-1.421875 4.597657 0 9.195313 1.109375 13.527344 2.714844 0 0 .015625.007812.023438.007812.113281.042969.21875.09375.332031.136719 1.492187.566406 2.957031 1.171875 4.363281 1.839844.695313.332031 1.34375.679687 2.019532 1.015625 1.128906.582031 2.246093 1.171875 3.289062 1.769531.410156.234375.816406.46875 1.207031.703125 4.648438 2.804687 8.234375 5.578125 9.992188 7.011719.339843.285156.546875.46875.589843.492187.199219.183594.410157.347657.625.511719 3.785157 2.804688 7.261719 5.761719 10.496094 8.835938.921875.875 1.675782 1.785156 2.542969 2.671874 2.210937 2.253907 4.363281 4.542969 6.300781 6.929688.847656 1.050781 1.578125 2.117188 2.359375 3.175781 1.769531 2.394531 3.449219 4.839844 4.953125 7.363281.589844.992188 1.152344 1.988282 1.691406 2.984376 1.628907 3.011718 3.113282 6.101562 4.371094 9.285156.199219.492187.425782.988281.617188 1.484375 6.097656 16.273437 7.488281 34.746093 4.050781 55.332031-2.382813 14.265625-6.757813 27.214844-10.90625 37.226562-1.464844-5.273437-3.019531-10.253906-4.597656-15.085937-.257813-.804687-.539063-1.578125-.804688-2.375-1.476562-4.402344-3.003906-8.625-4.558593-12.667969-.265626-.683594-.519532-1.378906-.789063-2.0625-18.667969-47.242187-42.445313-69.945312-61.308594-80.753906zm121.082031 184.820312c-4.679687 13.003907-37.28125 41.355469-81.25 74.21875-.738281-.300781-1.464843-.640624-2.308593-.734374-14.167969-1.554688-32.515625-8.875-41.574219-21.734376-2.757812-3.921874-8.191406-4.847656-12.09375-2.089843-3.921875 2.757812-4.855469 8.171875-2.089844 12.09375 9.621094 13.636719 25.300782 21.914062 39.578125 26.0625-27.585937 19.996093-58.316406 41.027343-88.898437 60.9375-1.296875-1.136719-2.832032-2.011719-4.667969-2.21875-8.894531-.972657-20.378906-5.511719-25.976563-13.441407-2.757812-3.914062-8.164062-4.855468-12.09375-2.082031-3.914062 2.757813-4.851562 8.171875-2.082031 12.09375 6.367188 9.03125 16.378907 14.714844 25.871094 17.863281-56.167969 35.78125-109.246094 66.023438-137.730469 76.640626-.1875.070312-.363281.125-.492187.175781.035156-.148438.085937-.320313.15625-.511719 7-18.773438 20.007812-44.074219 36.429687-72.40625.3125.308594.511719.691406.875.960938 6.230469 4.574218 12.851563 8.546874 19.667969 11.796874 1.207031.574219 2.484375.851563 3.742187.851563 3.234376 0 6.339844-1.820313 7.832032-4.933594 2.066406-4.332031.238281-9.511719-4.085938-11.566406-5.847656-2.792969-11.527344-6.203125-16.890625-10.132813-.84375-.617187-1.777343-.988281-2.726562-1.257812 20.3125-33.949219 44.699219-71.246094 69.390625-106.730469 3.304687 8.597657 8.761718 17.289063 16.882812 23.023438 1.519532 1.078125 3.261719 1.589843 5 1.589843 2.722656 0 5.402344-1.273437 7.09375-3.667968 2.761719-3.914063 1.832032-9.328125-2.082031-12.09375-7.9375-5.605469-12.464844-17.085938-13.4375-25.984375-.050781-.496094-.304687-.902344-.433594-1.371094 19.210938-26.992187 38.132813-52.238281 55.011719-73.335937 4.140625 14.296874 12.425781 30.027343 26.089844 39.664062 1.519531 1.074219 3.261718 1.589844 4.996094 1.589844 2.726562 0 5.414062-1.277344 7.097656-3.671875 2.757812-3.917969 1.832031-9.324219-2.082032-12.089844-12.859374-9.078125-20.179687-27.425781-21.730468-41.574219-.042969-.375-.246094-.679687-.332032-1.035156 19.53125-23.234375 35.007813-38.804688 42.683594-41.566406 4.253906-1.527344 8.660156-2.289063 13.265625-2.289063 4.355469 0 8.902344.683594 13.675781 2.058594 3.816407 8.621094 7.304688 17.992187 10.480469 27.96875.207031.652344.414063 1.292969.613281 1.953125 1.3125 4.214844 2.550782 8.570312 3.75 13.003906.269532 1 .546876 1.945313.816407 2.960938 1.371093 5.265625 2.679687 10.652344 3.886719 16.203125.078124.367187.257812.6875.382812 1.042969.121094.335937.207031.695312.371094 1.015624.042968.09375.078125.191407.132812.285157.144532.269531.355469.476562.527344.71875.042969.0625.085938.121093.140625.183593.199219.269532.363281.5625.589844.808594.050781.050782.085937.109375.136719.164063h.007812c.027344.023437.054688.042969.078125.058593.242187.246094.539063.425782.816406.644532.0625.050781.121094.09375.183594.148437.226563.171875.425781.378907.667969.527344.09375.0625.199218.097656.304687.148437.199219.113282.414063.191407.625.285157.199219.085937.390625.136719.589844.214843.269531.097657.503906.253907.78125.324219 4.988281 1.265625 9.835937 2.574219 14.574219 3.917969 1.074218.304688 2.074218.617188 3.125.921875 3.710937 1.074219 7.375 2.167969 10.921875 3.289063.910156.285156 1.769531.570312 2.664062.867187 3.695313 1.199219 7.320313 2.410156 10.816407 3.652344.605468.214843 1.207031.425781 1.804687.640625 4.015625 1.449218 7.921875 2.914062 11.660156 4.417968.011719 0 .015625.007813.027344.007813 1.128906 7.324219.558594 14.074219-1.757813 20.523437zm120.269532 14.503907c-4.910156 7.070312-12.042969 8.632812-17.160156 8.683593-.105469 0-.207032 0-.3125 0-9.914063 0-19.972657-5.378906-26.320313-14.089843-12.007813-16.464844-33.4375-31.101563-63.683594-43.804688-.050781-.023437-.085937-.078125-.148437-.101562-.335938-.140625-.703125-.269531-1.039063-.410157-2.628906-1.09375-5.378906-2.160156-8.148437-3.21875-2.390625-.921874-4.820313-1.832031-7.3125-2.734374-2.53125-.910157-5.082032-1.820313-7.730469-2.714844-3.625-1.230469-7.382813-2.417969-11.191406-3.597656-1.429688-.445313-2.730469-.910157-4.1875-1.347657.703125-.277343 1.5-.546875 2.226562-.824219.261719-.070312.53125-.007812.78125-.09375 27.070313-9.875 73.382813-19.425781 113.539063 8.441407 2.074218 1.445312 4.113281 3.113281 6.152344 4.769531.980468.789062 1.980468 1.46875 2.949218 2.308594 6.160156 5.351562 12.140625 11.714844 17.839844 19.199218l1.101562 1.46875c.035157.042969.085938.0625.109376.105469 2.953124 4.035157 10.519531 16.476563 2.535156 27.960938zm0 0"/><path d="m350.316406 248.503906c-17.753906-6.765625-34.226562-18.929687-48.949218-36.152344-3.117188-3.644531-8.589844-4.066406-12.234376-.953124-3.644531 3.113281-4.070312 8.589843-.953124 12.234374 16.628906 19.449219 35.457031 33.28125 55.957031 41.097657 1.015625.382812 2.058593.570312 3.089843.570312 3.496094 0 6.785157-2.132812 8.113282-5.59375 1.699218-4.476562-.546875-9.492187-5.023438-11.203125zm0 0"/></svg>