<?xml version="1.0" encoding="iso-8859-1"?>
<!-- Generator: Adobe Illustrator 16.0.0, SVG Export Plug-In . SVG Version: 6.00 Build 0)  -->
<!DOCTYPE svg PUBLIC "-//W3C//DTD SVG 1.1//EN" "http://www.w3.org/Graphics/SVG/1.1/DTD/svg11.dtd">
<svg version="1.1" id="Capa_1" xmlns="http://www.w3.org/2000/svg" xmlns:xlink="http://www.w3.org/1999/xlink" x="0px" y="0px"
	 width="554.625px" height="554.625px" viewBox="0 0 554.625 554.625" style="enable-background:new 0 0 554.625 554.625;"
	 xml:space="preserve">
<g>
	<g>
		<path d="M439.875,185.513l22.95-22.95l13.388,13.388l13.387-13.388L449.438,122.4l-13.388,13.388l13.388,13.387l-22.95,22.95
			c-28.688-26.775-65.024-45.9-107.1-53.55c15.3-11.475,24.862-30.6,24.862-51.638C344.25,30.6,313.65,0,277.312,0
			c-36.337,0-66.938,30.6-66.938,66.938c0,21.038,9.562,40.163,24.862,51.638c-40.162,7.65-76.5,26.775-107.1,53.55l-22.95-22.95
			l13.388-13.387L105.188,122.4l-40.163,40.163l13.388,13.388L91.8,162.562l22.95,22.95c-36.337,38.25-57.375,91.8-57.375,149.175
			c0,122.4,97.538,219.938,219.938,219.938c122.4,0,219.938-97.537,219.938-219.938C497.25,277.312,476.213,225.675,439.875,185.513
			z M229.5,66.938c0-26.775,21.038-47.812,47.812-47.812c26.775,0,47.812,21.038,47.812,47.812c0,22.95-17.213,42.075-38.25,47.812
			V76.5H306V57.375h-57.375V76.5h19.125v38.25C246.712,109.013,229.5,89.888,229.5,66.938z M277.312,535.5
			C166.388,535.5,76.5,445.612,76.5,334.688s89.888-200.812,200.812-200.812s200.812,89.888,200.812,200.812
			S388.237,535.5,277.312,535.5z"/>
		<path d="M277.312,172.125c-89.888,0-162.562,72.675-162.562,162.562S187.425,497.25,277.312,497.25
			s162.562-72.675,162.562-162.562S367.2,172.125,277.312,172.125z M286.875,478.125v-47.812c0-5.737-3.825-9.562-9.562-9.562
			s-9.562,3.825-9.562,9.562v47.812c-70.763-3.825-128.138-61.2-133.875-133.875h47.812c5.737,0,9.562-3.825,9.562-9.562
			s-3.825-9.562-9.562-9.562h-47.812c3.825-70.763,61.2-128.138,133.875-133.875v47.812c0,5.737,3.825,9.562,9.562,9.562
			s9.562-3.825,9.562-9.562V191.25c70.763,3.825,128.138,61.2,133.875,133.875h-47.812c-5.737,0-9.562,3.825-9.562,9.562
			s3.825,9.562,9.562,9.562h47.812C415.013,415.013,357.638,472.388,286.875,478.125z"/>
		<path d="M363.375,248.625c-3.825-3.825-9.562-3.825-13.388,0L290.7,307.912c-3.825,0-9.562-1.912-13.388-1.912
			c-15.3,0-28.688,13.388-28.688,28.688c0,3.825,1.913,9.562,1.913,11.475l-21.038,22.95c-3.825,3.825-3.825,9.562,0,13.388
			s9.562,3.825,13.388,0l21.037-21.037c3.825,1.912,7.65,1.912,11.476,1.912c15.3,0,28.688-13.388,28.688-28.688
			c0-3.825-1.913-9.562-1.913-11.475l59.288-59.288C367.2,258.188,367.2,252.45,363.375,248.625z M277.312,344.25
			c-5.737,0-9.562-3.825-9.562-9.562s3.825-9.562,9.562-9.562s9.562,3.825,9.562,9.562S283.05,344.25,277.312,344.25z"/>
	</g>
</g>
<g>
</g>
<g>
</g>
<g>
</g>
<g>
</g>
<g>
</g>
<g>
</g>
<g>
</g>
<g>
</g>
<g>
</g>
<g>
</g>
<g>
</g>
<g>
</g>
<g>
</g>
<g>
</g>
<g>
</g>
</svg>
