<?xml version="1.0" encoding="iso-8859-1"?>
<!-- Generator: Adobe Illustrator 19.0.0, SVG Export Plug-In . SVG Version: 6.00 Build 0)  -->
<svg version="1.1" id="Layer_1" xmlns="http://www.w3.org/2000/svg" xmlns:xlink="http://www.w3.org/1999/xlink" x="0px" y="0px"
	 viewBox="0 0 512.002 512.002" style="enable-background:new 0 0 512.002 512.002;" xml:space="preserve">
<path style="fill:#97C2F7;" d="M388.887,171.384c66.462,23.18,112.315,68.277,112.315,96.091c0,28.084-46.706,73.753-114.162,96.728
	c-26.248-20.879-45.885-58.156-45.885-94.309C341.154,231.97,360.392,192.102,388.887,171.384z"/>
<path style="fill:#E6F6FF;" d="M231.551,171.374c22.111-8.976,46.134-14.798,71.236-14.798c13.124,0,25.956,1.037,38.367,2.927
	c16.764,2.549,32.772,6.665,47.732,11.882c-28.495,20.717-47.732,60.586-47.732,98.51c0,36.153,19.637,73.429,45.885,94.309
	c-25.578,8.717-54.127,14.172-84.252,14.172c-10.002,0-19.832-0.929-29.445-2.603c-28.581-5.001-55.174-16.688-78.409-30.612
	c-54.516-32.675-90.571-77.685-90.571-77.685S157.16,201.575,231.551,171.374z"/>
<g>
	<path style="fill:#D2E3F7;" d="M253.781,105.268c58.48,13.588,87.374,54.235,87.374,54.235c-12.411-1.89-25.243-2.927-38.367-2.927
		c-25.103,0-49.126,5.822-71.236,14.798v-48.337C231.551,111.36,242.406,102.622,253.781,105.268z"/>
	<path style="fill:#D2E3F7;" d="M273.342,375.772c-10.758,9.635-30.59,23.375-54.937,30.644c-11.698,3.5-23.472-5.239-23.472-17.455
		v-43.8C218.168,359.083,244.761,370.771,273.342,375.772z"/>
	<path style="fill:#D2E3F7;" d="M79.962,199.252c25.827,25.827,24.401,68.223,24.401,68.223s-0.119,0.011-0.356,0.022
		c-0.022-0.011-0.043-0.011-0.065,0c-0.54-0.022-1.588-0.022-3.057,0.022c-0.054,0-0.097,0-0.14,0
		c-10.931-0.086-44.189-2.193-65.522-23.526c-25.827-25.827-24.401-69.13-24.401-69.13S54.135,173.426,79.962,199.252z"/>
	<path style="fill:#D2E3F7;" d="M104.352,267.497c0,0,1.437,43.303-24.39,69.13c-25.827,25.837-69.141,24.401-69.141,24.401
		s-1.426-43.303,24.401-69.141c21.344-21.344,54.602-24.066,65.522-24.368c0.043,0,0.086,0,0.14,0
		c1.469,0.022,2.517-0.011,3.057-0.022c0.022-0.011,0.043-0.011,0.065,0C104.233,267.497,104.352,267.497,104.352,267.497z"/>
</g>
<path d="M429.155,280.696c5.965,0,10.802-4.837,10.802-10.802v-4.839c0-5.965-4.837-10.802-10.802-10.802
	s-10.802,4.837-10.802,10.802v4.839C418.353,275.859,423.189,280.696,429.155,280.696z"/>
<path d="M300.291,213.88c2.026,1.708,4.496,2.542,6.954,2.542c3.075,0,6.13-1.307,8.265-3.843c0.707-0.839,1.442-1.661,2.183-2.442
	c4.109-4.326,3.932-11.162-0.394-15.27c-4.326-4.109-11.162-3.931-15.27,0.394c-1.036,1.091-2.058,2.234-3.04,3.399
	C295.145,203.222,295.727,210.036,300.291,213.88z"/>
<path d="M307.901,344.901c2.511,0,5.034-0.871,7.079-2.646c4.503-3.912,4.984-10.735,1.072-15.238
	c-12.006-13.825-18.892-34.794-18.892-57.532c0-12.73,2.228-25.254,6.446-36.22c2.141-5.568-0.637-11.817-6.204-13.959
	c-5.569-2.142-11.818,0.636-13.96,6.204c-5.158,13.414-7.885,28.62-7.885,43.973c0,27.868,8.815,54.001,24.186,71.698
	C301.878,343.641,304.881,344.901,307.901,344.901z"/>
<path d="M0.026,361.383c0.187,5.686,4.752,10.252,10.438,10.441c0.185,0.007,0.768,0.023,1.697,0.023
	c8.884,0,49.358-1.49,75.439-27.581c15.257-15.257,22.098-35.435,25.148-51.334c15.226,15.715,40.028,38.66,71.384,58.28v37.75
	c0,9.261,4.259,17.745,11.685,23.275c5.108,3.803,11.122,5.772,17.265,5.772c2.802,0,5.631-0.409,8.412-1.241
	c26.134-7.803,45.906-22.044,55.071-29.547c8.83,1.294,17.628,1.958,26.221,1.958c29.499,0,59.015-4.962,87.729-14.746
	c0.019-0.007,0.038-0.013,0.057-0.019c66.961-22.822,121.429-70.785,121.429-106.936c0-17.243-12.374-37.784-34.843-57.841
	c-22.373-19.971-52.396-37.151-84.553-48.389c-0.021-0.008-0.041-0.015-0.062-0.023c-0.035-0.012-0.069-0.025-0.104-0.038
	c-14.841-5.176-30.09-9.081-45.385-11.658c-9.029-10.947-38.976-42.731-90.832-54.779c-8.616-2.004-17.536,0.011-24.482,5.525
	c-6.989,5.55-10.997,13.847-10.997,22.765v41.181c-48.704,21.435-87.315,56.393-108.074,77.857
	c-3.091-15.604-9.946-35.331-25.076-50.461c-28.811-28.81-75.188-27.613-77.136-27.547c-5.686,0.189-10.251,4.754-10.438,10.44
	c-0.066,1.959-1.25,48.315,27.558,77.123c7.147,7.147,15.338,12.389,23.679,16.243c-8.341,3.935-16.534,9.23-23.68,16.376
	C-1.225,313.069-0.04,359.424,0.026,361.383z M215.309,396.067c-2.28,0.682-4.684,0.26-6.589-1.159
	c-1.115-0.83-2.986-2.706-2.986-5.947v-25.423c14.267,7.367,28.51,13.167,42.625,17.376
	C239.694,386.346,228.441,392.146,215.309,396.067z M490.4,267.475c0,20.315-38.313,61.46-101.117,84.475
	c-22.513-20.292-37.328-52.514-37.328-82.054c0-32.312,15.771-66.911,38.876-86.318C452.669,206.704,490.4,247.498,490.4,267.475z
	 M245.18,117.19c1.03-0.819,3.202-2.088,6.155-1.401c27.276,6.338,47.721,19.118,61.262,30.172c-3.279-0.124-6.551-0.187-9.81-0.187
	c-19.714,0-39.981,3.408-60.435,10.135v-32.872C242.351,120.748,243.382,118.617,245.18,117.19z M235.599,181.388
	c0.069-0.028,0.139-0.053,0.207-0.082c22.825-9.241,45.359-13.929,66.979-13.929c12.163,0,24.524,0.943,36.744,2.805
	c9.328,1.418,18.652,3.392,27.879,5.878c-22.668,24.062-37.057,59.506-37.057,93.834c0,31.343,13.892,65.168,35.752,89.347
	c-20.897,5.525-42.121,8.331-63.318,8.331c-9,0-18.284-0.822-27.583-2.441c-24.301-4.253-49.44-14.088-74.718-29.237
	c-39.823-23.869-69.808-54.927-81.877-68.423C133.979,250.278,178.421,204.606,235.599,181.388z M22.195,186.204
	c13.164,1.337,35.267,5.824,50.128,20.685c14.767,14.766,19.287,36.531,20.66,49.454c-12.976-1.084-35.304-5.169-50.124-19.989
	C28.079,221.575,23.562,199.393,22.195,186.204z M93.01,278.857c-1.335,13.16-5.822,35.267-20.687,50.133
	c-14.767,14.772-36.927,19.292-50.123,20.661c1.373-13.201,5.896-35.357,20.66-50.128C57.687,284.696,79.968,280.204,93.01,278.857z
	"/>
<g>
</g>
<g>
</g>
<g>
</g>
<g>
</g>
<g>
</g>
<g>
</g>
<g>
</g>
<g>
</g>
<g>
</g>
<g>
</g>
<g>
</g>
<g>
</g>
<g>
</g>
<g>
</g>
<g>
</g>
</svg>
