<?xml version="1.0" encoding="iso-8859-1"?>
<!-- Generator: Adobe Illustrator 16.0.0, SVG Export Plug-In . SVG Version: 6.00 Build 0)  -->
<!DOCTYPE svg PUBLIC "-//W3C//DTD SVG 1.1//EN" "http://www.w3.org/Graphics/SVG/1.1/DTD/svg11.dtd">
<svg version="1.1" id="Capa_1" xmlns="http://www.w3.org/2000/svg" xmlns:xlink="http://www.w3.org/1999/xlink" x="0px" y="0px"
	 width="536.93px" height="536.931px" viewBox="0 0 536.93 536.931" style="enable-background:new 0 0 536.93 536.931;"
	 xml:space="preserve">
<g>
	<g>
		<path d="M361.93,38.86c2.998-6.943,5.994-13.883,8.992-20.826c3.621-8.385,18.531-4.734,14.859,3.764
			c-3.684,8.528-7.365,17.057-11.049,25.584c-0.117,0.267-0.27,0.484-0.408,0.726c-0.816,2.684-3.166,4.914-7.104,4.914H113.987
			c21.714,45.909,37.975,116.494-9.905,190.105C22.294,368.869,145.04,454.054,145.04,454.054h164.037l12.822-34.453
			c-14.617-16.202-23.531-37.644-23.531-61.133c0-50.376,40.984-91.363,91.361-91.363c10.344,0,20.275,1.754,29.555,4.933
			c4.65-14.758,8.807-23.85,8.807-23.85c43.061-105.185,26.432-183.64,12.166-221.887c-5.518-14.798-25.965-25.985-42.986-25.985
			H86.358c-3.18-0.627-6.157-0.291-8.789,0.737c-5.465,9.648-10.93,19.293-16.396,28.941c0.098,3.14,1.157,6.297,3.192,8.868H361.93
			V38.86z"/>
		<path d="M434.243,438.209c-8.365,4.688-17.539,8.097-27.258,9.963c-2.83,0.545-5.707,0.961-8.623,1.236
			c-2.738,0.257-5.512,0.401-8.314,0.41c-0.107,0-0.211,0.009-0.318,0.009s-0.211-0.009-0.318-0.009
			c-20.822-0.07-40.018-7.154-55.367-18.996l-8.645,23.225l-21.361,57.412c-0.682,1.542-0.307,2.476,0.816,2.476
			c0.359,0,0.793-0.095,1.291-0.297l31.92-12.837c0.49-0.195,0.988-0.287,1.48-0.287c1.586,0,3.066,0.97,3.656,2.564l11.959,32.261
			c0.393,1.06,0.938,1.592,1.494,1.592c0.537,0,1.092-0.499,1.535-1.5l30.281-81.38l1.258-3.382l1.258,3.382l2.822,7.585
			l4.082,10.971l23.375,62.824c0.9,2.035,2.258,1.992,3.029-0.095l11.959-32.262c0.771-2.087,3.072-3.103,5.137-2.273l31.92,12.837
			c2.062,0.829,3.004-0.146,2.105-2.179l-30.008-80.637C441.883,433.549,438.155,436.018,434.243,438.209z"/>
		<path d="M415.069,286.742c-7.928-2.8-16.449-4.34-25.34-4.34c-42.01,0-76.062,34.055-76.062,76.062
			c0,16.635,5.355,32.008,14.41,44.526c1.738,2.402,3.602,4.703,5.604,6.882c1.887,2.057,3.893,3.996,5.99,5.836
			c11.943,10.452,27.18,17.222,43.955,18.556c2.016,0.159,4.047,0.266,6.104,0.266s4.088-0.104,6.105-0.266
			c2.912-0.232,5.783-0.618,8.596-1.169c3.088-0.606,6.104-1.401,9.045-2.369c4.262-1.398,8.359-3.151,12.252-5.247
			c5.062-2.724,9.768-6.017,14.061-9.771c15.932-13.941,26.004-34.41,26.004-57.244
			C465.795,325.344,444.618,297.183,415.069,286.742z M432.092,395.02c-2.547,2.944-5.393,5.604-8.488,7.966
			c-2.105,1.606-4.305,3.094-6.631,4.394c-1.188,0.664-2.418,1.255-3.654,1.833c-3.008,1.405-6.156,2.54-9.424,3.394
			c-4.533,1.188-9.264,1.885-14.166,1.885s-9.629-0.697-14.164-1.885c-11.119-2.913-20.895-9.134-28.195-17.586
			c-2-2.316-3.797-4.801-5.404-7.423c-1.83-2.99-3.381-6.157-4.633-9.48c-2.307-6.126-3.629-12.729-3.629-19.654
			c0-30.891,25.133-56.022,56.025-56.022c7.414,0,14.484,1.481,20.967,4.109c20.527,8.32,35.059,28.44,35.059,51.916
			C445.754,372.438,440.581,385.197,432.092,395.02z"/>
		<path d="M408.317,322.259c-5.576-2.867-11.883-4.516-18.588-4.516c-22.49,0-40.725,18.231-40.725,40.722
			c0,0.747,0.07,1.476,0.113,2.21c0.152,2.846,0.59,5.605,1.301,8.268c0.812,3.063,1.939,5.998,3.404,8.73
			c4.107,7.659,10.607,13.819,18.486,17.559c5.287,2.512,11.178,3.956,17.424,3.956s12.137-1.447,17.424-3.956
			c1.719-0.817,3.387-1.727,4.967-2.767c0.623-0.41,1.215-0.86,1.811-1.301c2.053-1.521,3.953-3.225,5.682-5.098
			c2.338-2.53,4.383-5.331,6.023-8.391c3.066-5.722,4.816-12.259,4.816-19.208C430.456,342.676,421.454,329.016,408.317,322.259z"/>
	</g>
</g>
<g>
</g>
<g>
</g>
<g>
</g>
<g>
</g>
<g>
</g>
<g>
</g>
<g>
</g>
<g>
</g>
<g>
</g>
<g>
</g>
<g>
</g>
<g>
</g>
<g>
</g>
<g>
</g>
<g>
</g>
</svg>
