<?xml version="1.0" encoding="iso-8859-1"?>
<!-- Generator: Adobe Illustrator 16.0.0, SVG Export Plug-In . SVG Version: 6.00 Build 0)  -->
<!DOCTYPE svg PUBLIC "-//W3C//DTD SVG 1.1//EN" "http://www.w3.org/Graphics/SVG/1.1/DTD/svg11.dtd">
<svg version="1.1" id="Capa_1" xmlns="http://www.w3.org/2000/svg" xmlns:xlink="http://www.w3.org/1999/xlink" x="0px" y="0px"
	 width="191.626px" height="191.626px" viewBox="0 0 191.626 191.626" style="enable-background:new 0 0 191.626 191.626;"
	 xml:space="preserve">
<g>
	<path d="M106.972,73.073H32.656c-1.72,0-3.117-1.404-3.117-3.118c0-1.72,1.397-3.118,3.117-3.118h74.315
		c1.711,0,3.117,1.397,3.117,3.118S108.683,73.073,106.972,73.073z M74.133,98.008c0-1.72-1.397-3.118-3.118-3.118H32.656
		c-1.72,0-3.117,1.397-3.117,3.118c0,1.714,1.397,3.12,3.117,3.12h38.359C72.741,101.128,74.133,99.722,74.133,98.008z
		 M32.656,122.928c-1.72,0-3.117,1.4-3.117,3.118c0,1.717,1.397,3.117,3.117,3.117h19.665c1.72,0,3.118-1.4,3.118-3.117
		c0-1.718-1.397-3.118-3.118-3.118H32.656z M183.811,148.929c0,1.717-1.4,3.117-3.117,3.117h-25.502
		c-1.096,0-2.106-0.578-2.667-1.522l-3.032-5.072l-7.843,12.087c-0.591,0.89-1.571,1.419-2.618,1.419
		c-0.116,0-0.231-0.006-0.348-0.019c-1.169-0.134-2.167-0.913-2.581-2.021l-7.66-20.715l-5.151,13.822
		c-0.451,1.218-1.62,2.033-2.923,2.033h-14.943c-1.717,0-3.117-1.406-3.117-3.117c0-1.723,1.4-3.117,3.117-3.117h12.763
		l7.332-19.674c0.45-1.225,1.619-2.034,2.923-2.034l0,0c1.303,0,2.472,0.81,2.923,2.04l8.415,22.773l7.185-11.059
		c0.585-0.9,1.522-1.498,2.68-1.425c1.078,0.024,2.07,0.597,2.624,1.517l4.688,7.861h14.45c1.278-2.339,2.24-4.555,2.697-6.553
		c0.896-2.764,1.303-5.328,1.303-7.909c0-8.994-4.907-17.3-12.793-21.671c-3.653-1.998-7.782-3.069-11.935-3.069
		c-7.38,0-14.322,3.258-19.047,8.957c-0.597,0.712-1.474,1.126-2.399,1.126l0,0c-0.926,0-1.814-0.407-2.399-1.132
		c-7.404-8.939-20.764-11.49-30.978-5.87c-7.874,4.359-12.775,12.659-12.775,21.665c0,2.582,0.411,5.14,1.221,7.611
		c4.01,17.938,37.095,40.651,44.926,45.815c5.151-3.386,21.172-14.334,32.723-26.525c1.188-1.254,3.173-1.29,4.409-0.127
		c1.254,1.188,1.303,3.154,0.128,4.408c-14.413,15.229-34.732,28.059-35.585,28.595c-0.512,0.316-1.084,0.481-1.663,0.481
		c-0.572,0-1.163-0.158-1.656-0.481c-1.814-1.139-44.277-28.034-49.285-50.521c-0.935-2.802-1.446-6.017-1.446-9.256
		c0-11.265,6.129-21.653,15.999-27.121c10.272-5.645,23.31-4.68,32.724,1.803V34.745h-23.206v6.698c0,1.721-1.397,3.118-3.114,3.118
		H40.356c-1.72,0-3.118-1.397-3.118-3.118v-6.698H14.03v139.587h77.768c1.72,0,3.118,1.401,3.118,3.118
		c0,1.723-1.397,3.117-3.118,3.117H10.934c-1.724,0-3.118-1.395-3.118-3.117V31.627c0-1.72,1.394-3.118,3.118-3.118h26.323v-8.567
		c0-1.714,1.397-3.118,3.118-3.118h12.778c0-0.049,0-0.106,0-0.149C53.152,7.478,60.633,0,69.825,0s16.672,7.478,16.672,16.675
		c0,0.049,0,0.106,0,0.149h12.778c1.714,0,3.117,1.403,3.117,3.118v8.567h26.317c1.729,0,3.117,1.397,3.117,3.118v75.305
		c9.487-7.228,23.14-8.574,33.832-2.71c9.876,5.48,16.002,15.868,16.002,27.133c0,3.234-0.512,6.455-1.534,9.549
		c-0.316,1.485-0.914,3.16-1.693,4.907h2.277C182.416,145.811,183.811,147.199,183.811,148.929z M96.136,23.065H82.919
		c-0.962,0-1.866-0.436-2.457-1.19c-0.594-0.755-0.797-1.738-0.569-2.682c0.244-0.959,0.356-1.763,0.356-2.512
		c0-5.763-4.683-10.44-10.437-10.44s-10.44,4.677-10.44,10.44c0,0.767,0.113,1.559,0.35,2.505c0.238,0.929,0.024,1.928-0.56,2.688
		c-0.587,0.761-1.498,1.19-2.463,1.19H43.48v15.266h52.656V23.065z"/>
</g>
<g>
</g>
<g>
</g>
<g>
</g>
<g>
</g>
<g>
</g>
<g>
</g>
<g>
</g>
<g>
</g>
<g>
</g>
<g>
</g>
<g>
</g>
<g>
</g>
<g>
</g>
<g>
</g>
<g>
</g>
</svg>
