<?xml version="1.0" encoding="iso-8859-1"?>
<!-- Generator: Adobe Illustrator 16.0.0, SVG Export Plug-In . SVG Version: 6.00 Build 0)  -->
<!DOCTYPE svg PUBLIC "-//W3C//DTD SVG 1.1//EN" "http://www.w3.org/Graphics/SVG/1.1/DTD/svg11.dtd">
<svg version="1.1" id="Capa_1" xmlns="http://www.w3.org/2000/svg" xmlns:xlink="http://www.w3.org/1999/xlink" x="0px" y="0px"
	 width="234.053px" height="234.054px" viewBox="0 0 234.053 234.054" style="enable-background:new 0 0 234.053 234.054;"
	 xml:space="preserve">
<g>
	<path d="M229.026,183.125c16.793-23.242-13.75-70.251-15.15-72.376c-0.73-1.105-2.07-1.647-3.361-1.31
		c-1.278,0.317-2.216,1.419-2.338,2.731c-1.352,14.629-15.783,22.332-15.887,22.374c-2.138,1.072-4.293,1.584-6.589,1.584
		c-17.335,0-34.275-29.526-34.446-29.825c-0.486-0.867-1.363-1.449-2.356-1.559c-0.968-0.122-1.967,0.247-2.648,0.983
		c-4.481,4.856-29.772,23.275-53.731,37.037l-0.012-41.309c0-3.148-0.584-6.01-1.428-8.723c3.967-4.527,6.299-10.306,6.299-16.38
		c0-6.634-2.57-12.876-7.228-17.57c-4.356-4.391-10.068-6.841-16.173-7.161v-0.639c0-6.923-5.264-11.399-13.396-11.399h-8.79V28.46
		c0-1.72-1.397-3.117-3.118-3.117s-3.118,1.397-3.118,3.117v11.125H31.889c-8.132,0-13.381,4.481-13.381,11.411v6.211
		c0,4.512,2.262,7.956,6.071,9.825v7.377C9.247,77.21-0.006,86.998,0,101.481l0.024,79.226c0,9.073,3.568,16.472,10.315,21.379
		c5.903,4.306,14.066,6.589,23.604,6.589c0.006,0,0.013,0,0.021,0v-0.22c1.27,0.11,2.5,0.256,3.87,0.256
		c0.682,0,1.367-0.012,2.07-0.036h187.44c0.864,0,1.681-0.354,2.277-0.986c0.584-0.634,0.889-1.474,0.834-2.326l-1.431-22.214
		C229.038,183.148,229.026,183.137,229.026,183.125z M221.487,182.242c-1.352,0.115-4.019,0.334-7.733,0.639
		c0.975-21.439,8.081-29.325,11.911-32.011C228.989,162.963,229.378,175.123,221.487,182.242z M185.708,142.363
		c3.239,0,6.381-0.754,9.407-2.259c0.603-0.311,12.647-6.673,17.452-19.448c3.245,5.711,7.849,14.613,11.167,24.082
		c-5.121,2.813-15.204,11.795-16.239,38.63c-10.614,0.828-26.074,1.985-43.647,3.154l-27.176-50.345
		c5.827-3.879,12.002-8.264,18.59-13.25C162.672,132.043,173.724,142.363,185.708,142.363z M18.675,187.07
		c-0.012-0.012-1.416-2.046-0.319-4.877c0.91-2.351,3.705-5.895,11.725-9.597c-0.052,0.853,0.037,1.724,0.429,2.63
		c1.839,4.232,8.123,5.725,20.247,4.854c0.112,0.019,8.104-0.292,12.668,4.08c1.821,1.754,2.807,4.043,3.081,6.904
		c-3.474,0.049-6.841,0.086-10.062,0.086c-29.544,0-35.929-2.277-37.262-3.069C19.081,187.722,18.913,187.381,18.675,187.07z
		 M72.723,190.968c-0.338-4.585-1.964-8.428-5.009-11.32c-6.521-6.223-16.821-5.803-17.308-5.772
		c-2.189,0.152-4.041,0.213-5.617,0.213c-6.96,0-8.507-1.376-8.507-1.175c0.04-0.384,0.648-1.291,1.218-1.839
		c0.487-0.463,0.734-1.047,0.859-1.65c5.337-1.747,12.023-3.482,20.49-5.054c0.98-0.183,2.077-0.487,3.148-0.779
		c1.154,0.304,3.249,0.694,6.562,0.694c7.271,0,20.058-2.021,39.369-11.387l8.437,36.425
		C101.275,190.084,86.295,190.688,72.723,190.968z M122.526,189.013c0-0.256,0.049-0.499-0.012-0.755l-8.863-38.276
		c1.666-0.883,3.355-1.778,5.1-2.765c0.013,0.067,0,0.115,0.013,0.171c0.694,2.49,12.185,29.946,16.77,40.913
		C131.221,188.538,126.886,188.781,122.526,189.013z M142.133,187.904c-6.625-15.746-16.758-40.121-17.366-42.191
		c-0.158-0.584-0.512-1.035-0.938-1.425c2.466-1.449,4.993-3.008,7.604-4.677l25.568,47.361
		C152.144,187.289,147.175,187.594,142.133,187.904z M147.857,112.71c0.913,1.431,2.144,3.251,3.587,5.261
		c-34.718,26.293-57.981,35.67-71.843,38.703C104.822,144.482,137.018,121.947,147.857,112.71z M73.919,57.853
		c4.451,0.295,8.616,2.11,11.81,5.328c3.498,3.507,5.419,8.189,5.419,13.174c0,3.623-1.118,7.109-3.039,10.108
		c-1.589-2.39-3.459-4.597-5.904-6.373c-3.854-2.813-8.747-4.664-14.285-5.675v-7.389C71.533,65.248,73.707,62.045,73.919,57.853z
		 M31.895,45.839l28.701-0.006c3.261,0,7.146,0.898,7.146,5.169v6.211c0,4.269-3.891,5.161-7.151,5.167l-28.701,0.006
		c-3.264,0-7.146-0.898-7.146-5.16v-6.211C24.744,46.743,28.634,45.839,31.895,45.839z M30.82,68.542
		c0.362,0.019,0.7,0.073,1.075,0.073h0.006l28.695-0.006c0.378,0,0.722-0.055,1.09-0.073v5.16c-1.035-0.055-2.015-0.186-3.087-0.186
		c-0.006,0-0.012,0-0.019,0l-24.648,0.006c-1.09,0-2.064,0.149-3.112,0.207V68.542z M6.266,180.72l-0.013-41.54h25.511
		c1.72,0,3.118-1.4,3.118-3.118c0-1.724-1.397-3.118-3.118-3.118H6.253l-0.006-10.54H37.15c1.72,0,3.118-1.4,3.118-3.117
		c0-1.724-1.397-3.118-3.118-3.118H6.248v-10.559l39.37-0.012c1.723,0,3.118-1.397,3.118-3.118s-1.395-3.118-3.118-3.118
		L6.385,99.375c1.467-18.106,21.293-19.616,27.547-19.623l24.648-0.006c0.006,0,0.013,0,0.019,0c8.205,0,15.095,1.863,19.936,5.386
		c5.136,3.748,7.742,9.25,7.749,16.337l0.012,44.805c-11.003,5.979-21.306,10.619-28.595,11.971
		c-26.299,4.908-41.488,12.215-45.154,21.708c-1.035,2.686-0.929,5.103-0.463,7.094c-0.03,0.177-0.106,0.354-0.106,0.536
		c0,3.525,0.88,6.783,2.378,9.682c-0.107-0.073-0.231-0.122-0.332-0.195C8.878,193.306,6.266,187.813,6.266,180.72z M39.792,202.445
		c-8.041,0.316-13.978-1.303-17.588-4.779c-0.874-0.854-1.559-1.754-2.095-2.691c5.904,1.485,16.66,2.411,36.34,2.411
		c59.54,0,165.5-8.927,166.572-9.024c0.036,0,0.061-0.037,0.104-0.037l0.907,14.109L39.792,202.445z"/>
</g>
<g>
</g>
<g>
</g>
<g>
</g>
<g>
</g>
<g>
</g>
<g>
</g>
<g>
</g>
<g>
</g>
<g>
</g>
<g>
</g>
<g>
</g>
<g>
</g>
<g>
</g>
<g>
</g>
<g>
</g>
</svg>
