<?xml version="1.0" encoding="iso-8859-1"?>
<!-- Generator: Adobe Illustrator 18.1.1, SVG Export Plug-In . SVG Version: 6.00 Build 0)  -->
<svg version="1.1" id="Capa_1" xmlns="http://www.w3.org/2000/svg" xmlns:xlink="http://www.w3.org/1999/xlink" x="0px" y="0px"
	 viewBox="0 0 49.893 49.893" style="enable-background:new 0 0 49.893 49.893;" xml:space="preserve">
<g>
	<g>
		<path style="fill:#010002;" d="M43.866,28.417c-2.703,1.699-5.42,3.377-8.131,5.062l-6.597-10.177
			c-0.079-0.095-0.163-0.159-0.245-0.238c-1.531-2.653-3.234-5.185-5.036-7.65c3.709,0.113,7.418,0.05,11.135-0.267
			c4.139-0.352,4.174-6.846,0-6.491c-6.026,0.513-12.034,0.422-18.053-0.143c-0.599-0.056-1.101,0.042-1.526,0.231
			c-1.166,0.192-2.279,0.717-3.049,1.495c-2.213,2.239-1.754,5.252,0.046,7.506c2.776,3.472,5.311,7.127,7.514,10.991
			c-3.304,0.938-6.608,1.88-9.912,2.817c-0.874,0.248-1.462,0.746-1.829,1.349c-0.093,0.11-0.19,0.21-0.274,0.338
			c-2.462,3.731-4.651,7.606-6.492,11.685c-1.708,3.783,3.885,7.088,5.605,3.277c1.684-3.729,3.669-7.283,5.879-10.72
			c4.923-1.4,9.847-2.802,14.77-4.197c0.241-0.067,0.458-0.157,0.659-0.26c1.353,2.017,2.594,4.104,3.73,6.271
			c0.33,0.629,0.704,0.918,1.098,0.979c0.932,0.634,2.17,0.812,3.394,0.044c3.608-2.271,7.252-4.496,10.862-6.766
			C50.823,31.407,47.271,26.276,43.866,28.417z"/>
		<circle style="fill:#010002;" cx="8.613" cy="4.869" r="4.869"/>
	</g>
</g>
<g>
</g>
<g>
</g>
<g>
</g>
<g>
</g>
<g>
</g>
<g>
</g>
<g>
</g>
<g>
</g>
<g>
</g>
<g>
</g>
<g>
</g>
<g>
</g>
<g>
</g>
<g>
</g>
<g>
</g>
</svg>
