<?xml version="1.0" encoding="iso-8859-1"?>
<!-- Generator: Adobe Illustrator 16.0.0, SVG Export Plug-In . SVG Version: 6.00 Build 0)  -->
<!DOCTYPE svg PUBLIC "-//W3C//DTD SVG 1.1//EN" "http://www.w3.org/Graphics/SVG/1.1/DTD/svg11.dtd">
<svg version="1.1" id="Capa_1" xmlns="http://www.w3.org/2000/svg" xmlns:xlink="http://www.w3.org/1999/xlink" x="0px" y="0px"
	 width="238.481px" height="238.481px" viewBox="0 0 238.481 238.481" style="enable-background:new 0 0 238.481 238.481;"
	 xml:space="preserve">
<g>
	<path d="M198.963,21.629h-2.119V5.645c0-3.117-2.521-5.645-5.639-5.645c-3.118,0-5.645,2.527-5.645,5.645v15.978h-17.604
		c-2.064-2.287-5.03-3.757-8.361-3.757c-3.324,0-6.29,1.471-8.36,3.757H87.224c-2.07-2.287-5.039-3.757-8.364-3.757
		c-3.328,0-6.296,1.471-8.36,3.757H52.896V5.645C52.896,2.527,50.372,0,47.254,0s-5.645,2.527-5.645,5.645v15.978h-2.119
		c-3.118,0-5.642,2.527-5.642,5.645c0,3.117,2.524,5.642,5.642,5.642h2.119v199.922c0,3.118,2.527,5.645,5.645,5.645
		s5.642-2.526,5.642-5.645V32.918h14.678v32.248c0,17.862,10.93,33.021,25.977,38.173V212.95c0,6.235,5.063,11.302,11.298,11.302
		s11.292-5.066,11.292-11.302v-46.339h6.199v46.339c0,6.235,5.057,11.302,11.292,11.302s11.296-5.066,11.296-11.302V103.339
		c15.052-5.146,25.976-20.311,25.976-38.173V32.918h14.682v199.919c0,3.118,2.526,5.645,5.645,5.645
		c3.117,0,5.639-2.526,5.639-5.645V32.918h2.119c3.117,0,5.645-2.527,5.645-5.645C204.632,24.156,202.08,21.629,198.963,21.629z
		 M148.301,65.166c0,9.633-6.576,17.47-14.669,17.47h-0.962c6.582-4.363,10.93-11.822,10.93-20.307
		c0-13.463-10.911-24.375-24.372-24.375c-13.463,0-24.375,10.912-24.375,24.375c0,8.485,4.348,15.951,10.93,20.307h-0.959
		c-8.093,0-14.672-7.837-14.672-17.47V32.918h58.148V65.166z"/>
</g>
<g>
</g>
<g>
</g>
<g>
</g>
<g>
</g>
<g>
</g>
<g>
</g>
<g>
</g>
<g>
</g>
<g>
</g>
<g>
</g>
<g>
</g>
<g>
</g>
<g>
</g>
<g>
</g>
<g>
</g>
</svg>
