<?xml version="1.0" encoding="iso-8859-1"?>
<!-- Generator: Adobe Illustrator 16.0.0, SVG Export Plug-In . SVG Version: 6.00 Build 0)  -->
<!DOCTYPE svg PUBLIC "-//W3C//DTD SVG 1.1//EN" "http://www.w3.org/Graphics/SVG/1.1/DTD/svg11.dtd">
<svg version="1.1" id="Capa_1" xmlns="http://www.w3.org/2000/svg" xmlns:xlink="http://www.w3.org/1999/xlink" x="0px" y="0px"
	 width="172.785px" height="172.785px" viewBox="0 0 172.785 172.785" style="enable-background:new 0 0 172.785 172.785;"
	 xml:space="preserve">
<g>
	<g>
		<path d="M92.068,81.704c2.375-1.757,3.934-4.549,3.934-7.725c0-3.379-1.76-6.338-4.403-8.056h14.535L60,0H22.676l46.135,65.924
			h12.364c-2.643,1.717-4.403,4.677-4.403,8.056c0,3.176,1.559,5.968,3.934,7.725c-22.579,2.801-40.061,22.013-40.061,45.34
			c0,25.264,20.478,45.741,45.736,45.741s45.735-20.483,45.735-45.741C132.122,103.717,114.646,84.505,92.068,81.704z
			 M91.432,73.979c0,2.783-2.265,5.045-5.045,5.045c-2.779,0-5.045-2.262-5.045-5.045c0-2.779,2.266-5.042,5.045-5.042
			C89.167,68.938,91.432,71.2,91.432,73.979z M71.353,165.253l-0.006,0.079c-14.392-5.65-24.798-19.156-25.97-35.256
			c0.88,0.621,2.095,1.717,3.218,2.923c1.802,11.338,8.616,21.47,18.73,27.279l1.708-2.972
			c-7.499-4.311-12.973-11.265-15.655-19.266c1.404,1.133,3.011,2.021,4.808,2.095c3.821,0.151,5.973-0.561,6.741,0.304
			c0.761,0.871,0.618,7.959,2.798,11.387c2.201,3.41,3.182,5.104,3.267,7.66C71.097,162.032,71.764,162.799,71.353,165.253z
			 M96.4,166.939c0.076-0.657,0.219-1.412,0.582-2.459c1.272-3.672,1.887-6.729,5.199-10.103c3.319-3.38,4.854-11.648,6.022-12.866
			c1.169-1.225,3.063-1.328,6.126-1.687c1.839-0.214,3.86-1.735,5.65-3.514c-2.417,8.689-8.135,16.282-16.111,20.916l1.723,2.966
			c10.541-6.12,17.464-16.94,18.822-28.899c1.229-1.315,2.18-1.948,3.05-2.533C126.697,147.278,113.745,162.599,96.4,166.939z
			 M126.825,119.48c-0.92-2.496-2.07-5.139-3.252-6.503c-2.399-2.752-4.031-5.212-4.993-7.294c-0.98-2.096-4.287-2.503-6.381-1.791
			c-2.095,0.719-3.526,0.768-4.396,1.23c-0.865,0.463-0.865,0.608-0.865,0.608s-0.815,0.159-0.767,2.095
			c0.048,1.937,0.304,3.008,0.304,3.008s-0.463,1.584,0.719,1.389c1.169-0.213,1.632-0.816,1.632-0.816s1.072,0.402,2.198-0.158
			c1.632,0.256,2.454-0.621,2.697-1.631c1.084-0.207,1.535-0.573,1.535-0.573s0.67,1.583,1.278,4.859
			c0.621,3.264,0.463,4.598,1.425,7.758c0.975,3.166,0.621,3.568,0.621,3.568l-1.333,0.097c-0.359-0.049-1.991-2.387-4.848-1.473
			c-2.855,0.925-3.525,3.373-4.183,3.885c-0.658,0.512-2.089-0.719-4.494-0.305c-2.399,0.402-4.908,1.376-6.275,2.398
			c-1.385,1.012-1.987,1.377-2.201,1.377c-0.197,0-1.945-0.67-2.499-2.205c-0.566-1.521-0.612-5.15-0.566-5.492
			c0.049-0.371,1.333-0.158,1.738-1.437c0.405-1.285,0.463-3.063,0.816-4.044c0.35-0.961-1.321-1.12-1.321-1.12
			s0.256-2.855,0.355-3.727c0.101-0.864-1.428-3.215-2.499-3.823c-0.256-0.877-2.606-2.102-3.526-2.156l-1.632-0.292
			c0,0-1.373-0.67-2.6,0.152c-1.327,0.407-2.04,1.534-2.04,1.534s-1.078,0.713-1.583,1.528c-1.017,0.603-1.635,1.169-1.428,2.558
			c0.207,1.376-0.207,3.977,0.874,5.103c-0.606,0.098-1.428,0.201-0.917,1.687c0.512,1.468,0.761,2.296,0.709,2.966
			c-0.055,0.646,0.767,1.218,0.868,1.071c0.106-0.158,0.106,2.021,1.127,2.898c0.146,1.937,0.462,3.581,0,4.348
			c-0.466,0.768-0.972,0.865-2.049,1.06c-1.069,0.214-3.105-0.718-4.171-1.985c-1.075-1.278-3.979-3.008-6.229-2.246
			c-2.253,0.761-3.425,1.272-3.93,0.815c-0.518-0.456-1.376-3.927-4.701-3.781c-3.31,0.158-4.338,1.23-4.893,1.175
			c-0.569-0.042,0.149-2.088,0-5.455c-0.158-3.367-0.414-3.623,0.149-6.022c0.566-2.399,1.221-4.079,1.221-4.079
			s0.512,0.547,1.327,0.243c0.612,0.725,2.189,0.621,2.189,0.621l0.313,0.256c0,0,0.305,2.198,1.577,1.894
			c1.279-0.311,0.417-2.71,0.417-2.71s0.862-3.373,0.305-4.493c-0.561-1.121-3.48-2.497-5.17-2.399
			c-1.681,0.097-4.232,1.321-4.688,1.882c-0.46,0.578-0.305,1.54-0.965,2.453c-0.673,0.914-1.333,3.429-3.428,5.821
			c-0.551,0.634-1.129,1.511-1.684,2.484c4.731-17.5,20.682-30.396,39.692-30.396C106.536,85.881,123.275,100.373,126.825,119.48z"
			/>
		<path d="M67.051,93.968l1.732,2.965c10.513-6.144,24.256-6.229,34.842-0.2l1.693-2.984C93.7,87.123,78.599,87.209,67.051,93.968z"
			/>
		<polygon points="150.109,0 112.771,0 89.974,32.567 108.631,59.235 		"/>
	</g>
</g>
<g>
</g>
<g>
</g>
<g>
</g>
<g>
</g>
<g>
</g>
<g>
</g>
<g>
</g>
<g>
</g>
<g>
</g>
<g>
</g>
<g>
</g>
<g>
</g>
<g>
</g>
<g>
</g>
<g>
</g>
</svg>
