<?xml version="1.0" encoding="iso-8859-1"?>
<!-- Generator: Adobe Illustrator 18.0.0, SVG Export Plug-In . SVG Version: 6.00 Build 0)  -->
<!DOCTYPE svg PUBLIC "-//W3C//DTD SVG 1.1//EN" "http://www.w3.org/Graphics/SVG/1.1/DTD/svg11.dtd">
<svg version="1.1" id="Capa_1" xmlns="http://www.w3.org/2000/svg" xmlns:xlink="http://www.w3.org/1999/xlink" x="0px" y="0px"
	 viewBox="0 0 489.055 489.055" style="enable-background:new 0 0 489.055 489.055;" xml:space="preserve">
<g id="XMLID_209_">
	<path id="XMLID_210_" d="M90.987,386.269c-9.182-20.44-9.182-20.44-17.355-42.405c-6.868-21.835-10.097-33.573-12.685-51.917
		c-13.022-63.525,21.493-142.57,21.493-142.57s-40.504,61.382-33.758,143.82c2.548,21.43,3.531,32.227,8.733,55.229
		c6.728,24.271,8.034,25.795,15.025,47.257c5.3,13.476,15.926,34.386,20.178,41.919c-5.049-2.825-10.13-3.669-13.637-1.152
		c-5.583,3.862-14.205,22.435-5.91,32.063c8.305,9.659,28.184,4.14,32.834-0.827c4.74-4.872,2.232-15.034-4.765-23.217
		c3.043,0.683,6.349,0.244,9.204-1.525c5.797-3.588,7.591-11.186,4.004-16.981C88.236,383.768,97.383,399.353,90.987,386.269z"/>
	<path id="XMLID_211_" d="M110.883,133.337c5.146-7.809,18.613-30.587,14.327-35.44c-4.936-5.228-28.191,11.836-34.166,20.829
		c-6.38,8.621-6.152,18.799-0.358,22.338C96.507,144.62,105.208,141.016,110.883,133.337z"/>
	<path id="XMLID_212_" d="M92.643,190.888c6.608-4.465,23.346-18.931,22.484-26.3c-0.909-7.89-21.031-6.559-28.531-2.403
		c-7.476,3.783-12.232,14.254-10.162,22.291C78.495,192.542,85.931,194.931,92.643,190.888z"/>
	<path id="XMLID_213_" d="M122.952,404.044c-5.527,3.946-5.479,13.458,0.894,20.847c6.348,7.385,15.933,9.058,20.675,4.171
		c4.675-4.968,12.435-22.321,7.363-28.266C146.777,394.888,128.562,400.166,122.952,404.044z"/>
	<path id="XMLID_214_" d="M64.98,250.939c4.245,6.98,12.054,7.191,17.355,1.64c4.838-6.364,23.954-31.056,21.437-37.241
		c-2.963-7.402-29.563,5.91-35.415,12.191C62.311,233,60.735,244.005,64.98,250.939z"/>
	<path id="XMLID_215_" d="M91.945,316.395c3.142-8.685,16.616-40.927,11.98-46.608c-5.592-7.144-31.203,15.1-35.667,23.994
		c-4.992,7.906-3.125,20.554,3.928,26.706C79.241,326.671,87.944,324.173,91.945,316.395z"/>
	<path id="XMLID_216_" d="M99.778,390.698c10.024,4.287,18.435-1.703,19.862-11.639c-0.073-10.764,3.695-49.969-2.987-54.385
		c-8.451-5.959-29.23,26.512-30.852,37.989C83.106,373.069,89.778,386.462,99.778,390.698z"/>
	<path id="XMLID_217_" d="M63.487,179.345c7.045-4.886,11.64-14.968,10.747-23.571c-1.227-8.347-8.143-28.899-16.244-24.662
		c-8.735,4.499-12.963,33.136-10.714,41.821C49.014,181.829,56.465,184.198,63.487,179.345z"/>
	<path id="XMLID_218_" d="M42.447,248.812c5.397-6.689,6.988-17.662,3.691-25.649c-3.919-7.308-18.067-37.876-24.65-31.999
		c-7.906,6.77-1.479,48.559,3.604,56.009C29.239,255.257,37.057,255.468,42.447,248.812z"/>
	<path id="XMLID_219_" d="M43.34,326.461c3.678-9.368,1.802-22.192-4.417-30.066c-6.792-6.85-32.004-37.03-37.525-28.345
		c-6.94,10.211,13.783,55.879,22.185,62.518C30.969,338.312,39.671,335.812,43.34,326.461z"/>
	<path id="XMLID_220_" d="M73.357,406.189c0.374-11.705-6.308-25.133-15.828-31.74c-9.886-5.08-47.493-30.454-50.609-19.009
		c-4.44,13.832,34.603,58.086,46.575,62.372C64.557,423.835,72.968,417.843,73.357,406.189z"/>
	<path id="XMLID_221_" d="M410.074,436.449c-3.506-2.517-8.588-1.673-13.638,1.152c4.254-7.533,14.879-28.443,20.181-41.919
		c6.988-21.462,8.295-22.986,15.024-47.257c5.203-23.003,6.185-33.8,8.734-55.229c6.744-82.438-33.76-143.82-33.76-143.82
		s34.515,79.045,21.495,142.57c-2.59,18.344-5.82,30.082-12.688,51.917c-8.174,21.965-8.174,21.965-17.355,42.405
		c-6.395,13.084,2.753-2.501-23.361,39.692c-3.587,5.796-1.793,13.394,4.002,16.981c2.858,1.77,6.161,2.208,9.205,1.525
		c-6.997,8.183-9.506,18.345-4.765,23.217c4.652,4.967,24.531,10.486,32.834,0.827C424.279,458.884,415.659,440.312,410.074,436.449
		z"/>
	<path id="XMLID_222_" d="M363.848,97.897c-4.288,4.854,9.18,27.632,14.326,35.44c5.674,7.679,14.374,11.283,20.195,7.727
		c5.795-3.539,6.022-13.717-0.358-22.338C392.039,109.733,368.781,92.669,363.848,97.897z"/>
	<path id="XMLID_223_" d="M402.46,162.185c-7.501-4.155-27.623-5.486-28.532,2.403c-0.861,7.369,15.878,21.835,22.483,26.3
		c6.713,4.043,14.15,1.654,16.211-6.412C414.691,176.439,409.936,165.968,402.46,162.185z"/>
	<path id="XMLID_224_" d="M337.174,400.796c-5.074,5.944,2.687,23.298,7.362,28.266c4.739,4.887,14.326,3.214,20.675-4.171
		c6.371-7.389,6.419-16.9,0.892-20.847C360.494,400.166,342.279,394.888,337.174,400.796z"/>
	<path id="XMLID_225_" d="M420.7,227.528c-5.854-6.281-32.454-19.594-35.416-12.191c-2.518,6.186,16.599,30.877,21.437,37.241
		c5.301,5.552,13.108,5.341,17.355-1.64C428.322,244.005,426.746,233,420.7,227.528z"/>
	<path id="XMLID_226_" d="M416.868,320.486c7.054-6.152,8.921-18.8,3.928-26.706c-4.463-8.895-30.073-31.138-35.667-23.994
		c-4.634,5.682,8.841,37.924,11.981,46.608C401.114,324.173,409.814,326.671,416.868,320.486z"/>
	<path id="XMLID_227_" d="M372.402,324.675c-6.682,4.416-2.915,43.621-2.987,54.385c1.429,9.936,9.838,15.926,19.862,11.639
		c10.001-4.236,16.674-17.629,13.979-28.034C401.632,351.187,380.852,318.716,372.402,324.675z"/>
	<path id="XMLID_228_" d="M425.57,179.345c7.021,4.854,14.473,2.484,16.209-6.412c2.25-8.686-1.979-37.322-10.713-41.821
		c-8.102-4.237-15.017,16.315-16.242,24.662C413.929,164.377,418.524,174.459,425.57,179.345z"/>
	<path id="XMLID_229_" d="M446.611,248.812c5.389,6.656,13.206,6.445,17.354-1.64c5.082-7.45,11.51-49.239,3.604-56.009
		c-6.583-5.877-20.732,24.691-24.653,31.999C439.622,231.15,441.212,242.122,446.611,248.812z"/>
	<path id="XMLID_230_" d="M450.133,296.395c-6.217,7.874-8.093,20.698-4.415,30.066c3.669,9.351,12.369,11.851,19.756,4.106
		c8.401-6.639,29.124-52.307,22.184-62.518C482.139,259.364,456.927,289.545,450.133,296.395z"/>
	<path id="XMLID_231_" d="M431.527,374.448c-9.52,6.607-16.201,20.035-15.827,31.74c0.39,11.654,8.799,17.647,19.862,11.623
		c11.973-4.286,51.018-48.54,46.577-62.372C479.022,343.994,441.415,369.368,431.527,374.448z"/>
	<path id="XMLID_232_" d="M314.534,181.489l54.174-142.637l-19.423-7.371l-52.957,139.453
		C302.716,173.954,308.812,177.462,314.534,181.489z"/>
	<path id="XMLID_233_" d="M325.972,22.618l-19.425-7.37L251.732,159.57c7.208,0.438,14.238,1.462,21.064,3.086L325.972,22.618z"/>
	<path id="XMLID_234_" d="M237.332,159.57L182.509,15.232l-19.424,7.37l53.183,140.055
		C223.095,161.032,230.124,159.995,237.332,159.57z"/>
	<path id="XMLID_235_" d="M192.737,170.935L139.771,31.466l-19.423,7.371l54.174,142.652
		C180.244,177.445,186.348,173.939,192.737,170.935z"/>
	<path id="XMLID_236_" d="M244.525,175.838c-58.136,0-105.256,47.129-105.256,105.248c0,58.134,47.12,105.263,105.256,105.263
		c58.127,0,105.255-47.129,105.255-105.263C349.78,222.967,302.652,175.838,244.525,175.838z M244.525,362.794
		c-45.05,0-81.7-36.658-81.7-81.708c0-45.052,36.65-81.692,81.7-81.692s81.7,36.641,81.7,81.692
		C326.225,326.136,289.574,362.794,244.525,362.794z"/>
	<path id="XMLID_239_" d="M244.525,216.019c-35.888,0-65.075,29.188-65.075,65.067c0,35.895,29.187,65.083,65.075,65.083
		c35.885,0,65.075-29.188,65.075-65.083C309.6,245.207,280.41,216.019,244.525,216.019z"/>
</g>
<g>
</g>
<g>
</g>
<g>
</g>
<g>
</g>
<g>
</g>
<g>
</g>
<g>
</g>
<g>
</g>
<g>
</g>
<g>
</g>
<g>
</g>
<g>
</g>
<g>
</g>
<g>
</g>
<g>
</g>
</svg>
