<?xml version="1.0" encoding="iso-8859-1"?>
<!-- Generator: Adobe Illustrator 18.0.0, SVG Export Plug-In . SVG Version: 6.00 Build 0)  -->
<!DOCTYPE svg PUBLIC "-//W3C//DTD SVG 1.1//EN" "http://www.w3.org/Graphics/SVG/1.1/DTD/svg11.dtd">
<svg version="1.1" id="Capa_1" xmlns="http://www.w3.org/2000/svg" xmlns:xlink="http://www.w3.org/1999/xlink" x="0px" y="0px"
	 viewBox="0 0 494.138 494.138" style="enable-background:new 0 0 494.138 494.138;" xml:space="preserve">
<g id="XMLID_8_">
	<path id="XMLID_9_" d="M247.069,163.687c24.872,0,45.02-20.146,45.02-45.021c0-24.858-20.147-45.014-45.02-45.014
		c-24.874,0-45.007,20.156-45.007,45.014C202.063,143.54,222.195,163.687,247.069,163.687z"/>
	<path id="XMLID_10_" d="M462.838,17.042c-6.31,0-11.647,3.282-15.1,8.033v-6.082C447.738,8.5,439.221,0,428.734,0
		c-10.484,0-19.002,8.5-19.002,18.994v28.1H84.404v-28.1C84.404,8.5,75.889,0,65.402,0C54.917,0,46.4,8.5,46.4,18.994v6.082
		c-3.453-4.751-8.792-8.033-15.099-8.033c-10.485,0-19.002,8.5-19.002,18.994V82.92c0,10.493,8.517,18.994,19.002,18.994
		c6.307,0,11.646-3.282,15.099-8.025v6.082c0,10.493,8.517,18.994,19.002,18.994c10.486,0,19.002-8.501,19.002-18.994v-28.1h12.002
		c0.322,1.751,37.697,75.509,37.697,75.509c1,1.952,2.339,3.711,3.951,5.21l54.459,50.651v134.08l-44.166,42.424
		c-4.388,4.202-6.855,10.01-6.855,16.084v76.008c0,12.316,9.984,22.301,22.293,22.301c12.309,0,22.293-9.985,22.293-22.301V405.33
		l32.115-30.85h57.749l32.134,30.85v66.507c0,12.316,9.984,22.301,22.292,22.301c12.308,0,22.293-9.985,22.293-22.301v-76.008
		c0-6.074-2.468-11.881-6.855-16.084l-44.149-42.409V203.225l54.426-50.643c1.612-1.491,2.951-3.251,3.951-5.202
		c0,0,37.375-73.758,37.699-75.509h12v28.1c0,10.493,8.518,18.994,19.002,18.994c10.486,0,19.004-8.501,19.004-18.994v-6.09
		c3.452,4.751,8.789,8.033,15.1,8.033c10.483,0,19-8.501,19-18.994V36.036C481.838,25.542,473.321,17.042,462.838,17.042z
		 M327.771,127.03l-48.699,45.32h-63.975l-48.732-45.32l-28.422-55.16h218.251L327.771,127.03z"/>
</g>
<g>
</g>
<g>
</g>
<g>
</g>
<g>
</g>
<g>
</g>
<g>
</g>
<g>
</g>
<g>
</g>
<g>
</g>
<g>
</g>
<g>
</g>
<g>
</g>
<g>
</g>
<g>
</g>
<g>
</g>
</svg>
