<?xml version="1.0" encoding="iso-8859-1"?>
<!-- Generator: Adobe Illustrator 18.0.0, SVG Export Plug-In . SVG Version: 6.00 Build 0)  -->
<!DOCTYPE svg PUBLIC "-//W3C//DTD SVG 1.1//EN" "http://www.w3.org/Graphics/SVG/1.1/DTD/svg11.dtd">
<svg version="1.1" id="Capa_1" xmlns="http://www.w3.org/2000/svg" xmlns:xlink="http://www.w3.org/1999/xlink" x="0px" y="0px"
	 viewBox="0 0 494.894 494.894" style="enable-background:new 0 0 494.894 494.894;" xml:space="preserve">
<path d="M494.894,216.002c0-7.411-6.002-13.404-13.403-13.404H331.476v-58.255c0-7.409-6.001-13.401-13.402-13.401H176.822
	c-7.402,0-13.403,5.992-13.403,13.401v28.868H13.403C6.001,173.211,0,179.205,0,186.616v177.337c100.163,0,399.62,0,494.894,0
	V216.002z M116.618,326.24H56.24c-1.966,0-3.56-1.595-3.56-3.56v-7.024c0-2.657,1.126-5.186,3.094-6.975l10.382-9.393
	c22.786-20.379,33.862-32.092,34.176-44.302c0-8.507-5.13-15.241-17.173-15.241c-5.147,0-9.923,1.483-14.089,3.512
	c-2.215,1.096-4.774,1.193-7.063,0.308c-2.296-0.886-4.125-2.69-5.027-4.979l-0.234-0.597c-1.729-4.38,0.162-9.359,4.368-11.485
	c7.337-3.739,16.665-6.332,27.024-6.332c23.592,0,36.584,13.791,36.584,32.735c0,17.495-12.669,31.463-27.756,44.93l-9.635,8.024
	v0.321h29.288c5.543,0,10.028,4.494,10.028,10.02C126.646,321.744,122.161,326.24,116.618,326.24z M267.472,297.226
	c0,8.023-6.51,14.531-14.54,14.531c-8.031,0-14.539-6.509-14.539-14.531v-87.364h-0.396l-11.791,5.622
	c-3.094,1.468-6.678,1.451-9.746-0.064c-3.07-1.497-5.285-4.316-6.019-7.668c-1.127-5.124,1.459-10.343,6.22-12.549l23.422-10.906
	c1.626-0.758,3.392-1.144,5.188-1.144h14.885c4.036,0,7.315,3.269,7.315,7.313V297.226z M406.193,326.24
	c-7.21,0-13.67-1.271-18.606-3.029c-3.512-1.257-5.478-5.009-4.503-8.603l0.275-0.997c0.515-1.903,1.788-3.496,3.512-4.416
	c1.731-0.934,3.769-1.11,5.63-0.5c3.608,1.193,7.949,2.191,12.291,2.191c10.093,0,15.209-4.849,15.209-11.115
	c0-8.184-8.177-11.89-16.747-11.89h-0.959c-3.851,0-6.966-3.122-6.966-6.958c0-3.852,3.116-6.975,6.966-6.975h0.572
	c6.525-0.13,14.837-2.564,14.837-9.587c0-4.978-4.091-8.683-12.275-8.683c-3.417,0-6.928,0.741-10.013,1.739
	c-1.982,0.645-4.139,0.452-5.985-0.531c-1.835-0.983-3.197-2.675-3.769-4.688c-0.984-3.495,0.878-7.153,4.286-8.424
	c5.3-1.967,12.381-3.449,19.831-3.449c17.77,0,27.613,9.345,27.613,20.719c0,8.81-4.996,15.723-15.216,19.299v0.258
	c9.972,1.787,18.027,9.328,18.027,20.202C440.202,315.494,427.29,326.24,406.193,326.24z"/>
<g>
</g>
<g>
</g>
<g>
</g>
<g>
</g>
<g>
</g>
<g>
</g>
<g>
</g>
<g>
</g>
<g>
</g>
<g>
</g>
<g>
</g>
<g>
</g>
<g>
</g>
<g>
</g>
<g>
</g>
</svg>
