<?xml version="1.0" encoding="iso-8859-1"?>
<!-- Generator: Adobe Illustrator 16.0.0, SVG Export Plug-In . SVG Version: 6.00 Build 0)  -->
<!DOCTYPE svg PUBLIC "-//W3C//DTD SVG 1.1//EN" "http://www.w3.org/Graphics/SVG/1.1/DTD/svg11.dtd">
<svg version="1.1" id="Capa_1" xmlns="http://www.w3.org/2000/svg" xmlns:xlink="http://www.w3.org/1999/xlink" x="0px" y="0px"
	 width="180.678px" height="180.678px" viewBox="0 0 180.678 180.678" style="enable-background:new 0 0 180.678 180.678;"
	 xml:space="preserve">
<g>
	<path d="M169.345,71.045c6.771-19.613,0.865-34.906-16.228-41.984c-9.962-4.12-19.272-3.249-26.47,2.289V3.117
		C126.647,1.4,125.253,0,123.53,0c-1.718,0-3.118,1.4-3.118,3.117v7.243c-1.218-1.477-2.716-2.855-4.542-3.897
		c-2.484-1.4-5.438-2.107-8.78-2.107c-4.445,0-8.111,1.285-8.264,1.34c-1.458,0.518-2.316,2.04-2.006,3.562
		c0.088,0.405,2.131,10.05,9.478,14.209c2.472,1.404,5.438,2.11,8.78,2.11c2.046,0,3.897-0.283,5.334-0.581v6.354
		c-7.173-5.544-16.495-6.409-26.466-2.283C76.872,36.151,70.95,51.453,77.721,71.051c6.455,18.7,23.358,38.712,38.247,38.712
		c1.851,0,3.629-0.353,5.297-0.974c0,0.219-0.049,0.432,0,0.657c1.863,8.963,5.572,17.78,10.997,26.202
		c1.054,1.638,2.302,3.616,3.581,5.748c-14.718,5.912-31.299,9.103-48.156,9.103c-0.006,0-0.013,0-0.021,0
		c-17.488,0-34.586-3.428-49.718-9.767c1.139-1.863,2.237-3.617,3.178-5.078C72.485,86.962,34.36,44.25,33.968,43.82
		c-1.166-1.278-3.136-1.352-4.402-0.201c-1.273,1.166-1.364,3.13-0.198,4.403c0.354,0.393,35.308,39.558,6.516,84.258
		c-5.895,9.146-16.861,26.171-15.016,45.571c0.149,1.62,1.51,2.826,3.099,2.826c0.101,0,0.201,0,0.298-0.013
		c1.717-0.158,2.975-1.692,2.807-3.397c-1.105-11.582,3.154-22.481,7.718-31.019c16.063,6.856,34.288,10.498,52.869,10.498
		c0.006,0,0.015,0,0.021,0c17.936,0,35.606-3.429,51.255-9.828c4.433,8.427,8.439,19.071,7.368,30.349
		c-0.158,1.705,1.09,3.239,2.801,3.397c0.104,0.013,0.207,0.013,0.305,0.013c1.589,0,2.947-1.206,3.1-2.826
		c1.845-19.388-9.128-36.425-15.017-45.577c-4.779-7.41-8.043-15.119-9.827-22.926c1.114,0.243,2.246,0.414,3.416,0.414
		C145.999,109.751,162.902,89.735,169.345,71.045z M109.367,18.039c-2.875-1.629-4.592-4.816-5.529-7.167
		c2.765-0.454,6.625-0.299,8.963,1.023c2.868,1.635,4.592,4.813,5.517,7.164C115.565,19.521,111.705,19.354,109.367,18.039z
		 M83.625,69.011c-7.219-20.914,2.932-30.135,12.72-34.181c10.147-4.205,18.739-2.189,24.664,6.086
		c0.049,0.055,0.122,0.079,0.152,0.137c0.207,0.241,0.451,0.441,0.725,0.621c0.11,0.076,0.207,0.165,0.323,0.219
		c0.408,0.195,0.846,0.32,1.333,0.32c0.476,0,0.914-0.134,1.328-0.32c0.121-0.055,0.207-0.143,0.328-0.219
		c0.269-0.173,0.512-0.38,0.719-0.621c0.049-0.063,0.122-0.088,0.152-0.137c5.937-8.27,14.522-10.285,24.667-6.086
		c9.791,4.046,19.936,13.274,12.714,34.181c-6.941,20.134-25.33,38.194-35.816,33.846c-0.646-0.268-1.333-0.688-2.18-1.352
		c-0.56-0.45-1.236-0.657-1.924-0.657c-0.67,0-1.358,0.226-1.918,0.657c-0.847,0.658-1.541,1.084-2.198,1.352
		C109.099,107.156,90.566,89.151,83.625,69.011z M86.7,137.383c-3.541,0-6.409-2.873-6.409-6.405c0-3.544,2.862-6.405,6.409-6.405
		c3.547,0,6.409,2.861,6.409,6.405C93.115,134.51,90.247,137.383,86.7,137.383z M21.028,95.922H8.591V76.425h12.437v-7.846
		L38.62,86.17l-17.592,17.588V95.922z"/>
</g>
<g>
</g>
<g>
</g>
<g>
</g>
<g>
</g>
<g>
</g>
<g>
</g>
<g>
</g>
<g>
</g>
<g>
</g>
<g>
</g>
<g>
</g>
<g>
</g>
<g>
</g>
<g>
</g>
<g>
</g>
</svg>
