<?xml version="1.0" encoding="iso-8859-1"?>
<!-- Generator: Adobe Illustrator 16.0.0, SVG Export Plug-In . SVG Version: 6.00 Build 0)  -->
<!DOCTYPE svg PUBLIC "-//W3C//DTD SVG 1.1//EN" "http://www.w3.org/Graphics/SVG/1.1/DTD/svg11.dtd">
<svg version="1.1" id="Capa_1" xmlns="http://www.w3.org/2000/svg" xmlns:xlink="http://www.w3.org/1999/xlink" x="0px" y="0px"
	 width="168.989px" height="168.989px" viewBox="0 0 168.989 168.989" style="enable-background:new 0 0 168.989 168.989;"
	 xml:space="preserve">
<g>
	<path d="M149.202,34.176c-6.928-10.577-17.706-17.658-29.834-20.104l0.298-2.928c1.745-0.958,2.843-2.474,3.007-4.208
		c0.187-1.85-0.678-3.661-2.386-4.974c-1.335-1.041-3.135-1.718-5.044-1.91c-4.521-0.438-8.324,1.844-8.68,5.263
		c-0.163,1.746,0.613,3.437,2.112,4.717l-0.328,3.157c-5.768,0.214-11.403,1.467-16.679,3.737l-2.823-4.312
		c1.4-2.741,1.441-5.521,0.021-7.683c-1.324-2.02-3.524-3.129-6.659-3.075c-2.452,0.061-5.118,0.946-7.506,2.512
		c-5.397,3.54-7.648,9.346-5.122,13.209c1.411,2.167,3.995,3.233,7.062,3.042l2.678,4.071C62.056,39.802,58.065,65.75,70.997,85.467
		c8.68,13.224,23.31,21.132,39.14,21.132c1.221,0,2.427-0.168,3.628-0.263c1.751,7.584,4.925,15.059,9.529,22.194
		c0.938,1.466,2.066,3.25,3.216,5.165c-13.227,5.313-28.132,8.181-43.285,8.181c-0.008,0-0.013,0-0.023,0
		c-15.729,0-31.081-3.086-44.687-8.788c1.031-1.674,2.006-3.245,2.859-4.553c28.178-43.759-6.074-82.145-6.42-82.528
		c-1.048-1.144-2.796-1.215-3.957-0.181c-1.139,1.04-1.229,2.813-0.187,3.962c1.305,1.434,31.67,35.628,5.855,75.711
		c-5.283,8.224-15.133,23.534-13.48,40.952c0.128,1.463,1.354,2.538,2.78,2.538c0.099,0,0.183,0,0.273-0.01
		c1.542-0.141,2.673-1.51,2.529-3.054c-1-10.413,2.828-20.203,6.924-27.869c14.435,6.156,30.819,9.429,47.51,9.429
		c0.006,0,0.016,0,0.023,0c16.127,0,32.007-3.086,46.069-8.837c3.986,7.578,7.587,17.144,6.61,27.277
		c-0.14,1.544,0.996,2.913,2.53,3.054c0.099,0.01,0.174,0.01,0.271,0.01c1.424,0,2.648-1.075,2.782-2.538
		c1.663-17.429-8.199-32.733-13.496-40.956c-4.138-6.438-7.015-13.135-8.657-19.932c5.803-1.17,11.372-3.338,16.396-6.631
		C157.295,84.776,163.331,55.736,149.202,34.176z M114.664,5.618c1.019,0.109,1.719,0.432,2.11,0.706
		c-0.12,0.055-0.273,0.109-0.46,0.153c-0.897,0.241-1.617,0.914-1.926,1.779c-0.12-0.909-0.677-1.712-1.521-2.123
		c-0.164-0.088-0.304-0.165-0.405-0.241C112.89,5.695,113.65,5.515,114.664,5.618z M80.357,16.059
		c-0.643-0.975-1.802-1.451-2.961-1.193c-1.637,0.373-2.823,0.088-3.128-0.361c-0.502-0.772,0.438-3.431,3.513-5.45
		c1.502-0.979,3.157-1.56,4.563-1.593c0.84-0.033,1.595,0.192,1.832,0.548c0.302,0.449,0.072,1.658-0.919,3.015
		c-0.684,0.941-0.719,2.211-0.084,3.185l3.467,5.292c-0.723,0.427-1.494,0.761-2.206,1.226c-0.248,0.164-0.459,0.35-0.701,0.509
		L80.357,16.059z M110.137,100.979c-13.938,0-26.816-6.949-34.457-18.594c-12.443-18.977-7.121-44.542,11.853-56.979
		c6.725-4.411,14.512-6.747,22.533-6.747c13.933,0,26.815,6.949,34.453,18.588c12.444,18.972,7.126,44.542-11.854,56.985
		C125.936,98.647,118.153,100.979,110.137,100.979z M131.441,90.784c-6.35,4.159-13.494,6.155-20.563,6.155
		c-12.26,0-24.287-5.974-31.499-16.973c-8.501-12.958-8.106-30.102,0.963-42.654c0.91-1.259,2.664-1.532,3.907-0.629
		c1.248,0.908,1.532,2.659,0.629,3.913c-7.718,10.686-8.054,25.27-0.82,36.301c9.671,14.742,29.532,18.89,44.296,9.204
		c14.76-9.674,18.878-29.549,9.214-44.301c-0.842-1.291-0.486-3.031,0.811-3.874c1.28-0.848,3.022-0.492,3.876,0.804
		C153.623,56.059,148.764,79.414,131.441,90.784z M104.649,55.058c-0.575,0.826-0.985,1.751-1.194,2.763
		c-0.402,1.965-0.032,3.968,1.068,5.653c1.396,2.123,3.744,3.394,6.289,3.394c1.476,0,2.899-0.428,4.123-1.237
		c3.455-2.276,4.422-6.944,2.156-10.403c-1.661-2.533-4.837-3.721-7.737-3.206L94.061,28.716c-0.849-1.297-2.592-1.653-3.867-0.81
		c-1.293,0.843-1.652,2.583-0.817,3.875L104.649,55.058z M111.872,60.945c-0.863,0.569-2.102,0.301-2.665-0.547
		c-0.279-0.427-0.365-0.941-0.268-1.439c0.099-0.499,0.394-0.931,0.814-1.209c0.312-0.207,0.667-0.317,1.045-0.317
		c0.646,0,1.26,0.328,1.611,0.864C112.999,59.184,112.747,60.371,111.872,60.945z M82.345,130.072c-3.185,0-5.756-2.582-5.756-5.755
		c0-3.185,2.572-5.761,5.756-5.761s5.757,2.576,5.757,5.761C88.112,127.49,85.529,130.072,82.345,130.072z M23.325,92.81H12.15
		V75.288h11.175v-7.042l15.81,15.803l-15.81,15.809V92.81z"/>
</g>
<g>
</g>
<g>
</g>
<g>
</g>
<g>
</g>
<g>
</g>
<g>
</g>
<g>
</g>
<g>
</g>
<g>
</g>
<g>
</g>
<g>
</g>
<g>
</g>
<g>
</g>
<g>
</g>
<g>
</g>
</svg>
