<?xml version="1.0" encoding="iso-8859-1"?>
<!-- Generator: Adobe Illustrator 16.0.0, SVG Export Plug-In . SVG Version: 6.00 Build 0)  -->
<!DOCTYPE svg PUBLIC "-//W3C//DTD SVG 1.1//EN" "http://www.w3.org/Graphics/SVG/1.1/DTD/svg11.dtd">
<svg version="1.1" id="Capa_1" xmlns="http://www.w3.org/2000/svg" xmlns:xlink="http://www.w3.org/1999/xlink" x="0px" y="0px"
	 width="222.371px" height="222.371px" viewBox="0 0 222.371 222.371" style="enable-background:new 0 0 222.371 222.371;"
	 xml:space="preserve">
<g>
	<path d="M202.007,72.519c-0.779-0.983-2.076-1.407-3.294-1.06c-1.218,0.35-2.095,1.397-2.24,2.648
		c-1.304,11.762-15.589,18.073-15.692,18.115c-2.174,0.898-4.457,1.346-6.795,1.346c-17.488,0-34.41-24.454-34.581-24.703
		c-0.511-0.743-1.309-1.228-2.204-1.34c-0.913-0.082-1.79,0.18-2.466,0.779c-6.954,6.266-64.341,39.835-88.664,43.602
		c-27.642,4.28-42.539,10.522-45.556,19.107c-0.709,2.016-0.6,3.843-0.186,5.39c-0.015,0.133-0.076,0.249-0.076,0.389
		c0,4.415,1.726,8.531,4.868,11.57c4.454,4.311,11.548,6.496,21.02,6.496c0.667,0,1.355-0.012,2.046-0.029h187.448
		c0.864,0,1.687-0.366,2.29-0.999c0.59-0.646,0.889-1.485,0.821-2.356l-1.412-18.231c2.46-2.94,4.092-6.399,4.725-10.479
		C225.244,102.1,202.963,73.725,202.007,72.519z M215.903,121.832c-0.651,4.244-2.6,7.526-5.942,10.005
		c-1.304,0.098-4.031,0.274-7.88,0.53c1.103-17.525,8.16-23.639,11.887-25.633C215.678,111.967,216.616,117.198,215.903,121.832z
		 M173.986,99.811c3.172,0,6.26-0.609,9.219-1.839c0.608-0.262,12.787-5.593,17.641-16.474c3.142,4.563,7.611,11.712,10.924,19.382
		c-5.207,2.523-14.803,10.181-15.96,31.895c-10.662,0.688-26.184,1.663-43.836,2.631l-26.671-40.992
		c5.73-3.188,11.825-6.777,18.292-10.857C151.005,91.164,162.069,99.811,173.986,99.811z M110.798,137.468
		c-0.019-0.121,0.006-0.236-0.024-0.347l-8.674-31.088c1.641-0.722,3.291-1.465,5.021-2.269
		c0.722,2.125,11.082,22.707,16.343,33.119C119.262,137.085,115.042,137.287,110.798,137.468z M130.278,136.549
		c-6.552-12.939-16.545-32.885-17.263-34.8c-0.086-0.24-0.238-0.429-0.378-0.642c2.32-1.151,4.713-2.387,7.179-3.696l24.966,38.383
		C140.057,136.056,135.204,136.306,130.278,136.549z M136.214,75.058c0.804,1.047,1.863,2.362,3.1,3.814
		c-30.668,19.188-52.41,27.435-66.558,30.76C97.256,99.113,126.32,82.103,136.214,75.058z M47.036,118.082
		c1.011-0.152,2.125-0.414,3.23-0.658c1.09,0.244,3.224,0.603,6.622,0.603c7.234,0,20.021-1.687,39.412-9.535l8.162,29.246
		c-15.034,0.627-29.952,1.126-43.485,1.364c-0.387-3.337-1.714-6.205-4.095-8.488c-6.36-6.107-17.646-5.742-18.164-5.706
		c-8.835,0.518-12.394-0.207-13.731-0.676c0.177-0.194,0.381-0.39,0.576-0.548c0.481-0.378,0.761-0.877,0.953-1.413
		C31.853,120.821,38.569,119.39,47.036,118.082z M6.458,133.005c0.624-1.65,3.078-4.786,11.99-8.153
		c0.018,0.518,0.006,1.029,0.207,1.553c1.519,4.05,7.629,5.462,20.389,4.72c2.488-0.074,9.831,0.426,13.53,3.988
		c1.148,1.102,1.714,2.502,2.025,4.079c-3.392,0.036-6.695,0.062-9.849,0.062c-28.984,0-35.829-1.778-37.434-2.564
		c-0.131-0.285-0.292-0.554-0.484-0.785C6.662,135.703,5.839,134.588,6.458,133.005z M28.104,148.612
		c-8.729,0.25-15.168-1.352-18.624-4.707c-0.088-0.091-0.131-0.177-0.219-0.262c6.08,1.175,16.742,1.845,35.488,1.845
		c59.521,0,165.46-7.404,166.52-7.483c0.067-0.006,0.116-0.055,0.183-0.061l0.822,10.668H28.104z"/>
</g>
<g>
</g>
<g>
</g>
<g>
</g>
<g>
</g>
<g>
</g>
<g>
</g>
<g>
</g>
<g>
</g>
<g>
</g>
<g>
</g>
<g>
</g>
<g>
</g>
<g>
</g>
<g>
</g>
<g>
</g>
</svg>
