<?xml version="1.0" encoding="iso-8859-1"?>
<!-- Generator: Adobe Illustrator 18.0.0, SVG Export Plug-In . SVG Version: 6.00 Build 0)  -->
<!DOCTYPE svg PUBLIC "-//W3C//DTD SVG 1.1//EN" "http://www.w3.org/Graphics/SVG/1.1/DTD/svg11.dtd">
<svg version="1.1" id="Capa_1" xmlns="http://www.w3.org/2000/svg" xmlns:xlink="http://www.w3.org/1999/xlink" x="0px" y="0px"
	 viewBox="0 0 498.247 498.247" style="enable-background:new 0 0 498.247 498.247;" xml:space="preserve">
<g id="XMLID_452_">
	<path id="XMLID_453_" d="M246.079,101.305c16.205-15.492,16.789-41.16,1.32-57.375c-15.477-16.199-41.161-16.791-57.359-1.33
		c-16.206,15.477-16.807,41.145-1.338,57.361C204.179,116.176,229.862,116.783,246.079,101.305z"/>
	<path id="XMLID_454_" d="M28.537,127.828L86.726,99.14l29.223,11.405L27.825,194.69c5.376,1.594,10.496,4.201,14.967,8.059
		c27.793-25.67,70.457-26.425,99.054-2.218l40.67-36.302l13.695,18.218c10.823,0.673,21.155,3.576,30.543,8.566l67.855-7.746
		c9.37-1.068,16.091-9.535,15.023-18.891c-1.067-9.371-9.584-16.067-18.898-15.018l-70.636,8.059
		c-37.437-49.744-29.223-40.062-44.223-55.768c-2.027-2.133-8.895-7.796-12.121-9.059L92.134,64.609
		c-4.447-1.771-9.453-1.542-13.761,0.574L13.439,97.219c-8.452,4.152-11.932,14.393-7.763,22.862
		C9.895,128.601,20.226,131.946,28.537,127.828z"/>
	<path id="XMLID_455_" d="M42.833,260.797c14.386,0,27.902-5.595,38.06-15.772c7-6.991,18.357-6.961,25.341,0.016
		c9.518,9.502,22.163,14.771,35.629,14.771h0.009c13.458-0.016,26.111-5.27,36.253-15.395c7.082-7.107,19.399-7.141,26.564,0.031
		c6.055,6.074,13.333,10.045,21.033,12.41l17.822-8.797c8.189-4.039,17.717-4.447,26.218-1.118l2.733,1.067
		c1.927-1.479,3.897-2.904,5.677-4.693c5.565-6.678,4.875-16.527-1.543-22.402c-6.425-5.842-16.345-5.598-22.482,0.541
		c-7.304,7.271-19.179,7.303-26.514-0.05c-9.675-9.683-22.551-15.015-36.246-15.015h-0.008c-13.695,0.016-26.571,5.35-36.876,15.656
		c-6.738,6.711-18.479,6.828-25.309-0.051c-19.653-19.629-51.648-19.644-71.302,0.051c-8.05,8.041-22.081,8.058-30.132-0.018
		c-6.344-6.352-16.65-6.352-22.993,0c-6.352,6.338-6.352,16.643-0.017,22.994C14.925,255.202,28.448,260.797,42.833,260.797z"/>
	<path id="XMLID_456_" d="M250.377,261.912l-64.932,32.022c-8.46,4.169-11.932,14.41-7.763,22.861
		c4.216,8.533,14.549,11.881,22.861,7.744l58.188-28.686l29.222,11.423l-12.316,11.767l-71.886,68.635
		c17.972,0.688,34.852,7.287,48.186,19.218c19.325-17.265,46.791-22.419,71.277-16.051l31.306-29.886l16.182,21.5
		c3.735,4.972,9.79,7.402,15.576,6.711l80.335-9.174c9.373-1.064,16.093-9.533,15.026-18.906
		c-1.067-9.37-9.552-16.051-18.899-15.016l-70.637,8.074c-38.838-51.613-29.114-39.98-44.222-55.783
		c-2.027-2.119-8.896-7.797-12.12-9.046l-71.621-27.997C259.691,259.565,254.687,259.797,250.377,261.912z"/>
	<path id="XMLID_457_" d="M360.708,296.69c0.049,0.049,0.098,0.082,0.148,0.115c15.476,16.068,41.061,16.643,57.227,1.232
		c16.207-15.494,16.791-41.161,1.323-57.377c-15.476-16.214-41.163-16.807-57.36-1.33
		C345.534,255.103,345.78,281.034,360.708,296.69z"/>
	<path id="XMLID_458_" d="M493.481,427.131c-6.386-6.35-16.684-6.35-23.002,0.035c-7.361,7.369-17.955,5.809-14.032,5.809
		c-5.317,0-10.323-2.068-14.089-5.844c-19.827-19.809-54.309-19.791-74.118,0.035c-7.524,7.516-20.588,7.498-28.13-0.017
		c-19.801-19.826-54.257-19.858-74.132,0.034c-7.37,7.366-20.213,7.515-27.745,0.327l-0.37-0.361
		c-19.769-19.793-53.674-20.416-74.756,0.641c-7.13,7.105-19.751,7.105-26.868-0.018c-19.464-19.48-53.404-19.48-72.876,0
		c-8.509,8.52-23.371,8.52-31.88,0c-6.352-6.351-16.642-6.351-22.993,0c-6.352,6.352-6.352,16.642,0,22.994
		c10.731,10.733,24.83,16.1,38.929,16.1c14.096,0,28.195-5.366,38.929-16.1c7.188-7.155,19.686-7.205,26.899,0.018
		c19.348,19.283,52.886,19.955,73.483-0.643c7.378-7.385,20.293-7.499,27.811-0.328l0.361,0.345
		c19.785,19.794,54.291,19.827,74.101-0.032c7.523-7.518,20.589-7.518,28.12,0c19.81,19.826,54.309,19.844,74.109,0.016
		c7.541-7.516,20.613-7.499,28.138-0.016c20.498,20.497,53.7,20.467,74.132-0.017C499.84,443.758,499.823,433.485,493.481,427.131z"
		/>
</g>
<g>
</g>
<g>
</g>
<g>
</g>
<g>
</g>
<g>
</g>
<g>
</g>
<g>
</g>
<g>
</g>
<g>
</g>
<g>
</g>
<g>
</g>
<g>
</g>
<g>
</g>
<g>
</g>
<g>
</g>
</svg>
