<?xml version="1.0" encoding="iso-8859-1"?>
<!-- Generator: Adobe Illustrator 19.0.0, SVG Export Plug-In . SVG Version: 6.00 Build 0)  -->
<svg version="1.1" id="Layer_1" xmlns="http://www.w3.org/2000/svg" xmlns:xlink="http://www.w3.org/1999/xlink" x="0px" y="0px"
	 viewBox="0 0 511.999 511.999" style="enable-background:new 0 0 511.999 511.999;" xml:space="preserve">
<g>
	<g>
		<path d="M337.124,150.061H168.959c-22.382,6.582-38.767,27.31-38.767,51.793v256.172c0,29.761,24.213,53.972,53.974,53.972
			h137.749c29.761,0,53.973-24.212,53.973-53.972V201.855C375.889,177.372,359.504,156.644,337.124,150.061z"/>
	</g>
</g>
<g>
	<g>
		<path d="M339.311,34.655h-3.714C330.356,14.735,312.195,0,290.653,0h-75.224c-25.623,0-46.47,20.847-46.47,46.47v73.174h137.769
			h32.584c23.432,0,42.496-19.063,42.496-42.494S362.745,34.655,339.311,34.655z M339.311,89.227h-2.176l-0.008-24.154h2.184
			c6.66,0,12.079,5.418,12.079,12.078C351.39,83.809,345.972,89.227,339.311,89.227z"/>
	</g>
</g>
<g>
</g>
<g>
</g>
<g>
</g>
<g>
</g>
<g>
</g>
<g>
</g>
<g>
</g>
<g>
</g>
<g>
</g>
<g>
</g>
<g>
</g>
<g>
</g>
<g>
</g>
<g>
</g>
<g>
</g>
</svg>
