<?xml version="1.0" encoding="iso-8859-1"?>
<!-- Generator: Adobe Illustrator 18.0.0, SVG Export Plug-In . SVG Version: 6.00 Build 0)  -->
<!DOCTYPE svg PUBLIC "-//W3C//DTD SVG 1.1//EN" "http://www.w3.org/Graphics/SVG/1.1/DTD/svg11.dtd">
<svg version="1.1" id="Capa_1" xmlns="http://www.w3.org/2000/svg" xmlns:xlink="http://www.w3.org/1999/xlink" x="0px" y="0px"
	 viewBox="0 0 493.584 493.584" style="enable-background:new 0 0 493.584 493.584;" xml:space="preserve">
<g id="XMLID_620_">
	<path id="XMLID_621_" d="M248.524,87.293c19.807,0,35.844-16.038,35.844-35.836c0-19.781-16.037-35.818-35.844-35.818
		c-19.789,0-35.828,16.037-35.828,35.818C212.696,71.255,228.735,87.293,248.524,87.293z"/>
	<path id="XMLID_622_" d="M441.412,455.839H318.004V407.92c0-6.094-4.943-11.022-11.015-11.022H190.782
		c-6.088,0-11.015,4.928-11.015,11.022v23.743H56.362c-6.089,0-11.032,4.935-11.032,11.03v50.891c241.599,0,132.039,0,407.111,0
		v-26.722C452.441,460.775,447.497,455.839,441.412,455.839z"/>
	<path id="XMLID_623_" d="M110.287,123.932c19.789,0,35.826-16.037,35.826-35.835c0-19.789-16.037-35.826-35.826-35.826
		c-19.807,0-35.845,16.037-35.845,35.826C74.443,107.895,90.481,123.932,110.287,123.932z"/>
	<path id="XMLID_624_" d="M383.299,152.225c19.79,0,35.826-16.039,35.826-35.828c0-19.79-16.036-35.835-35.826-35.835
		c-19.807,0-35.828,16.045-35.828,35.835C347.471,136.186,363.493,152.225,383.299,152.225z"/>
	<path id="XMLID_625_" d="M106.521,177.313c1.223-0.206,2.477-0.319,3.758-0.319c1.275,0,2.524,0.112,3.743,0.316l16.521-46.477
		H90.014L106.521,177.313z"/>
	<path id="XMLID_626_" d="M379.568,205.69c1.214-0.203,2.46-0.314,3.732-0.314c1.267,0,2.509,0.11,3.719,0.311l16.538-46.563
		h-40.513L379.568,205.69z"/>
	<path id="XMLID_627_" d="M244.862,140.871c1.138-0.178,2.303-0.271,3.49-0.271c1.317,0,2.606,0.12,3.861,0.337l16.598-46.746
		h-40.545L244.862,140.871z"/>
	<path id="XMLID_628_" d="M479.575,280.107l-51.107-111.954c-2.08-4.587-6.154-7.46-10.694-8.452l-18.574,52.258
		c4.074,4.071,6.595,9.696,6.595,15.91c0,12.423-10.071,22.493-22.494,22.493c-12.422,0-22.492-10.07-22.492-22.493
		c0-6.213,2.519-11.837,6.591-15.908l-18.574-52.26c-4.558,0.973-8.614,3.855-10.693,8.452l-46.177,101.155v-14.232h0.027V120.185
		l33.054-15.386c2.923-1.36,5.15-3.871,6.153-6.935l25.334-77.381c2.702-8.192-1.772-17.006-9.953-19.693
		c-8.243-2.683-17.02,1.8-19.693,9.982l-22.684,69.313l-19.309,9.474l-20.53,57.728c4.014,4.063,6.493,9.644,6.493,15.805
		c0,12.422-10.07,22.493-22.493,22.493s-22.493-10.071-22.493-22.493c0-6.302,2.595-11.995,6.77-16.078l-20.399-57.446
		l-19.322-9.483l-22.689-69.313c-2.655-8.187-11.512-12.698-19.66-9.982c-8.211,2.679-12.67,11.497-9.982,19.693l25.317,77.38
		c1.002,3.064,3.23,5.575,6.153,6.936l33.052,15.385V248.65l-49.645-108.795c-2.094-4.588-6.149-7.47-10.708-8.453l-18.535,52.208
		c4.055,4.068,6.563,9.68,6.563,15.878c0,12.422-10.07,22.493-22.493,22.493c-12.423,0-22.493-10.07-22.493-22.493
		c0-6.204,2.512-11.82,6.573-15.89l-18.563-52.196c-4.559,0.974-8.613,3.856-10.707,8.453L14.009,251.808
		c-3.575,7.84-0.128,17.101,7.713,20.682c2.112,0.959,4.315,1.41,6.477,1.41c5.907,0,11.592-3.39,14.199-9.132l24.428-53.524v80.474
		h0.033v109.588c0,10.12,8.21,18.316,18.34,18.316c10.11,0,18.326-8.196,18.326-18.316V291.718h13.524v109.588
		c0,10.12,8.197,18.316,18.325,18.316c10.11,0,18.321-8.196,18.321-18.316V291.718h0.02v-80.53l24.441,53.581
		c2.627,5.742,8.292,9.132,14.219,9.132c2.141,0,4.345-0.451,6.457-1.41c2.75-1.264,4.735-3.358,6.278-5.723v97.901
		c0,10.12,8.211,18.316,18.326,18.316c10.13,0,18.321-8.197,18.321-18.316V255.076h13.543v109.593
		c0,10.12,8.211,18.316,18.326,18.316c10.129,0,18.326-8.197,18.326-18.316V298.76c0.915,0.703,1.704,1.525,2.782,2.023
		c2.108,0.955,4.316,1.406,6.473,1.406c5.927,0,11.597-3.387,14.203-9.128l24.443-53.548v80.492h0.032v109.594
		c0,10.12,8.197,18.316,18.326,18.316c10.11,0,18.32-8.196,18.32-18.316V320.006h13.544v109.594c0,10.12,8.196,18.316,18.325,18.316
		c10.111,0,18.321-8.196,18.321-18.316V320.006h0.02v-80.511l24.442,53.567c2.625,5.741,8.291,9.128,14.219,9.128
		c2.14,0,4.363-0.452,6.457-1.406C479.703,297.197,483.15,287.947,479.575,280.107z"/>
</g>
<g>
</g>
<g>
</g>
<g>
</g>
<g>
</g>
<g>
</g>
<g>
</g>
<g>
</g>
<g>
</g>
<g>
</g>
<g>
</g>
<g>
</g>
<g>
</g>
<g>
</g>
<g>
</g>
<g>
</g>
</svg>
